{
.appVersion = "3343";
copyright = "Copyright (c) 2014, Impallari Type (www.impallari.com), with Reserved Font Name Libre Clarendon.";
customParameters = (
{
name = description;
value = "Libre Clarendon fonts in 20 Styles. 4 Widths (Condensed Narrow Normal Wide) in 5 weigths each (Ligth Regular Medium Bold and Black).\012An integrated and comprehensive Clarendon family in a wide range of weights and widths that can be used for both Text and Display settings. Loosely based in 1874 Fann Street Foundry Specimens.";
},
{
name = license;
value = "This Font Software is licensed under the SIL Open Font License, Version 1.1. This license is available with a FAQ at: http://scripts.sil.org/OFL";
},
{
name = licenseURL;
value = "http://scripts.sil.org/OFL";
},
{
name = trademark;
value = "Libre Clarendon is a trademark of Impallari Type.";
},
{
name = vendorID;
value = IMPA;
},
{
name = Axes;
value = (
{
Name = Weight;
Tag = wght;
},
{
Name = Width;
Tag = wdth;
},
{
Name = XOPQ;
Tag = XOPQ;
},
{
Name = XTRA;
Tag = XTRA;
},
{
Name = YOPQ;
Tag = YOPQ;
},
{
Name = YTRA;
Tag = YTRA;
}
);
}
);
date = "2015-05-08 17:09:15 +0000";
designer = "Pablo Impallari, Rodrigo Fuenzalida";
designerURL = "http://www.impallari.com/";
familyName = "Libre Clarendon";
featurePrefixes = (
{
automatic = 1;
code = "languagesystem DFLT dflt;\012\012languagesystem latn dflt;\012";
name = Languagesystems;
}
);
features = (
{
automatic = 1;
code = "feature ordn;\012";
name = aalt;
},
{
automatic = 1;
code = "lookup ccmp_latn_1 {\012	lookupflag 0;\012	sub fi by f i;\012	sub fl by f l;\012	sub lj by l j;\012	sub Lj by L j;\012	sub LJ by L J;\012	sub nj by n j;\012	sub Nj by N j;\012	sub NJ by N J;\012	sub dz by d z;\012	sub Dz by D z;\012	sub DZ by D Z;\012} ccmp_latn_1;\012\012script latn;\012lookup ccmp_latn_1;\012";
name = ccmp;
},
{
automatic = 1;

glyphs = (
{
color = 0;
glyphname = H;
lastChange = "2025-06-27 05:07:57 +0000";
layers = (
{
layerId = "5DAEE4C7-75B6-49C7-8B62-3AAE62732CCA";
name = "Light Condensed";
paths = (
{
closed = 1;
nodes = (
"19 0 LINE",
"278 0 LINE",
"278 50 LINE",
"211 50 LINE SMOOTH",
"193 50 OFFCURVE",
"186 64 OFFCURVE",
"186 84 CURVE",
"186 546 LINE",
"186 566 OFFCURVE",
"193 580 OFFCURVE",
"211 580 CURVE SMOOTH",
"278 580 LINE",
"278 630 LINE",
"18 630 LINE",
"18 580 LINE",
"84 580 LINE SMOOTH",
"106 580 OFFCURVE",
"113 566 OFFCURVE",
"113 546 CURVE SMOOTH",
"113 84 LINE SMOOTH",
"113 64 OFFCURVE",
"106 50 OFFCURVE",
"84 50 CURVE SMOOTH",
"19 50 LINE"
);
},
{
closed = 1;
nodes = (
"168 297 LINE",
"560 297 LINE",
"557 349 LINE",
"170 349 LINE"
);
},
{
closed = 1;
nodes = (
"439 0 LINE",
"699 0 LINE",
"699 50 LINE",
"631 50 LINE SMOOTH",
"612 50 OFFCURVE",
"605 64 OFFCURVE",
"605 84 CURVE SMOOTH",
"605 546 LINE SMOOTH",
"605 566 OFFCURVE",
"612 580 OFFCURVE",
"631 580 CURVE SMOOTH",
"700 580 LINE",
"700 630 LINE",
"439 630 LINE",
"439 580 LINE",
"504 580 LINE SMOOTH",
"526 580 OFFCURVE",
"532 566 OFFCURVE",
"532 546 CURVE",
"532 84 LINE",
"532 64 OFFCURVE",
"525 50 OFFCURVE",
"504 50 CURVE SMOOTH",
"439 50 LINE"
);
}
);
width = 718;
},
{
layerId = m002;
paths = (
{
closed = 1;
nodes = (
"19 0 LINE",
"278 0 LINE",
"278 50 LINE",
"211 50 LINE SMOOTH",
"193 50 OFFCURVE",
"186 64 OFFCURVE",
"186 84 CURVE",
"186 546 LINE",
"186 566 OFFCURVE",
"193 580 OFFCURVE",
"211 580 CURVE SMOOTH",
"278 580 LINE",
"278 630 LINE",
"18 630 LINE",
"18 580 LINE",
"84 580 LINE SMOOTH",
"106 580 OFFCURVE",
"113 566 OFFCURVE",
"113 546 CURVE SMOOTH",
"113 84 LINE SMOOTH",
"113 64 OFFCURVE",
"106 50 OFFCURVE",
"84 50 CURVE SMOOTH",
"19 50 LINE"
);
},
{
closed = 1;
nodes = (
"168 297 LINE",
"560 297 LINE",
"557 349 LINE",
"170 349 LINE"
);
},
{
closed = 1;
nodes = (
"439 0 LINE",
"699 0 LINE",
"699 50 LINE",
"631 50 LINE SMOOTH",
"612 50 OFFCURVE",
"605 64 OFFCURVE",
"605 84 CURVE SMOOTH",
"605 546 LINE SMOOTH",
"605 566 OFFCURVE",
"612 580 OFFCURVE",
"631 580 CURVE SMOOTH",
"700 580 LINE",
"700 630 LINE",
"439 630 LINE",
"439 580 LINE",
"504 580 LINE SMOOTH",
"526 580 OFFCURVE",
"532 566 OFFCURVE",
"532 546 CURVE",
"532 84 LINE",
"532 64 OFFCURVE",
"525 50 OFFCURVE",
"504 50 CURVE SMOOTH",
"439 50 LINE"
);
}
);
width = 718;
},
{
layerId = m003;
paths = (
{
closed = 1;
nodes = (
"19 0 LINE",
"278 0 LINE",
"278 50 LINE",
"211 50 LINE SMOOTH",
"193 50 OFFCURVE",
"186 64 OFFCURVE",
"186 84 CURVE",
"186 546 LINE",
"186 566 OFFCURVE",
"193 580 OFFCURVE",
"211 580 CURVE SMOOTH",
"278 580 LINE",
"278 630 LINE",
"18 630 LINE",
"18 580 LINE",
"84 580 LINE SMOOTH",
"106 580 OFFCURVE",
"113 566 OFFCURVE",
"113 546 CURVE SMOOTH",
"113 84 LINE SMOOTH",
"113 64 OFFCURVE",
"106 50 OFFCURVE",
"84 50 CURVE SMOOTH",
"19 50 LINE"
);
},
{
closed = 1;
nodes = (
"168 297 LINE",
"560 297 LINE",
"557 349 LINE",
"170 349 LINE"
);
},
{
closed = 1;
nodes = (
"439 0 LINE",
"699 0 LINE",
"699 50 LINE",
"631 50 LINE SMOOTH",
"612 50 OFFCURVE",
"605 64 OFFCURVE",
"605 84 CURVE SMOOTH",
"605 546 LINE SMOOTH",
"605 566 OFFCURVE",
"612 580 OFFCURVE",
"631 580 CURVE SMOOTH",
"700 580 LINE",
"700 630 LINE",
"439 630 LINE",
"439 580 LINE",
"504 580 LINE SMOOTH",
"526 580 OFFCURVE",
"532 566 OFFCURVE",
"532 546 CURVE",
"532 84 LINE",
"532 64 OFFCURVE",
"525 50 OFFCURVE",
"504 50 CURVE SMOOTH",
"439 50 LINE"
);
}
);
width = 718;
},
{
layerId = m004;
paths = (
{
closed = 1;
nodes = (
"19 0 LINE",
"278 0 LINE",
"278 50 LINE",
"211 50 LINE SMOOTH",
"193 50 OFFCURVE",
"186 64 OFFCURVE",
"186 84 CURVE",
"186 546 LINE",
"186 566 OFFCURVE",
"193 580 OFFCURVE",
"211 580 CURVE SMOOTH",
"278 580 LINE",
"278 630 LINE",
"18 630 LINE",
"18 580 LINE",
"84 580 LINE SMOOTH",
"106 580 OFFCURVE",
"113 566 OFFCURVE",
"113 546 CURVE SMOOTH",
"113 84 LINE SMOOTH",
"113 64 OFFCURVE",
"106 50 OFFCURVE",
"84 50 CURVE SMOOTH",
"19 50 LINE"
);
},
{
closed = 1;
nodes = (
"168 297 LINE",
"560 297 LINE",
"557 349 LINE",
"170 349 LINE"
);
},
{
closed = 1;
nodes = (
"439 0 LINE",
"699 0 LINE",
"699 50 LINE",
"631 50 LINE SMOOTH",
"612 50 OFFCURVE",
"605 64 OFFCURVE",
"605 84 CURVE SMOOTH",
"605 546 LINE SMOOTH",
"605 566 OFFCURVE",
"612 580 OFFCURVE",
"631 580 CURVE SMOOTH",
"700 580 LINE",
"700 630 LINE",
"439 630 LINE",
"439 580 LINE",
"504 580 LINE SMOOTH",
"526 580 OFFCURVE",
"532 566 OFFCURVE",
"532 546 CURVE",
"532 84 LINE",
"532 64 OFFCURVE",
"525 50 OFFCURVE",
"504 50 CURVE SMOOTH",
"439 50 LINE"
);
}
);
width = 718;
},
{
layerId = "E4C98B95-3FAD-4F96-AF6D-989EFF3D42C0";
paths = (
{
closed = 1;
nodes = (
"19 0 LINE",
"278 0 LINE",
"278 50 LINE",
"211 50 LINE SMOOTH",
"193 50 OFFCURVE",
"186 64 OFFCURVE",
"186 84 CURVE",
"186 546 LINE",
"186 566 OFFCURVE",
"193 580 OFFCURVE",
"211 580 CURVE SMOOTH",
"278 580 LINE",
"278 630 LINE",
"18 630 LINE",
"18 580 LINE",
"84 580 LINE SMOOTH",
"106 580 OFFCURVE",
"113 566 OFFCURVE",
"113 546 CURVE SMOOTH",
"113 84 LINE SMOOTH",
"113 64 OFFCURVE",
"106 50 OFFCURVE",
"84 50 CURVE SMOOTH",
"19 50 LINE"
);
},
{
closed = 1;
nodes = (
"168 297 LINE",
"560 297 LINE",
"557 349 LINE",
"170 349 LINE"
);
},
{
closed = 1;
nodes = (
"439 0 LINE",
"699 0 LINE",
"699 50 LINE",
"631 50 LINE SMOOTH",
"612 50 OFFCURVE",
"605 64 OFFCURVE",
"605 84 CURVE SMOOTH",
"605 546 LINE SMOOTH",
"605 566 OFFCURVE",
"612 580 OFFCURVE",
"631 580 CURVE SMOOTH",
"700 580 LINE",
"700 630 LINE",
"439 630 LINE",
"439 580 LINE",
"504 580 LINE SMOOTH",
"526 580 OFFCURVE",
"532 566 OFFCURVE",
"532 546 CURVE",
"532 84 LINE",
"532 64 OFFCURVE",
"525 50 OFFCURVE",
"504 50 CURVE SMOOTH",
"439 50 LINE"
);
}
);
width = 718;
},
{
layerId = m007;
paths = (
{
closed = 1;
nodes = (
"19 0 LINE",
"278 0 LINE",
"278 50 LINE",
"211 50 LINE SMOOTH",
"193 50 OFFCURVE",
"186 64 OFFCURVE",
"186 84 CURVE",
"186 546 LINE",
"186 566 OFFCURVE",
"193 580 OFFCURVE",
"211 580 CURVE SMOOTH",
"278 580 LINE",
"278 630 LINE",
"18 630 LINE",
"18 580 LINE",
"84 580 LINE SMOOTH",
"106 580 OFFCURVE",
"113 566 OFFCURVE",
"113 546 CURVE SMOOTH",
"113 84 LINE SMOOTH",
"113 64 OFFCURVE",
"106 50 OFFCURVE",
"84 50 CURVE SMOOTH",
"19 50 LINE"
);
},
{
closed = 1;
nodes = (
"168 297 LINE",
"560 297 LINE",
"557 349 LINE",
"170 349 LINE"
);
},
{
closed = 1;
nodes = (
"439 0 LINE",
"699 0 LINE",
"699 50 LINE",
"631 50 LINE SMOOTH",
"612 50 OFFCURVE",
"605 64 OFFCURVE",
"605 84 CURVE SMOOTH",
"605 546 LINE SMOOTH",
"605 566 OFFCURVE",
"612 580 OFFCURVE",
"631 580 CURVE SMOOTH",
"700 580 LINE",
"700 630 LINE",
"439 630 LINE",
"439 580 LINE",
"504 580 LINE SMOOTH",
"526 580 OFFCURVE",
"532 566 OFFCURVE",
"532 546 CURVE",
"532 84 LINE",
"532 64 OFFCURVE",
"525 50 OFFCURVE",
"504 50 CURVE SMOOTH",
"439 50 LINE"
);
}
);
width = 718;
},
{
layerId = m006;
paths = (
{
closed = 1;
nodes = (
"19 0 LINE",
"278 0 LINE",
"278 50 LINE",
"211 50 LINE SMOOTH",
"193 50 OFFCURVE",
"186 64 OFFCURVE",
"186 84 CURVE",
"186 546 LINE",
"186 566 OFFCURVE",
"193 580 OFFCURVE",
"211 580 CURVE SMOOTH",
"278 580 LINE",
"278 630 LINE",
"18 630 LINE",
"18 580 LINE",
"84 580 LINE SMOOTH",
"106 580 OFFCURVE",
"113 566 OFFCURVE",
"113 546 CURVE SMOOTH",
"113 84 LINE SMOOTH",
"113 64 OFFCURVE",
"106 50 OFFCURVE",
"84 50 CURVE SMOOTH",
"19 50 LINE"
);
},
{
closed = 1;
nodes = (
"168 297 LINE",
"560 297 LINE",
"557 349 LINE",
"170 349 LINE"
);
},
{
closed = 1;
nodes = (
"439 0 LINE",
"699 0 LINE",
"699 50 LINE",
"631 50 LINE SMOOTH",
"612 50 OFFCURVE",
"605 64 OFFCURVE",
"605 84 CURVE SMOOTH",
"605 546 LINE SMOOTH",
"605 566 OFFCURVE",
"612 580 OFFCURVE",
"631 580 CURVE SMOOTH",
"700 580 LINE",
"700 630 LINE",
"439 630 LINE",
"439 580 LINE",
"504 580 LINE SMOOTH",
"526 580 OFFCURVE",
"532 566 OFFCURVE",
"532 546 CURVE",
"532 84 LINE",
"532 64 OFFCURVE",
"525 50 OFFCURVE",
"504 50 CURVE SMOOTH",
"439 50 LINE"
);
}
);
width = 718;
},
{
layerId = m008;
paths = (
{
closed = 1;
nodes = (
"19 0 LINE",
"278 0 LINE",
"278 50 LINE",
"211 50 LINE SMOOTH",
"193 50 OFFCURVE",
"186 64 OFFCURVE",
"186 84 CURVE",
"186 546 LINE",
"186 566 OFFCURVE",
"193 580 OFFCURVE",
"211 580 CURVE SMOOTH",
"278 580 LINE",
"278 630 LINE",
"18 630 LINE",
"18 580 LINE",
"84 580 LINE SMOOTH",
"106 580 OFFCURVE",
"113 566 OFFCURVE",
"113 546 CURVE SMOOTH",
"113 84 LINE SMOOTH",
"113 64 OFFCURVE",
"106 50 OFFCURVE",
"84 50 CURVE SMOOTH",
"19 50 LINE"
);
},
{
closed = 1;
nodes = (
"168 297 LINE",
"560 297 LINE",
"557 349 LINE",
"170 349 LINE"
);
},
{
closed = 1;
nodes = (
"439 0 LINE",
"699 0 LINE",
"699 50 LINE",
"631 50 LINE SMOOTH",
"612 50 OFFCURVE",
"605 64 OFFCURVE",
"605 84 CURVE SMOOTH",
"605 546 LINE SMOOTH",
"605 566 OFFCURVE",
"612 580 OFFCURVE",
"631 580 CURVE SMOOTH",
"700 580 LINE",
"700 630 LINE",
"439 630 LINE",
"439 580 LINE",
"504 580 LINE SMOOTH",
"526 580 OFFCURVE",
"532 566 OFFCURVE",
"532 546 CURVE",
"532 84 LINE",
"532 64 OFFCURVE",
"525 50 OFFCURVE",
"504 50 CURVE SMOOTH",
"439 50 LINE"
);
}
);
width = 718;
},
{
layerId = m009;
paths = (
{
closed = 1;
nodes = (
"19 0 LINE",
"278 0 LINE",
"278 50 LINE",
"211 50 LINE SMOOTH",
"193 50 OFFCURVE",
"186 64 OFFCURVE",
"186 84 CURVE",
"186 546 LINE",
"186 566 OFFCURVE",
"193 580 OFFCURVE",
"211 580 CURVE SMOOTH",
"278 580 LINE",
"278 630 LINE",
"18 630 LINE",
"18 580 LINE",
"84 580 LINE SMOOTH",
"106 580 OFFCURVE",
"113 566 OFFCURVE",
"113 546 CURVE SMOOTH",
"113 84 LINE SMOOTH",
"113 64 OFFCURVE",
"106 50 OFFCURVE",
"84 50 CURVE SMOOTH",
"19 50 LINE"
);
},
{
closed = 1;
nodes = (
"168 297 LINE",
"560 297 LINE",
"557 349 LINE",
"170 349 LINE"
);
},
{
closed = 1;
nodes = (
"439 0 LINE",
"699 0 LINE",
"699 50 LINE",
"631 50 LINE SMOOTH",
"612 50 OFFCURVE",
"605 64 OFFCURVE",
"605 84 CURVE SMOOTH",
"605 546 LINE SMOOTH",
"605 566 OFFCURVE",
"612 580 OFFCURVE",
"631 580 CURVE SMOOTH",
"700 580 LINE",
"700 630 LINE",
"439 630 LINE",
"439 580 LINE",
"504 580 LINE SMOOTH",
"526 580 OFFCURVE",
"532 566 OFFCURVE",
"532 546 CURVE",
"532 84 LINE",
"532 64 OFFCURVE",
"525 50 OFFCURVE",
"504 50 CURVE SMOOTH",
"439 50 LINE"
);
}
);
width = 718;
},
{
layerId = m010;
paths = (
{
closed = 1;
nodes = (
"19 0 LINE",
"278 0 LINE",
"278 50 LINE",
"211 50 LINE SMOOTH",
"193 50 OFFCURVE",
"186 64 OFFCURVE",
"186 84 CURVE",
"186 546 LINE",
"186 566 OFFCURVE",
"193 580 OFFCURVE",
"211 580 CURVE SMOOTH",
"278 580 LINE",
"278 630 LINE",
"18 630 LINE",
"18 580 LINE",
"84 580 LINE SMOOTH",
"106 580 OFFCURVE",
"113 566 OFFCURVE",
"113 546 CURVE SMOOTH",
"113 84 LINE SMOOTH",
"113 64 OFFCURVE",
"106 50 OFFCURVE",
"84 50 CURVE SMOOTH",
"19 50 LINE"
);
},
{
closed = 1;
nodes = (
"168 297 LINE",
"560 297 LINE",
"557 349 LINE",
"170 349 LINE"
);
},
{
closed = 1;
nodes = (
"439 0 LINE",
"699 0 LINE",
"699 50 LINE",
"631 50 LINE SMOOTH",
"612 50 OFFCURVE",
"605 64 OFFCURVE",
"605 84 CURVE SMOOTH",
"605 546 LINE SMOOTH",
"605 566 OFFCURVE",
"612 580 OFFCURVE",
"631 580 CURVE SMOOTH",
"700 580 LINE",
"700 630 LINE",
"439 630 LINE",
"439 580 LINE",
"504 580 LINE SMOOTH",
"526 580 OFFCURVE",
"532 566 OFFCURVE",
"532 546 CURVE",
"532 84 LINE",
"532 64 OFFCURVE",
"525 50 OFFCURVE",
"504 50 CURVE SMOOTH",
"439 50 LINE"
);
}
);
width = 718;
},
{
layerId = m011;
paths = (
{
closed = 1;
nodes = (
"19 0 LINE",
"278 0 LINE",
"278 50 LINE",
"211 50 LINE SMOOTH",
"193 50 OFFCURVE",
"186 64 OFFCURVE",
"186 84 CURVE",
"186 546 LINE",
"186 566 OFFCURVE",
"193 580 OFFCURVE",
"211 580 CURVE SMOOTH",
"278 580 LINE",
"278 630 LINE",
"18 630 LINE",
"18 580 LINE",
"84 580 LINE SMOOTH",
"106 580 OFFCURVE",
"113 566 OFFCURVE",
"113 546 CURVE SMOOTH",
"113 84 LINE SMOOTH",
"113 64 OFFCURVE",
"106 50 OFFCURVE",
"84 50 CURVE SMOOTH",
"19 50 LINE"
);
},
{
closed = 1;
nodes = (
"168 297 LINE",
"560 297 LINE",
"557 349 LINE",
"170 349 LINE"
);
},
{
closed = 1;
nodes = (
"439 0 LINE",
"699 0 LINE",
"699 50 LINE",
"631 50 LINE SMOOTH",
"612 50 OFFCURVE",
"605 64 OFFCURVE",
"605 84 CURVE SMOOTH",
"605 546 LINE SMOOTH",
"605 566 OFFCURVE",
"612 580 OFFCURVE",
"631 580 CURVE SMOOTH",
"700 580 LINE",
"700 630 LINE",
"439 630 LINE",
"439 580 LINE",
"504 580 LINE SMOOTH",
"526 580 OFFCURVE",
"532 566 OFFCURVE",
"532 546 CURVE",
"532 84 LINE",
"532 64 OFFCURVE",
"525 50 OFFCURVE",
"504 50 CURVE SMOOTH",
"439 50 LINE"
);
}
);
width = 718;
},
{
layerId = m012;
paths = (
{
closed = 1;
nodes = (
"19 0 LINE",
"278 0 LINE",
"278 50 LINE",
"211 50 LINE SMOOTH",
"193 50 OFFCURVE",
"186 64 OFFCURVE",
"186 84 CURVE",
"186 546 LINE",
"186 566 OFFCURVE",
"193 580 OFFCURVE",
"211 580 CURVE SMOOTH",
"278 580 LINE",
"278 630 LINE",
"18 630 LINE",
"18 580 LINE",
"84 580 LINE SMOOTH",
"106 580 OFFCURVE",
"113 566 OFFCURVE",
"113 546 CURVE SMOOTH",
"113 84 LINE SMOOTH",
"113 64 OFFCURVE",
"106 50 OFFCURVE",
"84 50 CURVE SMOOTH",
"19 50 LINE"
);
},
{
closed = 1;
nodes = (
"168 297 LINE",
"560 297 LINE",
"557 349 LINE",
"170 349 LINE"
);
},
{
closed = 1;
nodes = (
"439 0 LINE",
"699 0 LINE",
"699 50 LINE",
"631 50 LINE SMOOTH",
"612 50 OFFCURVE",
"605 64 OFFCURVE",
"605 84 CURVE SMOOTH",
"605 546 LINE SMOOTH",
"605 566 OFFCURVE",
"612 580 OFFCURVE",
"631 580 CURVE SMOOTH",
"700 580 LINE",
"700 630 LINE",
"439 630 LINE",
"439 580 LINE",
"504 580 LINE SMOOTH",
"526 580 OFFCURVE",
"532 566 OFFCURVE",
"532 546 CURVE",
"532 84 LINE",
"532 64 OFFCURVE",
"525 50 OFFCURVE",
"504 50 CURVE SMOOTH",
"439 50 LINE"
);
}
);
width = 718;
},
{
layerId = m013;
paths = (
{
closed = 1;
nodes = (
"19 0 LINE",
"278 0 LINE",
"278 50 LINE",
"211 50 LINE SMOOTH",
"193 50 OFFCURVE",
"186 64 OFFCURVE",
"186 84 CURVE",
"186 546 LINE",
"186 566 OFFCURVE",
"193 580 OFFCURVE",
"211 580 CURVE SMOOTH",
"278 580 LINE",
"278 630 LINE",
"18 630 LINE",
"18 580 LINE",
"84 580 LINE SMOOTH",
"106 580 OFFCURVE",
"113 566 OFFCURVE",
"113 546 CURVE SMOOTH",
"113 84 LINE SMOOTH",
"113 64 OFFCURVE",
"106 50 OFFCURVE",
"84 50 CURVE SMOOTH",
"19 50 LINE"
);
},
{
closed = 1;
nodes = (
"168 297 LINE",
"560 297 LINE",
"557 349 LINE",
"170 349 LINE"
);
},
{
closed = 1;
nodes = (
"439 0 LINE",
"699 0 LINE",
"699 50 LINE",
"631 50 LINE SMOOTH",
"612 50 OFFCURVE",
"605 64 OFFCURVE",
"605 84 CURVE SMOOTH",
"605 546 LINE SMOOTH",
"605 566 OFFCURVE",
"612 580 OFFCURVE",
"631 580 CURVE SMOOTH",
"700 580 LINE",
"700 630 LINE",
"439 630 LINE",
"439 580 LINE",
"504 580 LINE SMOOTH",
"526 580 OFFCURVE",
"532 566 OFFCURVE",
"532 546 CURVE",
"532 84 LINE",
"532 64 OFFCURVE",
"525 50 OFFCURVE",
"504 50 CURVE SMOOTH",
"439 50 LINE"
);
}
);
width = 718;
}
);
unicode = 0048;
},
{
color = 11;
export = 0;
glyphname = A;
lastChange = "2025-06-27 05:07:40 +0000";
layers = (
{
layerId = "5DAEE4C7-75B6-49C7-8B62-3AAE62732CCA";
name = "Light Condensed";
paths = (
{
closed = 1;
nodes = (
"5 0 LINE",
"247 0 LINE",
"247 50 LINE",
"185 50 LINE SMOOTH",
"164 50 OFFCURVE",
"155 58 OFFCURVE",
"155 72 CURVE SMOOTH",
"155 78 OFFCURVE",
"157 85 OFFCURVE",
"159 91 CURVE SMOOTH",
"331 563 LINE",
"335 563 LINE",
"506 91 LINE SMOOTH",
"508 85 OFFCURVE",
"509 78 OFFCURVE",
"509 73 CURVE SMOOTH",
"509 58 OFFCURVE",
"499 50 OFFCURVE",
"479 50 CURVE SMOOTH",
"418 50 LINE",
"418 0 LINE",
"682 0 LINE",
"682 50 LINE",
"632 50 LINE SMOOTH",
"606 50 OFFCURVE",
"596 60 OFFCURVE",
"585 91 CURVE SMOOTH",
"386 630 LINE",
"298 630 LINE",
"99 89 LINE SMOOTH",
"87 57 OFFCURVE",
"78 50 OFFCURVE",
"54 50 CURVE SMOOTH",
"5 50 LINE"
);
},
{
closed = 1;
nodes = (
"201 231 LINE",
"476 231 LINE",
"467 281 LINE",
"210 281 LINE"
);
}
);
width = 686;
},
{
layerId = m002;
width = 600;
},
{
layerId = m003;
width = 600;
},
{
layerId = m004;
width = 600;
},
{
layerId = "E4C98B95-3FAD-4F96-AF6D-989EFF3D42C0";
width = 600;
},
{
layerId = m007;
width = 600;
},
{
layerId = m006;
width = 600;
},
{
layerId = m008;
width = 600;
},
{
layerId = m009;
width = 600;
},
{
layerId = m010;
width = 600;
},
{
layerId = m011;
width = 600;
},
{
layerId = m012;
width = 600;
},
{
layerId = m013;
width = 600;
}
);
leftKerningGroup = A;
rightKerningGroup = A;
unicode = 0041;
},
{
color = 11;
export = 0;
glyphname = AE;
lastChange = "2025-06-27 05:07:40 +0000";
layers = (
{
layerId = "5DAEE4C7-75B6-49C7-8B62-3AAE62732CCA";
name = "Light Condensed";
paths = (
{
closed = 1;
nodes = (
"5 0 LINE",
"252 0 LINE",
"252 50 LINE",
"204 50 LINE SMOOTH",
"179 50 OFFCURVE",
"167 59 OFFCURVE",
"167 72 CURVE SMOOTH",
"167 77 OFFCURVE",
"169 82 OFFCURVE",
"174 89 CURVE SMOOTH",
"491 555 LINE",
"496 555 LINE",
"533 629 LINE",
"473 629 LINE",
"108 87 LINE SMOOTH",
"87 57 OFFCURVE",
"75 50 OFFCURVE",
"46 50 CURVE SMOOTH",
"5 50 LINE"
);
},
{
closed = 1;
nodes = (
"248 232 LINE",
"532 232 LINE",
"526 280 LINE",
"255 280 LINE"
);
},
{
closed = 1;
nodes = (
"406 0 LINE",
"937 0 LINE",
"937 228 LINE",
"880 228 LINE",
"880 79 OFFCURVE",
"867 50 OFFCURVE",
"813 50 CURVE SMOOTH",
"569 50 LINE",
"569 295 LINE",
"683 295 LINE SMOOTH",
"723 295 OFFCURVE",
"729 278 OFFCURVE",
"731 186 CURVE",
"778 186 LINE",
"778 447 LINE",
"731 447 LINE",
"729 356 OFFCURVE",
"723 341 OFFCURVE",
"683 341 CURVE SMOOTH",
"569 341 LINE",
"569 580 LINE",
"811 580 LINE SMOOTH",
"864 580 OFFCURVE",
"880 549 OFFCURVE",
"880 404 CURVE",
"937 404 LINE",
"937 630 LINE",
"308 630 LINE",
"308 580 LINE",
"496 580 LINE",
"496 84 LINE SMOOTH",
"496 62 OFFCURVE",
"487 50 OFFCURVE",
"466 50 CURVE SMOOTH",
"406 50 LINE"
);
}
);
width = 1005;
},
{
layerId = m002;
width = 600;
}
);
leftKerningGroup = A;
unicode = 00C6;
},
{
color = 11;
export = 0;
glyphname = B;
lastChange = "2025-06-27 05:07:40 +0000";
layers = (
{
hints = (
{
place = "{59, 0}";
type = Stem;
}
);
layerId = "5DAEE4C7-75B6-49C7-8B62-3AAE62732CCA";
name = "Light Condensed";
paths = (
{
closed = 1;
nodes = (
"471 331 LINE",
"536 354 OFFCURVE",
"570 404 OFFCURVE",
"570 476 CURVE SMOOTH",
"570 574 OFFCURVE",
"507 631 OFFCURVE",
"363 631 CURVE SMOOTH",
"18 631 LINE",
"18 581 LINE",
"80 581 LINE SMOOTH",
"104 581 OFFCURVE",
"113 571 OFFCURVE",
"113 547 CURVE SMOOTH",
"113 82 LINE SMOOTH",
"113 61 OFFCURVE",
"103 50 OFFCURVE",
"84 50 CURVE SMOOTH",
"19 50 LINE",
"19 0 LINE",
"378 0 LINE SMOOTH",
"515 0 OFFCURVE",
"587 62 OFFCURVE",
"587 169 CURVE SMOOTH",
"587 253 OFFCURVE",
"543 309 OFFCURVE",
"471 328 CURVE"
);
},
{
closed = 1;
nodes = (
"455 577 OFFCURVE",
"497 541 OFFCURVE",
"497 468 CURVE SMOOTH",
"497 395 OFFCURVE",
"455 357 OFFCURVE",
"350 357 CURVE SMOOTH",
"186 357 LINE",
"186 577 LINE",
"358 577 LINE SMOOTH"
);
},
{
closed = 1;
nodes = (
"186 53 LINE",
"186 302 LINE",
"357 302 LINE SMOOTH",
"464 302 OFFCURVE",
"511 261 OFFCURVE",
"511 174 CURVE SMOOTH",
"511 92 OFFCURVE",
"468 53 OFFCURVE",
"360 53 CURVE SMOOTH"
);
}
);
width = 628;
},
{
layerId = m002;
width = 600;
}
);
leftMetricsKey = H;
unicode = 0042;
},
{
color = 11;
export = 0;
glyphname = C;
lastChange = "2025-06-27 05:07:40 +0000";
layers = (
{
layerId = "5DAEE4C7-75B6-49C7-8B62-3AAE62732CCA";
name = "Light Condensed";
paths = (
{
closed = 1;
nodes = (
"203 48 OFFCURVE",
"135 134 OFFCURVE",
"135 314 CURVE SMOOTH",
"135 493 OFFCURVE",
"203 582 OFFCURVE",
"340 582 CURVE SMOOTH",
"442 582 OFFCURVE",
"500 530 OFFCURVE",
"519 400 CURVE",
"574 400 LINE",
"574 630 LINE",
"526 630 LINE",
"517 553 LINE",
"513 553 LINE",
"481 605 OFFCURVE",
"423 640 OFFCURVE",
"330 640 CURVE SMOOTH",
"156 640 OFFCURVE",
"57 527 OFFCURVE",
"57 315 CURVE SMOOTH",
"57 104 OFFCURVE",
"154 -10 OFFCURVE",
"331 -10 CURVE SMOOTH",
"491 -10 OFFCURVE",
"581 84 OFFCURVE",
"581 249 CURVE",
"520 249 LINE",
"519 110 OFFCURVE",
"453 48 OFFCURVE",
"338 48 CURVE SMOOTH"
);
}
);
width = 633;
},
{
layerId = m002;
width = 600;
}
);
leftMetricsKey = O;
unicode = 0043;
},
{
color = 11;
export = 0;
glyphname = D;
lastChange = "2025-06-27 05:07:40 +0000";
layers = (
{
layerId = "5DAEE4C7-75B6-49C7-8B62-3AAE62732CCA";
name = "Light Condensed";
paths = (
{
closed = 1;
nodes = (
"19 0 LINE",
"338 0 LINE SMOOTH",
"516 0 OFFCURVE",
"627 103 OFFCURVE",
"627 314 CURVE SMOOTH",
"627 525 OFFCURVE",
"514 630 OFFCURVE",
"336 630 CURVE SMOOTH",
"18 630 LINE",
"18 580 LINE",
"84 580 LINE SMOOTH",
"106 580 OFFCURVE",
"113 565 OFFCURVE",
"113 541 CURVE SMOOTH",
"113 88 LINE SMOOTH",
"113 65 OFFCURVE",
"106 50 OFFCURVE",
"84 50 CURVE SMOOTH",
"19 50 LINE"
);
},
{
closed = 1;
nodes = (
"186 579 LINE",
"328 579 LINE SMOOTH",
"469 579 OFFCURVE",
"550 506 OFFCURVE",
"550 314 CURVE SMOOTH",
"550 119 OFFCURVE",
"464 51 OFFCURVE",
"330 51 CURVE SMOOTH",
"186 51 LINE"
);
}
);
width = 681;
},
{
layerId = m002;
width = 600;
}
);
leftMetricsKey = H;
unicode = 0044;
},
{
color = 11;
export = 0;
glyphname = E;
lastChange = "2025-06-27 05:07:40 +0000";
layers = (
{
layerId = "5DAEE4C7-75B6-49C7-8B62-3AAE62732CCA";
name = "Light Condensed";
paths = (
{
closed = 1;
nodes = (
"19 0 LINE",
"552 0 LINE",
"552 226 LINE",
"497 226 LINE",
"497 84 OFFCURVE",
"490 50 OFFCURVE",
"446 50 CURVE SMOOTH",
"186 50 LINE",
"186 295 LINE",
"300 295 LINE SMOOTH",
"337 295 OFFCURVE",
"343 275 OFFCURVE",
"344 176 CURVE",
"390 176 LINE",
"390 457 LINE",
"344 457 LINE",
"343 360 OFFCURVE",
"337 341 OFFCURVE",
"300 341 CURVE SMOOTH",
"186 341 LINE",
"186 580 LINE",
"444 580 LINE SMOOTH",
"490 580 OFFCURVE",
"497 543 OFFCURVE",
"497 405 CURVE",
"552 405 LINE",
"552 630 LINE",
"19 630 LINE",
"19 580 LINE",
"83 580 LINE SMOOTH",
"105 580 OFFCURVE",
"113 568 OFFCURVE",
"113 544 CURVE SMOOTH",
"113 84 LINE SMOOTH",
"113 62 OFFCURVE",
"104 50 OFFCURVE",
"84 50 CURVE SMOOTH",
"19 50 LINE"
);
}
);
width = 621;
},
{
layerId = m002;
width = 600;
}
);
leftMetricsKey = H;
unicode = 0045;
},
{
color = 11;
export = 0;
glyphname = Schwa;
lastChange = "2025-06-27 05:07:40 +0000";
layers = (
{
layerId = "5DAEE4C7-75B6-49C7-8B62-3AAE62732CCA";
name = "Light Condensed";
paths = (
{
closed = 1;
nodes = (
"166 639 OFFCURVE",
"68 543 OFFCURVE",
"68 394 CURVE",
"140 394 LINE",
"145 510 OFFCURVE",
"215 581 OFFCURVE",
"343 581 CURVE SMOOTH",
"484 581 OFFCURVE",
"550 496 OFFCURVE",
"550 329 CURVE",
"59 329 LINE",
"58 315 OFFCURVE",
"58 310 OFFCURVE",
"58 272 CURVE SMOOTH",
"58 96 OFFCURVE",
"158 -10 OFFCURVE",
"339 -10 CURVE SMOOTH",
"529 -10 OFFCURVE",
"628 108 OFFCURVE",
"628 316 CURVE SMOOTH",
"628 523 OFFCURVE",
"529 639 OFFCURVE",
"339 639 CURVE SMOOTH"
);
},
{
closed = 1;
nodes = (
"549 275 LINE",
"543 127 OFFCURVE",
"477 48 OFFCURVE",
"343 48 CURVE SMOOTH",
"203 48 OFFCURVE",
"130 133 OFFCURVE",
"130 275 CURVE"
);
}
);
width = 685;
},
{
layerId = m002;
width = 600;
}
);
unicode = 018F;
},
{
color = 11;
export = 0;
glyphname = F;
lastChange = "2025-06-27 05:07:40 +0000";
layers = (
{
layerId = "5DAEE4C7-75B6-49C7-8B62-3AAE62732CCA";
name = "Light Condensed";
paths = (
{
closed = 1;
nodes = (
"19 0 LINE",
"311 0 LINE",
"311 50 LINE",
"220 50 LINE SMOOTH",
"199 50 OFFCURVE",
"186 65 OFFCURVE",
"186 90 CURVE SMOOTH",
"186 290 LINE",
"313 290 LINE SMOOTH",
"343 290 OFFCURVE",
"352 268 OFFCURVE",
"352 182 CURVE",
"397 182 LINE",
"397 442 LINE",
"352 442 LINE",
"352 353 OFFCURVE",
"343 336 OFFCURVE",
"313 336 CURVE SMOOTH",
"186 336 LINE",
"186 580 LINE",
"425 580 LINE SMOOTH",
"479 580 OFFCURVE",
"497 559 OFFCURVE",
"497 407 CURVE",
"552 407 LINE",
"552 630 LINE",
"19 630 LINE",
"19 580 LINE",
"81 580 LINE SMOOTH",
"104 580 OFFCURVE",
"113 570 OFFCURVE",
"113 543 CURVE SMOOTH",
"113 83 LINE SMOOTH",
"113 60 OFFCURVE",
"102 50 OFFCURVE",
"84 50 CURVE SMOOTH",
"19 50 LINE"
);
}
);
width = 606;
},
{
layerId = m002;
width = 600;
}
);
leftMetricsKey = H;
rightKerningGroup = F;
unicode = 0046;
},
{
color = 11;
export = 0;
glyphname = G;
lastChange = "2025-06-27 05:07:40 +0000";
layers = (
{
layerId = "5DAEE4C7-75B6-49C7-8B62-3AAE62732CCA";
name = "Light Condensed";
paths = (
{
closed = 1;
nodes = (
"203 48 OFFCURVE",
"135 135 OFFCURVE",
"135 314 CURVE SMOOTH",
"135 494 OFFCURVE",
"204 581 OFFCURVE",
"342 581 CURVE SMOOTH",
"451 581 OFFCURVE",
"505 523 OFFCURVE",
"523 396 CURVE",
"578 396 LINE",
"578 630 LINE",
"529 630 LINE",
"518 552 LINE",
"514 552 LINE",
"479 609 OFFCURVE",
"417 639 OFFCURVE",
"331 639 CURVE SMOOTH",
"156 639 OFFCURVE",
"57 525 OFFCURVE",
"57 314 CURVE SMOOTH",
"57 107 OFFCURVE",
"154 -10 OFFCURVE",
"320 -10 CURVE SMOOTH",
"464 -10 OFFCURVE",
"560 79 OFFCURVE",
"560 215 CURVE",
"514 212 LINE",
"514 108 OFFCURVE",
"449 48 OFFCURVE",
"338 48 CURVE SMOOTH"
);
},
{
closed = 1;
nodes = (
"412 275 LINE",
"483 275 LINE SMOOTH",
"505 275 OFFCURVE",
"514 263 OFFCURVE",
"514 240 CURVE SMOOTH",
"514 74 LINE",
"518 74 LINE",
"534 0 LINE",
"586 0 LINE",
"586 240 LINE SMOOTH",
"586 262 OFFCURVE",
"596 275 OFFCURVE",
"614 275 CURVE SMOOTH",
"658 275 LINE",
"658 325 LINE",
"412 325 LINE"
);
}
);
width = 670;
},
{
layerId = m002;
width = 600;
}
);
leftMetricsKey = O;
unicode = 0047;
},
{
color = 11;
export = 0;
glyphname = I;
lastChange = "2025-06-27 05:07:40 +0000";
layers = (
{
layerId = "5DAEE4C7-75B6-49C7-8B62-3AAE62732CCA";
name = "Light Condensed";
paths = (
{
closed = 1;
nodes = (
"19 0 LINE",
"267 0 LINE",
"267 50 LINE",
"208 50 LINE SMOOTH",
"188 50 OFFCURVE",
"181 64 OFFCURVE",
"181 84 CURVE SMOOTH",
"181 545 LINE SMOOTH",
"181 566 OFFCURVE",
"188 579 OFFCURVE",
"208 579 CURVE SMOOTH",
"268 579 LINE",
"268 629 LINE",
"18 629 LINE",
"18 579 LINE",
"77 579 LINE SMOOTH",
"101 579 OFFCURVE",
"108 566 OFFCURVE",
"108 545 CURVE SMOOTH",
"108 84 LINE SMOOTH",
"108 64 OFFCURVE",
"100 50 OFFCURVE",
"77 50 CURVE SMOOTH",
"19 50 LINE"
);
}
);
width = 286;
},
{
layerId = m002;
width = 600;
}
);
leftMetricsKey = H;
rightMetricsKey = H;
unicode = 0049;
},
{
color = 11;
export = 0;
glyphname = J;
lastChange = "2025-06-27 05:07:40 +0000";
layers = (
{
layerId = "5DAEE4C7-75B6-49C7-8B62-3AAE62732CCA";
name = "Light Condensed";
paths = (
{
closed = 1;
nodes = (
"89 164 OFFCURVE",
"125 160 OFFCURVE",
"125 199 CURVE SMOOTH",
"125 226 OFFCURVE",
"109 240 OFFCURVE",
"83 240 CURVE SMOOTH",
"44 240 OFFCURVE",
"22 206 OFFCURVE",
"22 148 CURVE SMOOTH",
"22 45 OFFCURVE",
"86 -10 OFFCURVE",
"209 -10 CURVE SMOOTH",
"345 -10 OFFCURVE",
"415 57 OFFCURVE",
"415 182 CURVE SMOOTH",
"415 546 LINE SMOOTH",
"415 568 OFFCURVE",
"424 580 OFFCURVE",
"442 580 CURVE SMOOTH",
"505 580 LINE",
"505 630 LINE",
"252 630 LINE",
"252 580 LINE",
"315 580 LINE SMOOTH",
"334 580 OFFCURVE",
"343 568 OFFCURVE",
"343 546 CURVE SMOOTH",
"343 183 LINE SMOOTH",
"343 91 OFFCURVE",
"298 46 OFFCURVE",
"205 46 CURVE SMOOTH",
"130 46 OFFCURVE",
"89 75 OFFCURVE",
"89 122 CURVE SMOOTH"
);
}
);
width = 528;
},
{
layerId = m002;
width = 600;
}
);
unicode = 004A;
},
{
color = 11;
export = 0;
glyphname = K;
lastChange = "2025-06-27 05:07:40 +0000";
layers = (
{
layerId = "5DAEE4C7-75B6-49C7-8B62-3AAE62732CCA";
name = "Light Condensed";
paths = (
{
closed = 1;
nodes = (
"19 0 LINE",
"279 0 LINE",
"279 50 LINE",
"211 50 LINE SMOOTH",
"193 50 OFFCURVE",
"186 60 OFFCURVE",
"186 81 CURVE SMOOTH",
"186 547 LINE SMOOTH",
"186 570 OFFCURVE",
"194 580 OFFCURVE",
"215 580 CURVE SMOOTH",
"278 580 LINE",
"278 630 LINE",
"18 630 LINE",
"18 580 LINE",
"84 580 LINE SMOOTH",
"104 580 OFFCURVE",
"113 568 OFFCURVE",
"113 547 CURVE SMOOTH",
"113 82 LINE SMOOTH",
"113 60 OFFCURVE",
"105 50 OFFCURVE",
"85 50 CURVE SMOOTH",
"19 50 LINE"
);
},
{
closed = 1;
nodes = (
"569 563 LINE SMOOTH",
"584 577 OFFCURVE",
"598 580 OFFCURVE",
"614 580 CURVE SMOOTH",
"660 580 LINE",
"660 630 LINE",
"411 630 LINE",
"411 580 LINE",
"474 580 LINE SMOOTH",
"483 580 OFFCURVE",
"488 575 OFFCURVE",
"488 568 CURVE SMOOTH",
"488 563 OFFCURVE",
"485 558 OFFCURVE",
"480 553 CURVE",
"126 221 LINE",
"159 184 LINE"
);
},
{
closed = 1;
nodes = (
"420 0 LINE",
"682 0 LINE",
"682 50 LINE",
"633 50 LINE SMOOTH",
"614 50 OFFCURVE",
"602 54 OFFCURVE",
"594 65 CURVE SMOOTH",
"361 400 LINE",
"312 343 LINE",
"500 77 LINE",
"504 72 OFFCURVE",
"505 68 OFFCURVE",
"505 64 CURVE SMOOTH",
"505 56 OFFCURVE",
"498 50 OFFCURVE",
"487 50 CURVE SMOOTH",
"420 50 LINE"
);
}
);
width = 687;
},
{
layerId = m002;
width = 600;
},
{
layerId = m003;
width = 600;
},
{
layerId = m004;
width = 600;
},
{
layerId = "E4C98B95-3FAD-4F96-AF6D-989EFF3D42C0";
width = 600;
},
{
layerId = m007;
width = 600;
},
{
layerId = m006;
width = 600;
},
{
layerId = m008;
width = 600;
},
{
layerId = m009;
width = 600;
},
{
layerId = m010;
width = 600;
},
{
layerId = m011;
width = 600;
},
{
layerId = m012;
width = 600;
},
{
layerId = m013;
width = 600;
}
);
leftMetricsKey = H;
unicode = 004B;
},
{
color = 11;
export = 0;
glyphname = L;
lastChange = "2025-06-27 05:07:40 +0000";
layers = (
{
layerId = "5DAEE4C7-75B6-49C7-8B62-3AAE62732CCA";
name = "Light Condensed";
paths = (
{
closed = 1;
nodes = (
"19 0 LINE",
"521 0 LINE",
"521 255 LINE",
"465 255 LINE",
"465 86 OFFCURVE",
"453 50 OFFCURVE",
"397 50 CURVE SMOOTH",
"186 50 LINE",
"186 545 LINE SMOOTH",
"186 568 OFFCURVE",
"193 580 OFFCURVE",
"215 580 CURVE SMOOTH",
"303 580 LINE",
"303 630 LINE",
"19 630 LINE",
"19 580 LINE",
"83 580 LINE SMOOTH",
"105 580 OFFCURVE",
"113 568 OFFCURVE",
"113 544 CURVE SMOOTH",
"113 84 LINE SMOOTH",
"113 62 OFFCURVE",
"104 50 OFFCURVE",
"84 50 CURVE SMOOTH",
"19 50 LINE"
);
}
);
width = 560;
},
{
layerId = m002;
width = 600;
}
);
leftMetricsKey = H;
unicode = 004C;
},
{
color = 11;
export = 0;
glyphname = M;
lastChange = "2025-06-27 05:07:40 +0000";
layers = (
{
layerId = "5DAEE4C7-75B6-49C7-8B62-3AAE62732CCA";
name = "Light Condensed";
paths = (
{
closed = 1;
nodes = (
"14 0 LINE",
"250 0 LINE",
"250 50 LINE",
"186 50 LINE SMOOTH",
"168 50 OFFCURVE",
"161 64 OFFCURVE",
"161 84 CURVE",
"161 630 LINE",
"14 630 LINE",
"14 580 LINE",
"78 580 LINE SMOOTH",
"100 580 OFFCURVE",
"107 567 OFFCURVE",
"107 546 CURVE SMOOTH",
"107 84 LINE SMOOTH",
"107 64 OFFCURVE",
"100 50 OFFCURVE",
"78 50 CURVE SMOOTH",
"14 50 LINE"
);
},
{
closed = 1;
nodes = (
"561 0 LINE",
"819 0 LINE",
"819 50 LINE",
"751 50 LINE SMOOTH",
"732 50 OFFCURVE",
"725 64 OFFCURVE",
"725 84 CURVE SMOOTH",
"725 546 LINE SMOOTH",
"725 567 OFFCURVE",
"732 580 OFFCURVE",
"751 580 CURVE SMOOTH",
"820 580 LINE",
"820 630 LINE",
"652 630 LINE",
"652 84 LINE",
"652 64 OFFCURVE",
"645 50 OFFCURVE",
"624 50 CURVE SMOOTH",
"561 50 LINE"
);
},
{
closed = 1;
nodes = (
"137 630 LINE",
"160 546 LINE",
"165 546 LINE",
"362 0 LINE",
"446 0 LINE",
"648 546 LINE",
"654 546 LINE",
"680 630 LINE",
"621 630 LINE",
"415 73 LINE",
"411 73 LINE",
"212 630 LINE"
);
}
);
width = 833;
},
{
layerId = m002;
width = 600;
}
);
unicode = 004D;
},
{
color = 11;
export = 0;
glyphname = N;
lastChange = "2025-06-27 05:07:40 +0000";
layers = (
{
layerId = "5DAEE4C7-75B6-49C7-8B62-3AAE62732CCA";
name = "Light Condensed";
paths = (
{
closed = 1;
nodes = (
"270 0 LINE",
"270 50 LINE",
"203 50 LINE SMOOTH",
"184 50 OFFCURVE",
"177 64 OFFCURVE",
"177 84 CURVE SMOOTH",
"177 501 LINE",
"181 501 LINE",
"538 0 LINE",
"596 0 LINE",
"596 546 LINE SMOOTH",
"596 566 OFFCURVE",
"603 580 OFFCURVE",
"623 580 CURVE SMOOTH",
"691 580 LINE",
"691 630 LINE",
"438 630 LINE",
"438 580 LINE",
"504 580 LINE SMOOTH",
"525 580 OFFCURVE",
"532 566 OFFCURVE",
"532 546 CURVE SMOOTH",
"532 142 LINE",
"528 142 LINE",
"178 630 LINE",
"18 630 LINE",
"18 580 LINE",
"84 580 LINE SMOOTH",
"106 580 OFFCURVE",
"113 566 OFFCURVE",
"113 546 CURVE SMOOTH",
"113 84 LINE SMOOTH",
"113 64 OFFCURVE",
"106 50 OFFCURVE",
"84 50 CURVE SMOOTH",
"19 50 LINE",
"19 0 LINE"
);
}
);
width = 709;
},
{
layerId = m002;
width = 600;
}
);
leftMetricsKey = H;
unicode = 004E;
},
{
color = 11;
export = 0;
glyphname = Eng;
lastChange = "2025-06-27 05:07:40 +0000";
layers = (
{
layerId = "5DAEE4C7-75B6-49C7-8B62-3AAE62732CCA";
name = "Light Condensed";
paths = (
{
closed = 1;
nodes = (
"24 0 LINE",
"268 0 LINE",
"268 50 LINE",
"208 50 LINE SMOOTH",
"190 50 OFFCURVE",
"183 64 OFFCURVE",
"183 84 CURVE SMOOTH",
"183 502 LINE",
"187 502 LINE",
"540 0 LINE",
"605 0 LINE",
"605 546 LINE SMOOTH",
"605 566 OFFCURVE",
"612 580 OFFCURVE",
"632 580 CURVE SMOOTH",
"695 580 LINE",
"695 630 LINE",
"447 630 LINE",
"447 580 LINE",
"508 580 LINE SMOOTH",
"529 580 OFFCURVE",
"536 566 OFFCURVE",
"536 546 CURVE SMOOTH",
"536 149 LINE",
"532 149 LINE",
"189 630 LINE",
"23 630 LINE",
"23 580 LINE",
"84 580 LINE SMOOTH",
"106 580 OFFCURVE",
"113 566 OFFCURVE",
"113 546 CURVE SMOOTH",
"113 84 LINE SMOOTH",
"113 64 OFFCURVE",
"106 50 OFFCURVE",
"84 50 CURVE SMOOTH",
"24 50 LINE"
);
},
{
closed = 1;
nodes = (
"548 -226 OFFCURVE",
"605 -166 OFFCURVE",
"605 -47 CURVE SMOOTH",
"605 450 LINE",
"537 450 LINE",
"537 -54 LINE SMOOTH",
"537 -139 OFFCURVE",
"508 -181 OFFCURVE",
"450 -181 CURVE SMOOTH",
"415 -181 OFFCURVE",
"390 -165 OFFCURVE",
"390 -139 CURVE SMOOTH",
"390 -117 OFFCURVE",
"411 -113 OFFCURVE",
"411 -88 CURVE SMOOTH",
"411 -67 OFFCURVE",
"396 -51 OFFCURVE",
"372 -51 CURVE SMOOTH",
"341 -51 OFFCURVE",
"324 -78 OFFCURVE",
"324 -117 CURVE SMOOTH",
"324 -184 OFFCURVE",
"372 -226 OFFCURVE",
"452 -226 CURVE SMOOTH"
);
}
);
width = 718;
},
{
layerId = m002;
width = 600;
}
);
unicode = 014A;
},
{
color = 11;
export = 0;
glyphname = O;
lastChange = "2025-06-27 05:07:40 +0000";
layers = (
{
layerId = "5DAEE4C7-75B6-49C7-8B62-3AAE62732CCA";
name = "Light Condensed";
paths = (
{
closed = 1;
nodes = (
"531 -11 OFFCURVE",
"635 106 OFFCURVE",
"635 315 CURVE SMOOTH",
"635 525 OFFCURVE",
"532 641 OFFCURVE",
"347 641 CURVE SMOOTH",
"161 641 OFFCURVE",
"57 524 OFFCURVE",
"57 315 CURVE SMOOTH",
"57 105 OFFCURVE",
"161 -11 OFFCURVE",
"346 -11 CURVE SMOOTH"
);
},
{
closed = 1;
nodes = (
"205 48 OFFCURVE",
"135 134 OFFCURVE",
"135 314 CURVE SMOOTH",
"135 495 OFFCURVE",
"206 582 OFFCURVE",
"350 582 CURVE SMOOTH",
"492 582 OFFCURVE",
"558 498 OFFCURVE",
"558 314 CURVE SMOOTH",
"558 131 OFFCURVE",
"492 48 OFFCURVE",
"350 48 CURVE SMOOTH"
);
}
);
width = 693;
},
{
layerId = m002;
width = 600;
}
);
unicode = 004F;
},
{
color = 11;
export = 0;
glyphname = Oslash;
lastChange = "2025-06-27 05:07:40 +0000";
layers = (
{
components = (
{
alignment = -1;
name = O;
}
);
layerId = "5DAEE4C7-75B6-49C7-8B62-3AAE62732CCA";
name = "Light Condensed";
paths = (
{
closed = 1;
nodes = (
"56 -33 LINE",
"125 -33 LINE",
"637 663 LINE",
"569 663 LINE"
);
}
);
width = 693;
},
{
layerId = m002;
width = 600;
}
);
unicode = 00D8;
},
{
color = 11;
export = 0;
glyphname = OE;
lastChange = "2025-06-27 05:07:40 +0000";
layers = (
{
layerId = "5DAEE4C7-75B6-49C7-8B62-3AAE62732CCA";
name = "Light Condensed";
paths = (
{
closed = 1;
nodes = (
"923 0 LINE",
"923 228 LINE",
"866 228 LINE",
"866 80 OFFCURVE",
"853 50 OFFCURVE",
"798 50 CURVE SMOOTH",
"539 50 LINE",
"539 295 LINE",
"669 295 LINE SMOOTH",
"708 295 OFFCURVE",
"715 278 OFFCURVE",
"716 186 CURVE",
"764 186 LINE",
"764 447 LINE",
"716 447 LINE",
"715 357 OFFCURVE",
"708 341 OFFCURVE",
"669 341 CURVE SMOOTH",
"539 341 LINE",
"539 580 LINE",
"797 580 LINE SMOOTH",
"851 580 OFFCURVE",
"866 546 OFFCURVE",
"866 404 CURVE",
"923 404 LINE",
"923 630 LINE",
"350 630 LINE SMOOTH",
"158 630 OFFCURVE",
"57 522 OFFCURVE",
"57 315 CURVE SMOOTH",
"57 107 OFFCURVE",
"158 0 OFFCURVE",
"355 0 CURVE SMOOTH"
);
},
{
closed = 1;
nodes = (
"204 53 OFFCURVE",
"135 128 OFFCURVE",
"135 315 CURVE SMOOTH",
"135 500 OFFCURVE",
"203 578 OFFCURVE",
"370 578 CURVE SMOOTH",
"436 578 OFFCURVE",
"466 566 OFFCURVE",
"466 540 CURVE SMOOTH",
"466 89 LINE SMOOTH",
"466 62 OFFCURVE",
"446 53 OFFCURVE",
"377 53 CURVE SMOOTH"
);
}
);
width = 991;
},
{
layerId = m002;
width = 600;
}
);
unicode = 0152;
},
{
color = 11;
export = 0;
glyphname = P;
lastChange = "2025-06-27 05:07:40 +0000";
layers = (
{
layerId = "5DAEE4C7-75B6-49C7-8B62-3AAE62732CCA";
name = "Light Condensed";
paths = (
{
closed = 1;
nodes = (
"83 50 LINE SMOOTH",
"103 50 OFFCURVE",
"113 61 OFFCURVE",
"113 85 CURVE SMOOTH",
"113 546 LINE SMOOTH",
"113 571 OFFCURVE",
"103 580 OFFCURVE",
"78 580 CURVE SMOOTH",
"18 580 LINE",
"18 630 LINE",
"360 630 LINE SMOOTH",
"501 630 OFFCURVE",
"575 565 OFFCURVE",
"575 444 CURVE SMOOTH",
"575 318 OFFCURVE",
"494 251 OFFCURVE",
"349 251 CURVE",
"173 251 LINE",
"173 308 LINE",
"345 308 LINE SMOOTH",
"452 308 OFFCURVE",
"502 351 OFFCURVE",
"502 444 CURVE SMOOTH",
"502 533 OFFCURVE",
"454 575 OFFCURVE",
"355 575 CURVE SMOOTH",
"186 575 LINE",
"186 85 LINE SMOOTH",
"186 60 OFFCURVE",
"196 50 OFFCURVE",
"217 50 CURVE SMOOTH",
"299 50 LINE",
"299 0 LINE",
"19 0 LINE",
"19 50 LINE"
);
}
);
width = 603;
},
{
layerId = m002;
width = 600;
}
);
leftMetricsKey = H;
unicode = 0050;
},
{
color = 11;
export = 0;
glyphname = Thorn;
lastChange = "2025-06-27 05:07:40 +0000";
layers = (
{
layerId = "5DAEE4C7-75B6-49C7-8B62-3AAE62732CCA";
name = "Light Condensed";
paths = (
{
closed = 1;
nodes = (
"512 132 OFFCURVE",
"593 198 OFFCURVE",
"593 319 CURVE SMOOTH",
"593 434 OFFCURVE",
"519 499 OFFCURVE",
"377 499 CURVE SMOOTH",
"186 499 LINE",
"186 545 LINE SMOOTH",
"186 566 OFFCURVE",
"193 579 OFFCURVE",
"213 579 CURVE SMOOTH",
"289 579 LINE",
"289 629 LINE",
"23 629 LINE",
"23 579 LINE",
"82 579 LINE SMOOTH",
"106 579 OFFCURVE",
"113 566 OFFCURVE",
"113 545 CURVE SMOOTH",
"113 85 LINE SMOOTH",
"113 61 OFFCURVE",
"103 50 OFFCURVE",
"83 50 CURVE SMOOTH",
"24 50 LINE",
"24 0 LINE",
"289 0 LINE",
"289 50 LINE",
"217 50 LINE SMOOTH",
"196 50 OFFCURVE",
"186 60 OFFCURVE",
"186 85 CURVE SMOOTH",
"186 132 LINE",
"366 132 LINE SMOOTH"
);
},
{
closed = 1;
nodes = (
"186 188 LINE",
"186 444 LINE",
"372 444 LINE SMOOTH",
"471 444 OFFCURVE",
"519 402 OFFCURVE",
"519 318 CURVE SMOOTH",
"519 231 OFFCURVE",
"469 188 OFFCURVE",
"362 188 CURVE SMOOTH"
);
}
);
width = 621;
},
{
layerId = m002;
width = 600;
}
);
unicode = 00DE;
},
{
color = 11;
export = 0;
glyphname = Q;
lastChange = "2025-06-27 05:07:40 +0000";
layers = (
{
layerId = "5DAEE4C7-75B6-49C7-8B62-3AAE62732CCA";
name = "Light Condensed";
paths = (
{
closed = 1;
nodes = (
"526 -11 OFFCURVE",
"635 100 OFFCURVE",
"635 316 CURVE SMOOTH",
"636 533 OFFCURVE",
"525 640 OFFCURVE",
"347 640 CURVE SMOOTH",
"169 640 OFFCURVE",
"57 533 OFFCURVE",
"57 315 CURVE SMOOTH",
"57 97 OFFCURVE",
"167 -11 OFFCURVE",
"346 -11 CURVE SMOOTH"
);
},
{
closed = 1;
nodes = (
"218 48 OFFCURVE",
"135 120 OFFCURVE",
"135 314 CURVE SMOOTH",
"135 505 OFFCURVE",
"216 581 OFFCURVE",
"350 581 CURVE SMOOTH",
"484 581 OFFCURVE",
"558 506 OFFCURVE",
"558 314 CURVE SMOOTH",
"558 120 OFFCURVE",
"482 48 OFFCURVE",
"350 48 CURVE SMOOTH"
);
},
{
closed = 1;
nodes = (
"475 156 OFFCURVE",
"387 -110 OFFCURVE",
"577 -110 CURVE SMOOTH",
"667 -110 OFFCURVE",
"701 -50 OFFCURVE",
"701 101 CURVE",
"646 101 LINE",
"647 -6 OFFCURVE",
"628 -45 OFFCURVE",
"578 -45 CURVE SMOOTH",
"453 -45 OFFCURVE",
"531 211 OFFCURVE",
"334 211 CURVE SMOOTH",
"254 211 OFFCURVE",
"206 166 OFFCURVE",
"206 110 CURVE SMOOTH",
"206 78 OFFCURVE",
"221 54 OFFCURVE",
"248 54 CURVE SMOOTH",
"256 54 OFFCURVE",
"266 56 OFFCURVE",
"272 59 CURVE",
"256 65 OFFCURVE",
"246 79 OFFCURVE",
"246 97 CURVE SMOOTH",
"246 131 OFFCURVE",
"275 156 OFFCURVE",
"322 156 CURVE SMOOTH"
);
}
);
width = 710;
},
{
layerId = m002;
width = 600;
}
);
unicode = 0051;
},
{
color = 11;
export = 0;
glyphname = R;
lastChange = "2025-06-27 05:07:40 +0000";
layers = (
{
layerId = "5DAEE4C7-75B6-49C7-8B62-3AAE62732CCA";
name = "Light Condensed";
paths = (
{
closed = 1;
nodes = (
"83 50 LINE SMOOTH",
"103 50 OFFCURVE",
"113 61 OFFCURVE",
"113 85 CURVE SMOOTH",
"113 546 LINE SMOOTH",
"113 571 OFFCURVE",
"103 580 OFFCURVE",
"78 580 CURVE SMOOTH",
"18 580 LINE",
"18 630 LINE",
"354 630 LINE SMOOTH",
"491 630 OFFCURVE",
"566 566 OFFCURVE",
"566 461 CURVE SMOOTH",
"566 353 OFFCURVE",
"485 283 OFFCURVE",
"357 283 CURVE SMOOTH",
"173 283 LINE",
"173 339 LINE",
"341 339 LINE SMOOTH",
"443 339 OFFCURVE",
"492 381 OFFCURVE",
"492 460 CURVE SMOOTH",
"492 536 OFFCURVE",
"444 575 OFFCURVE",
"345 575 CURVE SMOOTH",
"186 575 LINE",
"186 85 LINE SMOOTH",
"186 60 OFFCURVE",
"196 50 OFFCURVE",
"217 50 CURVE SMOOTH",
"293 50 LINE",
"293 0 LINE",
"19 0 LINE",
"19 50 LINE"
);
},
{
closed = 1;
nodes = (
"478 -10 OFFCURVE",
"440 28 OFFCURVE",
"440 104 CURVE SMOOTH",
"440 172 LINE SMOOTH",
"440 252 OFFCURVE",
"409 283 OFFCURVE",
"332 283 CURVE",
"342 312 LINE",
"406 312 OFFCURVE",
"436 309 OFFCURVE",
"452 299 CURVE",
"452 294 LINE",
"495 280 OFFCURVE",
"513 236 OFFCURVE",
"513 179 CURVE SMOOTH",
"513 115 LINE SMOOTH",
"513 67 OFFCURVE",
"526 47 OFFCURVE",
"549 47 CURVE SMOOTH",
"572 47 OFFCURVE",
"585 66 OFFCURVE",
"585 114 CURVE SMOOTH",
"585 171 LINE",
"634 171 LINE",
"634 104 LINE SMOOTH",
"634 26 OFFCURVE",
"602 -10 OFFCURVE",
"542 -10 CURVE SMOOTH"
);
}
);
width = 649;
},
{
layerId = m002;
width = 600;
}
);
leftMetricsKey = H;
unicode = 0052;
},
{
color = 11;
export = 0;
glyphname = S;
lastChange = "2025-06-27 05:07:40 +0000";
layers = (
{
layerId = "5DAEE4C7-75B6-49C7-8B62-3AAE62732CCA";
name = "Light Condensed";
paths = (
{
closed = 1;
nodes = (
"170 44 OFFCURVE",
"102 111 OFFCURVE",
"102 232 CURVE",
"51 232 LINE",
"51 0 LINE",
"102 0 LINE",
"109 61 LINE",
"112 61 LINE",
"150 16 OFFCURVE",
"219 -10 OFFCURVE",
"300 -10 CURVE SMOOTH",
"431 -10 OFFCURVE",
"514 55 OFFCURVE",
"514 160 CURVE SMOOTH",
"514 385 OFFCURVE",
"128 322 OFFCURVE",
"128 482 CURVE SMOOTH",
"128 543 OFFCURVE",
"184 584 OFFCURVE",
"277 584 CURVE SMOOTH",
"388 584 OFFCURVE",
"443 526 OFFCURVE",
"443 411 CURVE",
"495 411 LINE",
"495 630 LINE",
"447 630 LINE",
"439 576 LINE",
"436 576 LINE",
"398 616 OFFCURVE",
"338 638 OFFCURVE",
"266 638 CURVE SMOOTH",
"139 638 OFFCURVE",
"58 574 OFFCURVE",
"58 474 CURVE SMOOTH",
"58 257 OFFCURVE",
"445 325 OFFCURVE",
"445 153 CURVE SMOOTH",
"445 86 OFFCURVE",
"388 44 OFFCURVE",
"292 44 CURVE SMOOTH"
);
}
);
width = 563;
},
{
layerId = m002;
width = 600;
}
);
unicode = 0053;
},
{
color = 11;
export = 0;
glyphname = T;
lastChange = "2025-06-27 05:07:41 +0000";
layers = (
{
layerId = "5DAEE4C7-75B6-49C7-8B62-3AAE62732CCA";
name = "Light Condensed";
paths = (
{
closed = 1;
nodes = (
"146 0 LINE",
"446 0 LINE",
"446 50 LINE",
"362 50 LINE SMOOTH",
"341 50 OFFCURVE",
"334 62 OFFCURVE",
"334 85 CURVE SMOOTH",
"334 580 LINE",
"454 580 LINE SMOOTH",
"509 580 OFFCURVE",
"520 544 OFFCURVE",
"520 368 CURVE",
"574 368 LINE",
"574 630 LINE",
"21 630 LINE",
"21 368 LINE",
"75 368 LINE",
"75 544 OFFCURVE",
"86 580 OFFCURVE",
"141 580 CURVE SMOOTH",
"261 580 LINE",
"261 86 LINE SMOOTH",
"261 62 OFFCURVE",
"253 50 OFFCURVE",
"230 50 CURVE SMOOTH",
"146 50 LINE"
);
}
);
width = 595;
},
{
layerId = m002;
width = 600;
},
{
layerId = m003;
width = 600;
},
{
layerId = m004;
width = 600;
},
{
layerId = "E4C98B95-3FAD-4F96-AF6D-989EFF3D42C0";
width = 600;
},
{
layerId = m007;
width = 600;
},
{
layerId = m006;
width = 600;
},
{
layerId = m008;
width = 600;
},
{
layerId = m009;
width = 600;
},
{
layerId = m010;
width = 600;
},
{
layerId = m011;
width = 600;
},
{
layerId = m012;
width = 600;
},
{
layerId = m013;
width = 600;
}
);
leftKerningGroup = T;
rightKerningGroup = T;
unicode = 0054;
},
{
color = 11;
export = 0;
glyphname = U;
lastChange = "2025-06-27 05:07:40 +0000";
layers = (
{
layerId = "5DAEE4C7-75B6-49C7-8B62-3AAE62732CCA";
name = "Light Condensed";
paths = (
{
closed = 1;
nodes = (
"504 -10 OFFCURVE",
"583 60 OFFCURVE",
"583 194 CURVE SMOOTH",
"583 546 LINE SMOOTH",
"583 569 OFFCURVE",
"591 580 OFFCURVE",
"611 580 CURVE SMOOTH",
"678 580 LINE",
"678 630 LINE",
"434 630 LINE",
"434 580 LINE",
"499 580 LINE SMOOTH",
"517 580 OFFCURVE",
"527 568 OFFCURVE",
"527 546 CURVE SMOOTH",
"527 191 LINE SMOOTH",
"527 96 OFFCURVE",
"473 50 OFFCURVE",
"355 50 CURVE SMOOTH",
"238 50 OFFCURVE",
"186 95 OFFCURVE",
"186 191 CURVE SMOOTH",
"186 546 LINE SMOOTH",
"186 569 OFFCURVE",
"194 580 OFFCURVE",
"213 580 CURVE SMOOTH",
"278 580 LINE",
"278 630 LINE",
"18 630 LINE",
"18 580 LINE",
"85 580 LINE SMOOTH",
"104 580 OFFCURVE",
"113 569 OFFCURVE",
"113 544 CURVE SMOOTH",
"113 194 LINE SMOOTH",
"113 59 OFFCURVE",
"195 -10 OFFCURVE",
"349 -10 CURVE SMOOTH"
);
}
);
width = 696;
},
{
layerId = m002;
width = 600;
}
);
unicode = 0055;
},
{
color = 11;
export = 0;
glyphname = V;
lastChange = "2025-06-27 05:07:40 +0000";
layers = (
{
layerId = "5DAEE4C7-75B6-49C7-8B62-3AAE62732CCA";
name = "Light Condensed";
paths = (
{
closed = 1;
nodes = (
"5 579 LINE",
"54 579 LINE SMOOTH",
"80 579 OFFCURVE",
"91 569 OFFCURVE",
"102 539 CURVE SMOOTH",
"301 0 LINE",
"389 0 LINE",
"586 541 LINE SMOOTH",
"597 570 OFFCURVE",
"607 579 OFFCURVE",
"633 579 CURVE SMOOTH",
"682 579 LINE",
"682 630 LINE",
"435 630 LINE",
"435 579 LINE",
"501 579 LINE SMOOTH",
"522 579 OFFCURVE",
"532 572 OFFCURVE",
"532 558 CURVE SMOOTH",
"532 552 OFFCURVE",
"530 545 OFFCURVE",
"528 538 CURVE SMOOTH",
"356 67 LINE",
"352 67 LINE",
"182 539 LINE SMOOTH",
"180 544 OFFCURVE",
"179 551 OFFCURVE",
"179 556 CURVE SMOOTH",
"179 570 OFFCURVE",
"188 579 OFFCURVE",
"209 579 CURVE SMOOTH",
"274 579 LINE",
"274 630 LINE",
"5 630 LINE"
);
}
);
width = 686;
},
{
layerId = m002;
width = 600;
}
);
unicode = 0056;
},
{
color = 11;
export = 0;
glyphname = W;
lastChange = "2025-06-27 05:07:40 +0000";
layers = (
{
layerId = "5DAEE4C7-75B6-49C7-8B62-3AAE62732CCA";
name = "Light Condensed";
paths = (
{
closed = 1;
nodes = (
"10 580 LINE",
"63 580 LINE SMOOTH",
"89 580 OFFCURVE",
"102 569 OFFCURVE",
"110 539 CURVE SMOOTH",
"265 0 LINE",
"356 0 LINE",
"516 541 LINE",
"459 542 LINE",
"323 72 LINE",
"319 72 LINE",
"189 539 LINE SMOOTH",
"187 545 OFFCURVE",
"187 552 OFFCURVE",
"187 556 CURVE SMOOTH",
"187 572 OFFCURVE",
"198 580 OFFCURVE",
"217 580 CURVE SMOOTH",
"276 580 LINE",
"276 630 LINE",
"10 630 LINE"
);
},
{
closed = 1;
nodes = (
"357 580 LINE",
"408 580 LINE SMOOTH",
"433 580 OFFCURVE",
"446 569 OFFCURVE",
"454 539 CURVE SMOOTH",
"484 429 LINE",
"490 429 LINE",
"615 0 LINE",
"705 0 LINE",
"862 541 LINE SMOOTH",
"871 572 OFFCURVE",
"880 580 OFFCURVE",
"905 580 CURVE SMOOTH",
"957 580 LINE",
"957 630 LINE",
"712 630 LINE",
"712 580 LINE",
"775 580 LINE SMOOTH",
"796 580 OFFCURVE",
"804 571 OFFCURVE",
"804 556 CURVE SMOOTH",
"804 551 OFFCURVE",
"804 546 OFFCURVE",
"802 539 CURVE SMOOTH",
"672 72 LINE",
"668 72 LINE",
"533 539 LINE SMOOTH",
"531 545 OFFCURVE",
"530 552 OFFCURVE",
"530 556 CURVE SMOOTH",
"530 572 OFFCURVE",
"541 580 OFFCURVE",
"561 580 CURVE SMOOTH",
"626 580 LINE",
"626 630 LINE",
"357 630 LINE"
);
}
);
width = 967;
},
{
layerId = m002;
width = 600;
}
);
unicode = 0057;
},
{
color = 11;
export = 0;
glyphname = X;
lastChange = "2025-06-27 05:07:40 +0000";
layers = (
{
layerId = "5DAEE4C7-75B6-49C7-8B62-3AAE62732CCA";
name = "Light Condensed";
paths = (
{
closed = 1;
nodes = (
"432 0 LINE",
"689 0 LINE",
"689 50 LINE",
"642 50 LINE SMOOTH",
"626 50 OFFCURVE",
"615 56 OFFCURVE",
"604 69 CURVE SMOOTH",
"219 546 LINE SMOOTH",
"214 552 OFFCURVE",
"211 559 OFFCURVE",
"211 565 CURVE SMOOTH",
"211 574 OFFCURVE",
"217 580 OFFCURVE",
"229 580 CURVE SMOOTH",
"289 580 LINE",
"289 630 LINE",
"26 630 LINE",
"26 580 LINE",
"67 580 LINE SMOOTH",
"88 580 OFFCURVE",
"99 576 OFFCURVE",
"112 560 CURVE SMOOTH",
"501 80 LINE SMOOTH",
"505 75 OFFCURVE",
"508 69 OFFCURVE",
"508 64 CURVE SMOOTH",
"508 56 OFFCURVE",
"501 50 OFFCURVE",
"488 50 CURVE SMOOTH",
"432 50 LINE"
);
},
{
closed = 1;
nodes = (
"19 0 LINE",
"264 0 LINE",
"264 50 LINE",
"198 50 LINE SMOOTH",
"184 50 OFFCURVE",
"177 55 OFFCURVE",
"177 65 CURVE SMOOTH",
"177 69 OFFCURVE",
"179 73 OFFCURVE",
"183 79 CURVE SMOOTH",
"356 293 LINE",
"392 316 LINE",
"597 558 LINE SMOOTH",
"611 575 OFFCURVE",
"620 580 OFFCURVE",
"643 580 CURVE SMOOTH",
"682 580 LINE",
"682 630 LINE",
"436 630 LINE",
"436 580 LINE",
"502 580 LINE SMOOTH",
"515 580 OFFCURVE",
"521 574 OFFCURVE",
"521 565 CURVE SMOOTH",
"521 560 OFFCURVE",
"519 555 OFFCURVE",
"514 549 CURVE SMOOTH",
"354 354 LINE",
"320 340 LINE",
"106 74 LINE SMOOTH",
"92 57 OFFCURVE",
"82 50 OFFCURVE",
"63 50 CURVE SMOOTH",
"19 50 LINE"
);
}
);
width = 707;
},
{
layerId = m002;
width = 600;
}
);
unicode = 0058;
},
{
color = 11;
export = 0;
glyphname = Y;
lastChange = "2025-06-27 05:07:40 +0000";
layers = (
{
layerId = "5DAEE4C7-75B6-49C7-8B62-3AAE62732CCA";
name = "Light Condensed";
paths = (
{
closed = 1;
nodes = (
"7 580 LINE",
"39 580 LINE SMOOTH",
"68 580 OFFCURVE",
"83 572 OFFCURVE",
"102 541 CURVE SMOOTH",
"308 210 LINE",
"366 220 LINE",
"560 544 LINE SMOOTH",
"577 573 OFFCURVE",
"587 580 OFFCURVE",
"615 580 CURVE SMOOTH",
"649 580 LINE",
"649 630 LINE",
"404 630 LINE",
"404 580 LINE",
"474 580 LINE SMOOTH",
"492 580 OFFCURVE",
"503 573 OFFCURVE",
"503 560 CURVE SMOOTH",
"503 555 OFFCURVE",
"500 546 OFFCURVE",
"496 539 CURVE SMOOTH",
"344 281 LINE",
"340 281 LINE",
"188 539 LINE SMOOTH",
"183 547 OFFCURVE",
"181 553 OFFCURVE",
"181 559 CURVE SMOOTH",
"181 571 OFFCURVE",
"190 580 OFFCURVE",
"209 580 CURVE SMOOTH",
"281 580 LINE",
"281 630 LINE",
"7 630 LINE"
);
},
{
closed = 1;
nodes = (
"207 0 LINE",
"471 0 LINE",
"471 50 LINE",
"403 50 LINE SMOOTH",
"384 50 OFFCURVE",
"375 63 OFFCURVE",
"375 84 CURVE SMOOTH",
"375 276 LINE",
"303 276 LINE",
"303 84 LINE SMOOTH",
"303 63 OFFCURVE",
"295 50 OFFCURVE",
"272 50 CURVE SMOOTH",
"207 50 LINE"
);
}
);
width = 656;
},
{
layerId = m002;
width = 600;
}
);
unicode = 0059;
},
{
color = 11;
export = 0;
glyphname = Z;
lastChange = "2025-06-27 05:07:40 +0000";
layers = (
{
layerId = "5DAEE4C7-75B6-49C7-8B62-3AAE62732CCA";
name = "Light Condensed";
paths = (
{
closed = 1;
nodes = (
"523 261 LINE",
"469 261 LINE",
"469 72 OFFCURVE",
"443 50 OFFCURVE",
"378 50 CURVE SMOOTH",
"124 50 LINE",
"512 576 LINE",
"512 630 LINE",
"54 630 LINE",
"54 368 LINE",
"108 368 LINE",
"108 555 OFFCURVE",
"127 580 OFFCURVE",
"191 580 CURVE SMOOTH",
"427 580 LINE",
"37 52 LINE",
"37 0 LINE",
"523 0 LINE"
);
}
);
width = 560;
},
{
layerId = m002;
width = 600;
}
);
unicode = 005A;
},
{
color = 11;
export = 0;
glyphname = a;
lastChange = "2025-06-27 05:07:40 +0000";
layers = (
{
layerId = "5DAEE4C7-75B6-49C7-8B62-3AAE62732CCA";
name = "Light Condensed";
paths = (
{
closed = 1;
nodes = (
"244 -10 OFFCURVE",
"293 18 OFFCURVE",
"325 73 CURVE",
"329 73 LINE",
"332 20 OFFCURVE",
"364 -10 OFFCURVE",
"416 -10 CURVE SMOOTH",
"478 -10 OFFCURVE",
"506 33 OFFCURVE",
"506 132 CURVE SMOOTH",
"506 150 OFFCURVE",
"505 154 OFFCURVE",
"505 162 CURVE",
"466 162 LINE",
"466 155 OFFCURVE",
"467 151 OFFCURVE",
"467 134 CURVE SMOOTH",
"467 69 OFFCURVE",
"457 44 OFFCURVE",
"425 44 CURVE SMOOTH",
"401 44 OFFCURVE",
"389 60 OFFCURVE",
"389 96 CURVE SMOOTH",
"389 343 LINE SMOOTH",
"389 415 OFFCURVE",
"327 460 OFFCURVE",
"230 460 CURVE SMOOTH",
"127 460 OFFCURVE",
"57 408 OFFCURVE",
"57 334 CURVE SMOOTH",
"57 295 OFFCURVE",
"76 271 OFFCURVE",
"107 271 CURVE SMOOTH",
"132 271 OFFCURVE",
"148 287 OFFCURVE",
"148 308 CURVE SMOOTH",
"148 337 OFFCURVE",
"124 339 OFFCURVE",
"124 361 CURVE SMOOTH",
"124 389 OFFCURVE",
"172 413 OFFCURVE",
"227 413 CURVE SMOOTH",
"287 413 OFFCURVE",
"321 388 OFFCURVE",
"321 340 CURVE SMOOTH",
"321 300 LINE SMOOTH",
"321 278 OFFCURVE",
"314 269 OFFCURVE",
"297 266 CURVE SMOOTH",
"193 246 LINE SMOOTH",
"86 225 OFFCURVE",
"38 184 OFFCURVE",
"38 108 CURVE SMOOTH",
"38 32 OFFCURVE",
"87 -10 OFFCURVE",
"175 -10 CURVE SMOOTH"
);
},
{
closed = 1;
nodes = (
"139 42 OFFCURVE",
"110 66 OFFCURVE",
"110 113 CURVE SMOOTH",
"110 168 OFFCURVE",
"144 197 OFFCURVE",
"225 212 CURVE SMOOTH",
"321 228 LINE",
"321 186 LINE SMOOTH",
"321 102 OFFCURVE",
"264 42 OFFCURVE",
"194 42 CURVE SMOOTH"
);
}
);
width = 504;
},
{
layerId = m002;
width = 600;
},
{
layerId = m003;
width = 600;
},
{
layerId = m004;
width = 600;
},
{
layerId = "E4C98B95-3FAD-4F96-AF6D-989EFF3D42C0";
width = 600;
},
{
layerId = m007;
width = 600;
},
{
layerId = m006;
width = 600;
},
{
layerId = m008;
width = 600;
},
{
layerId = m009;
width = 600;
},
{
layerId = m010;
width = 600;
},
{
layerId = m011;
width = 600;
},
{
layerId = m012;
width = 600;
},
{
layerId = m013;
width = 600;
}
);
unicode = 0061;
},
{
color = 11;
export = 0;
glyphname = ae;
lastChange = "2025-06-27 05:07:40 +0000";
layers = (
{
layerId = "5DAEE4C7-75B6-49C7-8B62-3AAE62732CCA";
name = "Light Condensed";
paths = (
{
closed = 1;
nodes = (
"254 -10 OFFCURVE",
"306 28 OFFCURVE",
"341 98 CURVE",
"345 98 LINE",
"389 96 LINE",
"389 343 LINE SMOOTH",
"389 415 OFFCURVE",
"328 460 OFFCURVE",
"231 460 CURVE SMOOTH",
"128 460 OFFCURVE",
"57 408 OFFCURVE",
"57 334 CURVE SMOOTH",
"57 296 OFFCURVE",
"76 271 OFFCURVE",
"107 271 CURVE SMOOTH",
"132 271 OFFCURVE",
"148 287 OFFCURVE",
"148 309 CURVE SMOOTH",
"148 336 OFFCURVE",
"124 339 OFFCURVE",
"124 360 CURVE SMOOTH",
"124 389 OFFCURVE",
"171 413 OFFCURVE",
"228 413 CURVE SMOOTH",
"287 413 OFFCURVE",
"321 387 OFFCURVE",
"321 340 CURVE SMOOTH",
"321 300 LINE SMOOTH",
"321 278 OFFCURVE",
"314 269 OFFCURVE",
"297 266 CURVE SMOOTH",
"193 246 LINE SMOOTH",
"87 226 OFFCURVE",
"38 184 OFFCURVE",
"38 108 CURVE SMOOTH",
"38 32 OFFCURVE",
"86 -10 OFFCURVE",
"174 -10 CURVE SMOOTH"
);
},
{
closed = 1;
nodes = (
"139 42 OFFCURVE",
"110 68 OFFCURVE",
"110 115 CURVE SMOOTH",
"110 167 OFFCURVE",
"146 198 OFFCURVE",
"225 212 CURVE SMOOTH",
"321 228 LINE",
"321 186 LINE SMOOTH",
"321 102 OFFCURVE",
"266 42 OFFCURVE",
"189 42 CURVE SMOOTH"
);
},
{
closed = 1;
nodes = (
"631 -10 OFFCURVE",
"702 61 OFFCURVE",
"702 175 CURVE",
"643 175 LINE",
"641 89 OFFCURVE",
"597 41 OFFCURVE",
"519 41 CURVE SMOOTH",
"436 41 OFFCURVE",
"394 94 OFFCURVE",
"392 215 CURVE",
"701 215 LINE",
"703 238 OFFCURVE",
"703 242 OFFCURVE",
"703 253 CURVE SMOOTH",
"703 382 OFFCURVE",
"633 460 OFFCURVE",
"518 460 CURVE SMOOTH",
"396 460 OFFCURVE",
"321 373 OFFCURVE",
"321 224 CURVE SMOOTH",
"321 77 OFFCURVE",
"394 -10 OFFCURVE",
"518 -10 CURVE SMOOTH"
);
},
{
closed = 1;
nodes = (
"393 258 LINE",
"399 361 OFFCURVE",
"442 409 OFFCURVE",
"518 409 CURVE SMOOTH",
"596 409 OFFCURVE",
"635 358 OFFCURVE",
"636 258 CURVE"
);
}
);
width = 744;
},
{
layerId = m002;
width = 600;
}
);
unicode = 00E6;
},
{
color = 11;
export = 0;
glyphname = b;
lastChange = "2025-06-27 05:07:40 +0000";
layers = (
{
layerId = "5DAEE4C7-75B6-49C7-8B62-3AAE62732CCA";
name = "Light Condensed";
paths = (
{
closed = 1;
nodes = (
"181 44 OFFCURVE",
"135 110 OFFCURVE",
"135 226 CURVE SMOOTH",
"135 344 OFFCURVE",
"179 406 OFFCURVE",
"262 406 CURVE SMOOTH",
"341 406 OFFCURVE",
"378 348 OFFCURVE",
"378 225 CURVE SMOOTH",
"378 103 OFFCURVE",
"341 44 OFFCURVE",
"262 44 CURVE SMOOTH"
);
},
{
closed = 1;
nodes = (
"116 0 LINE",
"131 68 LINE",
"135 68 LINE",
"163 17 OFFCURVE",
"213 -10 OFFCURVE",
"278 -10 CURVE SMOOTH",
"391 -10 OFFCURVE",
"454 73 OFFCURVE",
"454 226 CURVE SMOOTH",
"454 380 OFFCURVE",
"394 460 OFFCURVE",
"278 460 CURVE SMOOTH",
"214 460 OFFCURVE",
"168 435 OFFCURVE",
"138 382 CURVE",
"134 382 LINE",
"134 665 LINE",
"-18 665 LINE",
"-18 624 LINE",
"39 624 LINE SMOOTH",
"58 624 OFFCURVE",
"66 615 OFFCURVE",
"66 592 CURVE SMOOTH",
"66 0 LINE"
);
}
);
width = 494;
},
{
layerId = m002;
width = 600;
},
{
layerId = m003;
width = 600;
},
{
layerId = m004;
width = 600;
},
{
layerId = "E4C98B95-3FAD-4F96-AF6D-989EFF3D42C0";
width = 600;
},
{
layerId = m007;
width = 600;
},
{
layerId = m006;
width = 600;
},
{
layerId = m008;
width = 600;
},
{
layerId = m009;
width = 600;
},
{
layerId = m010;
width = 600;
},
{
layerId = m011;
width = 600;
},
{
layerId = m012;
width = 600;
},
{
layerId = m013;
width = 600;
}
);
rightMetricsKey = "=o-2";
unicode = 0062;
},
{
color = 11;
export = 0;
glyphname = c;
lastChange = "2025-06-27 05:07:40 +0000";
layers = (
{
layerId = "5DAEE4C7-75B6-49C7-8B62-3AAE62732CCA";
name = "Light Condensed";
paths = (
{
closed = 1;
nodes = (
"154 42 OFFCURVE",
"114 101 OFFCURVE",
"114 226 CURVE SMOOTH",
"114 352 OFFCURVE",
"153 408 OFFCURVE",
"242 408 CURVE SMOOTH",
"296 408 OFFCURVE",
"332 386 OFFCURVE",
"332 352 CURVE SMOOTH",
"332 328 OFFCURVE",
"313 322 OFFCURVE",
"313 296 CURVE SMOOTH",
"313 274 OFFCURVE",
"328 258 OFFCURVE",
"353 258 CURVE SMOOTH",
"383 258 OFFCURVE",
"402 284 OFFCURVE",
"402 327 CURVE SMOOTH",
"402 409 OFFCURVE",
"336 460 OFFCURVE",
"240 460 CURVE SMOOTH",
"115 460 OFFCURVE",
"43 375 OFFCURVE",
"43 222 CURVE SMOOTH",
"43 74 OFFCURVE",
"111 -10 OFFCURVE",
"232 -10 CURVE SMOOTH",
"343 -10 OFFCURVE",
"406 59 OFFCURVE",
"406 181 CURVE",
"353 181 LINE",
"348 83 OFFCURVE",
"311 42 OFFCURVE",
"239 42 CURVE SMOOTH"
);
}
);
width = 445;
},
{
layerId = m002;
width = 600;
}
);
leftMetricsKey = o;
rightMetricsKey = "=o-3";
unicode = 0063;
},
{
color = 11;
export = 0;
glyphname = d;
lastChange = "2025-06-27 05:07:40 +0000";
layers = (
{
layerId = "5DAEE4C7-75B6-49C7-8B62-3AAE62732CCA";
name = "Light Condensed";
paths = (
{
closed = 1;
nodes = (
"281 -10 OFFCURVE",
"325 13 OFFCURVE",
"358 72 CURVE",
"362 72 LINE",
"362 0 LINE",
"512 0 LINE",
"512 42 LINE",
"453 42 LINE SMOOTH",
"434 42 OFFCURVE",
"429 54 OFFCURVE",
"429 73 CURVE SMOOTH",
"429 665 LINE",
"261 665 LINE",
"261 623 LINE",
"329 623 LINE SMOOTH",
"351 623 OFFCURVE",
"361 611 OFFCURVE",
"361 587 CURVE SMOOTH",
"361 387 LINE",
"357 387 LINE",
"324 437 OFFCURVE",
"280 460 OFFCURVE",
"217 460 CURVE SMOOTH",
"106 460 OFFCURVE",
"41 381 OFFCURVE",
"41 224 CURVE SMOOTH",
"41 63 OFFCURVE",
"110 -10 OFFCURVE",
"217 -10 CURVE SMOOTH"
);
},
{
closed = 1;
nodes = (
"154 44 OFFCURVE",
"117 99 OFFCURVE",
"117 222 CURVE SMOOTH",
"117 351 OFFCURVE",
"158 406 OFFCURVE",
"236 406 CURVE SMOOTH",
"300 406 OFFCURVE",
"360 364 OFFCURVE",
"360 225 CURVE SMOOTH",
"360 98 OFFCURVE",
"308 44 OFFCURVE",
"234 44 CURVE SMOOTH"
);
}
);
width = 515;
},
{
layerId = m002;
width = 600;
}
);
leftMetricsKey = "=o-2";
unicode = 0064;
},
{
color = 11;
export = 0;
glyphname = eth;
lastChange = "2025-06-27 05:07:40 +0000";
layers = (
{
layerId = "5DAEE4C7-75B6-49C7-8B62-3AAE62732CCA";
name = "Light Condensed";
paths = (
{
closed = 1;
nodes = (
"370 -10 OFFCURVE",
"447 79 OFFCURVE",
"447 236 CURVE SMOOTH",
"447 370 OFFCURVE",
"369 460 OFFCURVE",
"244 460 CURVE SMOOTH",
"120 460 OFFCURVE",
"43 370 OFFCURVE",
"43 224 CURVE SMOOTH",
"43 79 OFFCURVE",
"120 -10 OFFCURVE",
"245 -10 CURVE SMOOTH"
);
},
{
closed = 1;
nodes = (
"159 44 OFFCURVE",
"116 101 OFFCURVE",
"116 224 CURVE SMOOTH",
"116 349 OFFCURVE",
"159 406 OFFCURVE",
"244 406 CURVE SMOOTH",
"330 406 OFFCURVE",
"374 348 OFFCURVE",
"374 233 CURVE SMOOTH",
"374 101 OFFCURVE",
"330 44 OFFCURVE",
"244 44 CURVE SMOOTH"
);
},
{
closed = 1;
nodes = (
"447 236 LINE",
"447 443 OFFCURVE",
"357 572 OFFCURVE",
"136 664 CURVE",
"102 629 LINE",
"295 549 OFFCURVE",
"374 424 OFFCURVE",
"374 236 CURVE"
);
},
{
closed = 1;
nodes = (
"123 495 LINE",
"407 602 LINE",
"388 637 LINE",
"104 531 LINE"
);
}
);
width = 489;
},
{
layerId = m002;
width = 600;
}
);
unicode = 00F0;
},
{
color = 11;
export = 0;
glyphname = e;
lastChange = "2025-06-27 05:07:40 +0000";
layers = (
{
layerId = "5DAEE4C7-75B6-49C7-8B62-3AAE62732CCA";
name = "Light Condensed";
paths = (
{
closed = 1;
nodes = (
"353 -10 OFFCURVE",
"425 60 OFFCURVE",
"425 175 CURVE",
"367 175 LINE",
"365 90 OFFCURVE",
"323 41 OFFCURVE",
"242 41 CURVE SMOOTH",
"161 41 OFFCURVE",
"116 91 OFFCURVE",
"114 215 CURVE",
"423 215 LINE",
"424 226 OFFCURVE",
"425 237 OFFCURVE",
"425 254 CURVE SMOOTH",
"425 381 OFFCURVE",
"356 460 OFFCURVE",
"240 460 CURVE SMOOTH",
"120 460 OFFCURVE",
"43 374 OFFCURVE",
"43 224 CURVE SMOOTH",
"43 77 OFFCURVE",
"116 -10 OFFCURVE",
"241 -10 CURVE SMOOTH"
);
},
{
closed = 1;
nodes = (
"115 258 LINE",
"121 363 OFFCURVE",
"166 409 OFFCURVE",
"241 409 CURVE SMOOTH",
"318 409 OFFCURVE",
"357 359 OFFCURVE",
"358 258 CURVE"
);
}
);
width = 468;
},
{
layerId = m002;
width = 600;
},
{
layerId = m003;
width = 600;
},
{
layerId = m004;
width = 600;
},
{
layerId = "E4C98B95-3FAD-4F96-AF6D-989EFF3D42C0";
width = 600;
},
{
layerId = m007;
width = 600;
},
{
layerId = m006;
width = 600;
},
{
layerId = m008;
width = 600;
},
{
layerId = m009;
width = 600;
},
{
layerId = m010;
width = 600;
},
{
layerId = m011;
width = 600;
},
{
layerId = m012;
width = 600;
},
{
layerId = m013;
width = 600;
}
);
leftMetricsKey = o;
rightMetricsKey = o;
unicode = 0065;
},
{
color = 11;
export = 0;
glyphname = schwa;
lastChange = "2025-06-27 05:07:40 +0000";
layers = (
{
layerId = "5DAEE4C7-75B6-49C7-8B62-3AAE62732CCA";
name = "Light Condensed";
paths = (
{
closed = 1;
nodes = (
"116 460 OFFCURVE",
"41 388 OFFCURVE",
"41 293 CURVE",
"101 293 LINE",
"103 361 OFFCURVE",
"151 409 OFFCURVE",
"227 409 CURVE SMOOTH",
"308 409 OFFCURVE",
"350 355 OFFCURVE",
"352 235 CURVE",
"43 235 LINE",
"41 217 OFFCURVE",
"41 209 OFFCURVE",
"41 197 CURVE SMOOTH",
"41 69 OFFCURVE",
"110 -10 OFFCURVE",
"226 -10 CURVE SMOOTH",
"349 -10 OFFCURVE",
"423 78 OFFCURVE",
"423 226 CURVE SMOOTH",
"423 372 OFFCURVE",
"351 460 OFFCURVE",
"227 460 CURVE SMOOTH"
);
},
{
closed = 1;
nodes = (
"351 192 LINE",
"345 89 OFFCURVE",
"302 41 OFFCURVE",
"226 41 CURVE SMOOTH",
"149 41 OFFCURVE",
"109 91 OFFCURVE",
"108 192 CURVE"
);
}
);
width = 466;
},
{
layerId = m002;
width = 600;
}
);
unicode = 0259;
},
{
color = 11;
export = 0;
glyphname = f;
lastChange = "2025-06-27 05:07:40 +0000";
layers = (
{
layerId = "5DAEE4C7-75B6-49C7-8B62-3AAE62732CCA";
name = "Light Condensed";
paths = (
{
closed = 1;
nodes = (
"287 0 LINE",
"287 42 LINE",
"219 42 LINE SMOOTH",
"197 42 OFFCURVE",
"187 53 OFFCURVE",
"187 72 CURVE SMOOTH",
"187 499 LINE SMOOTH",
"187 588 OFFCURVE",
"216 630 OFFCURVE",
"275 630 CURVE SMOOTH",
"311 630 OFFCURVE",
"334 615 OFFCURVE",
"334 591 CURVE SMOOTH",
"334 568 OFFCURVE",
"313 562 OFFCURVE",
"313 539 CURVE SMOOTH",
"313 517 OFFCURVE",
"330 503 OFFCURVE",
"353 503 CURVE SMOOTH",
"381 503 OFFCURVE",
"399 527 OFFCURVE",
"399 568 CURVE SMOOTH",
"399 634 OFFCURVE",
"352 675 OFFCURVE",
"272 675 CURVE SMOOTH",
"176 675 OFFCURVE",
"121 614 OFFCURVE",
"121 492 CURVE SMOOTH",
"121 74 LINE SMOOTH",
"121 53 OFFCURVE",
"113 42 OFFCURVE",
"94 42 CURVE SMOOTH",
"26 42 LINE",
"26 0 LINE"
);
},
{
closed = 1;
nodes = (
"290 405 LINE",
"290 450 LINE",
"25 450 LINE",
"25 405 LINE"
);
}
);
width = 321;
},
{
layerId = m002;
width = 600;
}
);
unicode = 0066;
},
{
color = 11;
export = 0;
glyphname = g;
lastChange = "2025-06-27 05:07:40 +0000";
layers = (
{
layerId = "5DAEE4C7-75B6-49C7-8B62-3AAE62732CCA";
name = "Light Condensed";
paths = (
{
closed = 1;
nodes = (
"331 131 OFFCURVE",
"393 191 OFFCURVE",
"393 295 CURVE SMOOTH",
"393 399 OFFCURVE",
"330 460 OFFCURVE",
"220 460 CURVE SMOOTH",
"110 460 OFFCURVE",
"48 400 OFFCURVE",
"48 296 CURVE SMOOTH",
"48 191 OFFCURVE",
"109 131 OFFCURVE",
"220 130 CURVE SMOOTH"
);
},
{
closed = 1;
nodes = (
"149 182 OFFCURVE",
"118 216 OFFCURVE",
"118 295 CURVE SMOOTH",
"118 375 OFFCURVE",
"148 409 OFFCURVE",
"219 409 CURVE SMOOTH",
"292 409 OFFCURVE",
"324 374 OFFCURVE",
"324 295 CURVE SMOOTH",
"324 216 OFFCURVE",
"291 182 OFFCURVE",
"220 182 CURVE SMOOTH"
);
},
{
closed = 1;
nodes = (
"418 445 OFFCURVE",
"430 436 OFFCURVE",
"430 422 CURVE SMOOTH",
"430 402 OFFCURVE",
"412 397 OFFCURVE",
"412 374 CURVE SMOOTH",
"412 354 OFFCURVE",
"425 343 OFFCURVE",
"446 343 CURVE SMOOTH",
"472 343 OFFCURVE",
"488 362 OFFCURVE",
"488 398 CURVE SMOOTH",
"488 450 OFFCURVE",
"459 486 OFFCURVE",
"403 486 CURVE SMOOTH",
"353 486 OFFCURVE",
"316 450 OFFCURVE",
"316 409 CURVE",
"349 384 LINE",
"349 417 OFFCURVE",
"372 445 OFFCURVE",
"401 445 CURVE SMOOTH"
);
},
{
closed = 1;
nodes = (
"340 -2 OFFCURVE",
"368 -31 OFFCURVE",
"368 -83 CURVE SMOOTH",
"368 -144 OFFCURVE",
"322 -173 OFFCURVE",
"226 -173 CURVE SMOOTH",
"134 -173 OFFCURVE",
"88 -146 OFFCURVE",
"88 -90 CURVE SMOOTH",
"88 -37 OFFCURVE",
"123 -2 OFFCURVE",
"174 -2 CURVE SMOOTH",
"290 -2 LINE SMOOTH"
);
},
{
closed = 1;
nodes = (
"77 164 OFFCURVE",
"45 129 OFFCURVE",
"45 85 CURVE SMOOTH",
"45 55 OFFCURVE",
"65 22 OFFCURVE",
"101 16 CURVE",
"101 12 LINE",
"58 3 OFFCURVE",
"25 -41 OFFCURVE",
"25 -98 CURVE SMOOTH",
"25 -177 OFFCURVE",
"90 -224 OFFCURVE",
"223 -224 CURVE SMOOTH",
"360 -224 OFFCURVE",
"435 -171 OFFCURVE",
"435 -75 CURVE SMOOTH",
"435 7 OFFCURVE",
"385 56 OFFCURVE",
"301 56 CURVE SMOOTH",
"156 56 LINE SMOOTH",
"122 56 OFFCURVE",
"102 67 OFFCURVE",
"102 90 CURVE SMOOTH",
"102 119 OFFCURVE",
"129 134 OFFCURVE",
"186 136 CURVE",
"135 171 LINE"
);
}
);
width = 465;
},
{
layerId = m002;
width = 600;
}
);
unicode = 0067;
},
{
color = 11;
export = 0;
glyphname = h;
lastChange = "2025-06-27 05:07:40 +0000";
layers = (
{
layerId = "5DAEE4C7-75B6-49C7-8B62-3AAE62732CCA";
name = "Light Condensed";
paths = (
{
closed = 1;
nodes = (
"19 0 LINE",
"249 0 LINE",
"249 42 LINE",
"193 42 LINE SMOOTH",
"177 42 OFFCURVE",
"171 52 OFFCURVE",
"171 73 CURVE SMOOTH",
"171 238 LINE SMOOTH",
"171 340 OFFCURVE",
"218 403 OFFCURVE",
"298 403 CURVE SMOOTH",
"360 403 OFFCURVE",
"391 366 OFFCURVE",
"391 296 CURVE SMOOTH",
"391 72 LINE SMOOTH",
"391 51 OFFCURVE",
"384 42 OFFCURVE",
"367 42 CURVE SMOOTH",
"312 42 LINE",
"312 0 LINE",
"540 0 LINE",
"540 42 LINE",
"485 42 LINE SMOOTH",
"466 42 OFFCURVE",
"459 50 OFFCURVE",
"459 73 CURVE SMOOTH",
"459 307 LINE SMOOTH",
"459 407 OFFCURVE",
"410 460 OFFCURVE",
"319 460 CURVE SMOOTH",
"252 460 OFFCURVE",
"203 432 OFFCURVE",
"174 376 CURVE",
"170 376 LINE",
"170 665 LINE",
"19 665 LINE",
"19 623 LINE",
"71 623 LINE SMOOTH",
"94 623 OFFCURVE",
"103 613 OFFCURVE",
"103 585 CURVE SMOOTH",
"103 73 LINE SMOOTH",
"103 52 OFFCURVE",
"94 42 OFFCURVE",
"75 42 CURVE SMOOTH",
"19 42 LINE"
);
}
);
width = 562;
},
{
layerId = m002;
width = 600;
}
);
rightMetricsKey = n;
unicode = 0068;
},
{
color = 11;
export = 0;
glyphname = i;
lastChange = "2025-06-27 05:07:40 +0000";
layers = (
{
layerId = "5DAEE4C7-75B6-49C7-8B62-3AAE62732CCA";
name = "Light Condensed";
paths = (
{
closed = 1;
nodes = (
"27 0 LINE",
"261 0 LINE",
"261 42 LINE",
"202 42 LINE SMOOTH",
"185 42 OFFCURVE",
"179 55 OFFCURVE",
"179 74 CURVE SMOOTH",
"179 450 LINE",
"28 450 LINE",
"28 408 LINE",
"77 408 LINE SMOOTH",
"105 408 OFFCURVE",
"111 395 OFFCURVE",
"111 368 CURVE SMOOTH",
"111 74 LINE SMOOTH",
"111 55 OFFCURVE",
"105 42 OFFCURVE",
"84 42 CURVE SMOOTH",
"27 42 LINE"
);
},
{
closed = 1;
nodes = (
"173 554 OFFCURVE",
"191 569 OFFCURVE",
"191 611 CURVE SMOOTH",
"191 652 OFFCURVE",
"172 668 OFFCURVE",
"142 668 CURVE SMOOTH",
"113 668 OFFCURVE",
"94 652 OFFCURVE",
"94 611 CURVE SMOOTH",
"94 569 OFFCURVE",
"113 554 OFFCURVE",
"143 554 CURVE SMOOTH"
);
}
);
width = 284;
},
{
layerId = m002;
width = 600;
}
);
leftMetricsKey = "=n+2";
rightMetricsKey = "=n+1";
unicode = 0069;
},
{
color = 11;
export = 0;
glyphname = idotless;
lastChange = "2025-06-27 05:07:40 +0000";
layers = (
{
anchors = (
{
name = bottom;
position = "{141, 0}";
},
{
name = ogonek;
position = "{253, 10}";
},
{
name = top;
position = "{141, 450}";
}
);
layerId = "5DAEE4C7-75B6-49C7-8B62-3AAE62732CCA";
name = "Light Condensed";
paths = (
{
closed = 1;
nodes = (
"25 0 LINE",
"259 0 LINE",
"259 42 LINE",
"200 42 LINE SMOOTH",
"183 42 OFFCURVE",
"177 55 OFFCURVE",
"177 74 CURVE SMOOTH",
"177 450 LINE",
"26 450 LINE",
"26 408 LINE",
"75 408 LINE SMOOTH",
"103 408 OFFCURVE",
"109 395 OFFCURVE",
"109 368 CURVE SMOOTH",
"109 74 LINE SMOOTH",
"109 55 OFFCURVE",
"103 42 OFFCURVE",
"82 42 CURVE SMOOTH",
"25 42 LINE"
);
}
);
width = 281;
},
{
layerId = m002;
width = 600;
}
);
unicode = 0131;
},
{
color = 11;
export = 0;
glyphname = j;
lastChange = "2025-06-27 05:07:40 +0000";
layers = (
{
layerId = "5DAEE4C7-75B6-49C7-8B62-3AAE62732CCA";
name = "Light Condensed";
paths = (
{
closed = 1;
nodes = (
"125 -226 OFFCURVE",
"180 -166 OFFCURVE",
"180 -47 CURVE SMOOTH",
"180 450 LINE",
"13 450 LINE",
"13 408 LINE",
"81 408 LINE SMOOTH",
"105 408 OFFCURVE",
"114 397 OFFCURVE",
"114 374 CURVE SMOOTH",
"114 -54 LINE SMOOTH",
"114 -139 OFFCURVE",
"85 -181 OFFCURVE",
"27 -181 CURVE SMOOTH",
"-9 -181 OFFCURVE",
"-32 -165 OFFCURVE",
"-32 -139 CURVE SMOOTH",
"-32 -117 OFFCURVE",
"-12 -113 OFFCURVE",
"-12 -88 CURVE SMOOTH",
"-12 -67 OFFCURVE",
"-27 -51 OFFCURVE",
"-51 -51 CURVE SMOOTH",
"-81 -51 OFFCURVE",
"-98 -78 OFFCURVE",
"-98 -117 CURVE SMOOTH",
"-98 -184 OFFCURVE",
"-51 -226 OFFCURVE",
"30 -226 CURVE SMOOTH"
);
},
{
closed = 1;
nodes = (
"173 554 OFFCURVE",
"191 570 OFFCURVE",
"191 611 CURVE SMOOTH",
"191 652 OFFCURVE",
"172 668 OFFCURVE",
"143 668 CURVE SMOOTH",
"115 668 OFFCURVE",
"96 652 OFFCURVE",
"96 611 CURVE SMOOTH",
"96 570 OFFCURVE",
"115 554 OFFCURVE",
"144 554 CURVE SMOOTH"
);
}
);
width = 248;
},
{
layerId = m002;
width = 600;
}
);
unicode = 006A;
},
{
color = 11;
export = 0;
glyphname = jdotless;
lastChange = "2025-06-27 05:07:40 +0000";
layers = (
{
anchors = (
{
name = bottom;
position = "{123, 0}";
},
{
name = top;
position = "{123, 450}";
}
);
layerId = "5DAEE4C7-75B6-49C7-8B62-3AAE62732CCA";
name = "Light Condensed";
paths = (
{
closed = 1;
nodes = (
"123 -226 OFFCURVE",
"178 -166 OFFCURVE",
"178 -47 CURVE SMOOTH",
"178 450 LINE",
"11 450 LINE",
"11 408 LINE",
"79 408 LINE SMOOTH",
"102 408 OFFCURVE",
"112 397 OFFCURVE",
"112 374 CURVE SMOOTH",
"112 -54 LINE SMOOTH",
"112 -139 OFFCURVE",
"83 -181 OFFCURVE",
"25 -181 CURVE SMOOTH",
"-11 -181 OFFCURVE",
"-34 -165 OFFCURVE",
"-34 -139 CURVE SMOOTH",
"-34 -117 OFFCURVE",
"-14 -113 OFFCURVE",
"-14 -88 CURVE SMOOTH",
"-14 -67 OFFCURVE",
"-29 -51 OFFCURVE",
"-53 -51 CURVE SMOOTH",
"-84 -51 OFFCURVE",
"-101 -78 OFFCURVE",
"-101 -117 CURVE SMOOTH",
"-101 -184 OFFCURVE",
"-53 -226 OFFCURVE",
"28 -226 CURVE SMOOTH"
);
}
);
width = 247;
},
{
layerId = m002;
width = 600;
}
);
unicode = 0237;
},
{
color = 11;
export = 0;
glyphname = k;
lastChange = "2025-06-27 05:07:40 +0000";
layers = (
{
layerId = "5DAEE4C7-75B6-49C7-8B62-3AAE62732CCA";
name = "Light Condensed";
paths = (
{
closed = 1;
nodes = (
"19 665 LINE",
"19 623 LINE",
"73 623 LINE SMOOTH",
"93 623 OFFCURVE",
"102 613 OFFCURVE",
"102 590 CURVE SMOOTH",
"102 74 LINE SMOOTH",
"102 51 OFFCURVE",
"94 42 OFFCURVE",
"74 42 CURVE SMOOTH",
"19 42 LINE",
"19 0 LINE",
"246 0 LINE",
"246 42 LINE",
"194 42 LINE SMOOTH",
"177 42 OFFCURVE",
"170 51 OFFCURVE",
"170 72 CURVE SMOOTH",
"170 665 LINE"
);
},
{
closed = 1;
nodes = (
"431 391 LINE SMOOTH",
"445 403 OFFCURVE",
"458 408 OFFCURVE",
"475 408 CURVE SMOOTH",
"509 408 LINE",
"509 450 LINE",
"289 450 LINE",
"289 408 LINE",
"332 408 LINE SMOOTH",
"351 408 OFFCURVE",
"356 395 OFFCURVE",
"341 382 CURVE SMOOTH",
"138 202 LINE",
"152 148 LINE"
);
},
{
closed = 1;
nodes = (
"367 68 LINE SMOOTH",
"376 53 OFFCURVE",
"368 42 OFFCURVE",
"351 42 CURVE SMOOTH",
"298 42 LINE",
"298 0 LINE",
"527 0 LINE",
"527 42 LINE",
"491 42 LINE SMOOTH",
"471 42 OFFCURVE",
"458 48 OFFCURVE",
"448 62 CURVE SMOOTH",
"293 295 LINE",
"245 250 LINE"
);
}
);
width = 528;
},
{
layerId = m002;
width = 600;
}
);
leftMetricsKey = h;
unicode = 006B;
},
{
color = 11;
export = 0;
glyphname = kgreenlandic;
lastChange = "2025-06-27 05:07:40 +0000";
layers = (
{
layerId = "5DAEE4C7-75B6-49C7-8B62-3AAE62732CCA";
name = "Light Condensed";
paths = (
{
closed = 1;
nodes = (
"19 450 LINE",
"19 408 LINE",
"73 408 LINE SMOOTH",
"93 408 OFFCURVE",
"102 397 OFFCURVE",
"102 375 CURVE SMOOTH",
"102 74 LINE SMOOTH",
"102 52 OFFCURVE",
"94 42 OFFCURVE",
"74 42 CURVE SMOOTH",
"19 42 LINE",
"19 0 LINE",
"249 0 LINE",
"249 42 LINE",
"194 42 LINE SMOOTH",
"177 42 OFFCURVE",
"170 51 OFFCURVE",
"170 72 CURVE SMOOTH",
"170 450 LINE"
);
},
{
closed = 1;
nodes = (
"431 391 LINE SMOOTH",
"445 403 OFFCURVE",
"459 408 OFFCURVE",
"475 408 CURVE SMOOTH",
"512 408 LINE",
"512 450 LINE",
"286 450 LINE",
"286 408 LINE",
"331 408 LINE SMOOTH",
"342 408 OFFCURVE",
"349 403 OFFCURVE",
"349 396 CURVE SMOOTH",
"349 392 OFFCURVE",
"345 387 OFFCURVE",
"341 382 CURVE",
"118 191 LINE",
"153 154 LINE"
);
},
{
closed = 1;
nodes = (
"366 67 LINE",
"368 64 OFFCURVE",
"370 60 OFFCURVE",
"370 57 CURVE SMOOTH",
"370 48 OFFCURVE",
"363 42 OFFCURVE",
"352 42 CURVE SMOOTH",
"300 42 LINE",
"300 0 LINE",
"530 0 LINE",
"530 42 LINE",
"494 42 LINE SMOOTH",
"475 42 OFFCURVE",
"461 46 OFFCURVE",
"454 57 CURVE SMOOTH",
"292 305 LINE",
"243 249 LINE"
);
}
);
width = 530;
},
{
layerId = m002;
width = 600;
}
);
unicode = 0138;
},
{
color = 11;
export = 0;
glyphname = l;
lastChange = "2025-06-27 05:07:40 +0000";
layers = (
{
layerId = "5DAEE4C7-75B6-49C7-8B62-3AAE62732CCA";
name = "Light Condensed";
paths = (
{
closed = 1;
nodes = (
"253 0 LINE",
"253 42 LINE",
"194 42 LINE SMOOTH",
"177 42 OFFCURVE",
"171 55 OFFCURVE",
"171 74 CURVE SMOOTH",
"171 665 LINE",
"20 665 LINE",
"20 624 LINE",
"69 624 LINE SMOOTH",
"97 624 OFFCURVE",
"103 611 OFFCURVE",
"103 584 CURVE SMOOTH",
"103 74 LINE SMOOTH",
"103 55 OFFCURVE",
"97 42 OFFCURVE",
"76 42 CURVE SMOOTH",
"19 42 LINE",
"19 0 LINE"
);
}
);
width = 275;
},
{
layerId = m002;
width = 600;
}
);
leftMetricsKey = h;
rightMetricsKey = n;
unicode = 006C;
},
{
color = 11;
export = 0;
glyphname = m;
lastChange = "2025-06-27 05:07:40 +0000";
layers = (
{
layerId = "5DAEE4C7-75B6-49C7-8B62-3AAE62732CCA";
name = "Light Condensed";
paths = (
{
closed = 1;
nodes = (
"254 0 LINE",
"254 42 LINE",
"199 42 LINE SMOOTH",
"183 42 OFFCURVE",
"177 52 OFFCURVE",
"177 73 CURVE SMOOTH",
"177 238 LINE SMOOTH",
"177 341 OFFCURVE",
"221 403 OFFCURVE",
"296 403 CURVE SMOOTH",
"353 403 OFFCURVE",
"383 369 OFFCURVE",
"383 306 CURVE SMOOTH",
"383 72 LINE SMOOTH",
"383 51 OFFCURVE",
"376 42 OFFCURVE",
"359 42 CURVE SMOOTH",
"307 42 LINE",
"307 0 LINE",
"527 0 LINE",
"527 42 LINE",
"476 42 LINE SMOOTH",
"458 42 OFFCURVE",
"451 50 OFFCURVE",
"451 72 CURVE SMOOTH",
"451 259 LINE SMOOTH",
"451 347 OFFCURVE",
"495 403 OFFCURVE",
"568 403 CURVE SMOOTH",
"627 403 OFFCURVE",
"656 368 OFFCURVE",
"656 296 CURVE SMOOTH",
"656 72 LINE SMOOTH",
"656 51 OFFCURVE",
"650 42 OFFCURVE",
"632 42 CURVE SMOOTH",
"580 42 LINE",
"580 0 LINE",
"804 0 LINE",
"804 42 LINE",
"751 42 LINE SMOOTH",
"731 42 OFFCURVE",
"724 50 OFFCURVE",
"724 73 CURVE SMOOTH",
"724 307 LINE SMOOTH",
"724 408 OFFCURVE",
"678 460 OFFCURVE",
"589 460 CURVE SMOOTH",
"524 460 OFFCURVE",
"475 431 OFFCURVE",
"447 375 CURVE",
"443 375 LINE",
"427 429 OFFCURVE",
"384 460 OFFCURVE",
"318 460 CURVE SMOOTH",
"253 460 OFFCURVE",
"207 432 OFFCURVE",
"180 376 CURVE",
"176 376 LINE",
"176 450 LINE",
"25 450 LINE",
"25 408 LINE",
"77 408 LINE SMOOTH",
"100 408 OFFCURVE",
"109 398 OFFCURVE",
"109 370 CURVE SMOOTH",
"109 73 LINE SMOOTH",
"109 52 OFFCURVE",
"100 42 OFFCURVE",
"80 42 CURVE SMOOTH",
"25 42 LINE",
"25 0 LINE"
);
}
);
width = 826;
},
{
layerId = m002;
width = 600;
}
);
leftMetricsKey = n;
rightMetricsKey = n;
unicode = 006D;
},
{
color = 11;
export = 0;
glyphname = n;
lastChange = "2025-06-27 05:07:40 +0000";
layers = (
{
layerId = "5DAEE4C7-75B6-49C7-8B62-3AAE62732CCA";
name = "Light Condensed";
paths = (
{
closed = 1;
nodes = (
"25 0 LINE",
"255 0 LINE",
"255 42 LINE",
"199 42 LINE SMOOTH",
"183 42 OFFCURVE",
"177 52 OFFCURVE",
"177 73 CURVE SMOOTH",
"177 238 LINE SMOOTH",
"177 340 OFFCURVE",
"224 403 OFFCURVE",
"304 403 CURVE SMOOTH",
"366 403 OFFCURVE",
"397 366 OFFCURVE",
"397 296 CURVE SMOOTH",
"397 72 LINE SMOOTH",
"397 51 OFFCURVE",
"390 42 OFFCURVE",
"373 42 CURVE SMOOTH",
"318 42 LINE",
"318 0 LINE",
"546 0 LINE",
"546 42 LINE",
"491 42 LINE SMOOTH",
"472 42 OFFCURVE",
"465 50 OFFCURVE",
"465 73 CURVE SMOOTH",
"465 307 LINE SMOOTH",
"465 407 OFFCURVE",
"416 460 OFFCURVE",
"325 460 CURVE SMOOTH",
"258 460 OFFCURVE",
"208 430 OFFCURVE",
"180 376 CURVE",
"176 376 LINE",
"176 450 LINE",
"25 450 LINE",
"25 408 LINE",
"77 408 LINE SMOOTH",
"100 408 OFFCURVE",
"109 398 OFFCURVE",
"109 370 CURVE SMOOTH",
"109 73 LINE SMOOTH",
"109 52 OFFCURVE",
"100 42 OFFCURVE",
"80 42 CURVE SMOOTH",
"25 42 LINE"
);
}
);
width = 568;
},
{
layerId = m002;
width = 600;
},
{
layerId = m003;
width = 600;
},
{
layerId = m004;
width = 600;
},
{
layerId = "E4C98B95-3FAD-4F96-AF6D-989EFF3D42C0";
width = 600;
},
{
layerId = m007;
width = 600;
},
{
layerId = m006;
width = 600;
},
{
layerId = m008;
width = 600;
},
{
layerId = m009;
width = 600;
},
{
layerId = m010;
width = 600;
},
{
layerId = m011;
width = 600;
},
{
layerId = m012;
width = 600;
},
{
layerId = m013;
width = 600;
}
);
unicode = 006E;
},
{
color = 11;
export = 0;
glyphname = eng;
lastChange = "2025-06-27 05:07:40 +0000";
layers = (
{
layerId = "5DAEE4C7-75B6-49C7-8B62-3AAE62732CCA";
name = "Light Condensed";
paths = (
{
closed = 1;
nodes = (
"25 0 LINE",
"255 0 LINE",
"255 42 LINE",
"199 42 LINE SMOOTH",
"183 42 OFFCURVE",
"177 52 OFFCURVE",
"177 73 CURVE SMOOTH",
"177 238 LINE SMOOTH",
"177 340 OFFCURVE",
"224 403 OFFCURVE",
"304 403 CURVE SMOOTH",
"366 403 OFFCURVE",
"397 366 OFFCURVE",
"397 296 CURVE SMOOTH",
"397 72 LINE",
"465 72 LINE",
"465 307 LINE SMOOTH",
"465 407 OFFCURVE",
"416 460 OFFCURVE",
"325 460 CURVE SMOOTH",
"258 460 OFFCURVE",
"208 430 OFFCURVE",
"180 376 CURVE",
"176 376 LINE",
"176 450 LINE",
"25 450 LINE",
"25 408 LINE",
"77 408 LINE SMOOTH",
"100 408 OFFCURVE",
"109 398 OFFCURVE",
"109 370 CURVE SMOOTH",
"109 73 LINE SMOOTH",
"109 52 OFFCURVE",
"100 42 OFFCURVE",
"80 42 CURVE SMOOTH",
"25 42 LINE"
);
},
{
closed = 1;
nodes = (
"410 -226 OFFCURVE",
"465 -166 OFFCURVE",
"465 -47 CURVE SMOOTH",
"465 212 LINE",
"397 211 LINE",
"397 -54 LINE SMOOTH",
"397 -139 OFFCURVE",
"370 -181 OFFCURVE",
"312 -181 CURVE SMOOTH",
"276 -181 OFFCURVE",
"252 -165 OFFCURVE",
"252 -139 CURVE SMOOTH",
"252 -117 OFFCURVE",
"273 -113 OFFCURVE",
"273 -88 CURVE SMOOTH",
"273 -67 OFFCURVE",
"258 -51 OFFCURVE",
"234 -51 CURVE SMOOTH",
"203 -51 OFFCURVE",
"186 -78 OFFCURVE",
"186 -117 CURVE SMOOTH",
"186 -184 OFFCURVE",
"234 -226 OFFCURVE",
"314 -226 CURVE SMOOTH"
);
}
);
width = 561;
},
{
layerId = m002;
width = 600;
}
);
unicode = 014B;
},
{
color = 11;
export = 0;
glyphname = o;
lastChange = "2025-06-27 05:07:40 +0000";
layers = (
{
layerId = "5DAEE4C7-75B6-49C7-8B62-3AAE62732CCA";
name = "Light Condensed";
paths = (
{
closed = 1;
nodes = (
"366 -10 OFFCURVE",
"447 74 OFFCURVE",
"447 224 CURVE SMOOTH",
"447 374 OFFCURVE",
"365 460 OFFCURVE",
"245 460 CURVE SMOOTH",
"124 460 OFFCURVE",
"43 374 OFFCURVE",
"43 224 CURVE SMOOTH",
"43 75 OFFCURVE",
"124 -10 OFFCURVE",
"244 -10 CURVE SMOOTH"
);
},
{
closed = 1;
nodes = (
"163 44 OFFCURVE",
"116 96 OFFCURVE",
"116 224 CURVE SMOOTH",
"116 353 OFFCURVE",
"163 406 OFFCURVE",
"245 406 CURVE SMOOTH",
"326 406 OFFCURVE",
"374 353 OFFCURVE",
"374 224 CURVE SMOOTH",
"374 96 OFFCURVE",
"326 44 OFFCURVE",
"245 44 CURVE SMOOTH"
);
}
);
width = 489;
},
{
layerId = m002;
width = 600;
},
{
layerId = m003;
width = 600;
},
{
layerId = m004;
width = 600;
},
{
layerId = "E4C98B95-3FAD-4F96-AF6D-989EFF3D42C0";
width = 600;
},
{
layerId = m007;
width = 600;
},
{
layerId = m006;
width = 600;
},
{
layerId = m008;
width = 600;
},
{
layerId = m009;
width = 600;
},
{
layerId = m010;
width = 600;
},
{
layerId = m011;
width = 600;
},
{
layerId = m012;
width = 600;
},
{
layerId = m013;
width = 600;
}
);
unicode = 006F;
},
{
color = 11;
export = 0;
glyphname = oslash;
lastChange = "2025-06-27 05:07:40 +0000";
layers = (
{
components = (
{
alignment = -1;
name = o;
}
);
layerId = "5DAEE4C7-75B6-49C7-8B62-3AAE62732CCA";
name = "Light Condensed";
paths = (
{
closed = 1;
nodes = (
"43 -43 LINE",
"100 -43 LINE",
"447 495 LINE",
"390 495 LINE"
);
}
);
width = 489;
},
{
layerId = m002;
width = 600;
}
);
unicode = 00F8;
},
{
color = 11;
export = 0;
glyphname = oe;
lastChange = "2025-06-27 05:07:40 +0000";
layers = (
{
layerId = "5DAEE4C7-75B6-49C7-8B62-3AAE62732CCA";
name = "Light Condensed";
paths = (
{
closed = 1;
nodes = (
"367 -10 OFFCURVE",
"447 81 OFFCURVE",
"447 224 CURVE SMOOTH",
"447 368 OFFCURVE",
"366 460 OFFCURVE",
"242 460 CURVE SMOOTH",
"119 460 OFFCURVE",
"43 369 OFFCURVE",
"43 224 CURVE SMOOTH",
"43 80 OFFCURVE",
"120 -10 OFFCURVE",
"243 -10 CURVE SMOOTH"
);
},
{
closed = 1;
nodes = (
"158 44 OFFCURVE",
"116 102 OFFCURVE",
"116 224 CURVE SMOOTH",
"116 347 OFFCURVE",
"158 406 OFFCURVE",
"244 406 CURVE SMOOTH",
"331 406 OFFCURVE",
"374 347 OFFCURVE",
"374 224 CURVE SMOOTH",
"374 102 OFFCURVE",
"331 44 OFFCURVE",
"244 44 CURVE SMOOTH"
);
},
{
closed = 1;
nodes = (
"686 -10 OFFCURVE",
"757 62 OFFCURVE",
"757 175 CURVE",
"697 175 LINE",
"696 90 OFFCURVE",
"651 41 OFFCURVE",
"573 41 CURVE SMOOTH",
"489 41 OFFCURVE",
"448 96 OFFCURVE",
"446 215 CURVE",
"755 215 LINE",
"757 237 OFFCURVE",
"757 239 OFFCURVE",
"757 253 CURVE SMOOTH",
"757 381 OFFCURVE",
"687 460 OFFCURVE",
"574 460 CURVE SMOOTH",
"452 460 OFFCURVE",
"375 369 OFFCURVE",
"375 224 CURVE SMOOTH",
"375 79 OFFCURVE",
"451 -10 OFFCURVE",
"575 -10 CURVE SMOOTH"
);
},
{
closed = 1;
nodes = (
"447 258 LINE",
"453 358 OFFCURVE",
"495 409 OFFCURVE",
"572 409 CURVE SMOOTH",
"650 409 OFFCURVE",
"690 358 OFFCURVE",
"690 258 CURVE"
);
}
);
width = 798;
},
{
layerId = m002;
width = 600;
}
);
unicode = 0153;
},
{
color = 11;
export = 0;
glyphname = p;
lastChange = "2025-06-27 05:07:40 +0000";
layers = (
{
layerId = "5DAEE4C7-75B6-49C7-8B62-3AAE62732CCA";
name = "Light Condensed";
paths = (
{
closed = 1;
nodes = (
"272 -216 LINE",
"272 -174 LINE",
"195 -174 LINE SMOOTH",
"178 -174 OFFCURVE",
"172 -162 OFFCURVE",
"172 -142 CURVE SMOOTH",
"172 62 LINE",
"176 62 LINE",
"213 11 OFFCURVE",
"252 -10 OFFCURVE",
"313 -10 CURVE SMOOTH",
"426 -10 OFFCURVE",
"492 66 OFFCURVE",
"492 225 CURVE SMOOTH",
"492 382 OFFCURVE",
"426 460 OFFCURVE",
"317 460 CURVE SMOOTH",
"251 460 OFFCURVE",
"205 434 OFFCURVE",
"175 379 CURVE",
"171 379 LINE",
"171 450 LINE",
"20 450 LINE",
"20 408 LINE",
"77 408 LINE SMOOTH",
"96 408 OFFCURVE",
"104 398 OFFCURVE",
"104 376 CURVE SMOOTH",
"104 -142 LINE SMOOTH",
"104 -162 OFFCURVE",
"97 -174 OFFCURVE",
"77 -174 CURVE SMOOTH",
"21 -174 LINE",
"21 -216 LINE"
);
},
{
closed = 1;
nodes = (
"231 44 OFFCURVE",
"172 89 OFFCURVE",
"172 225 CURVE SMOOTH",
"172 355 OFFCURVE",
"229 406 OFFCURVE",
"300 406 CURVE SMOOTH",
"378 406 OFFCURVE",
"416 347 OFFCURVE",
"416 226 CURVE SMOOTH",
"416 103 OFFCURVE",
"376 44 OFFCURVE",
"298 44 CURVE SMOOTH"
);
}
);
width = 532;
},
{
layerId = m002;
width = 600;
}
);
rightMetricsKey = b;
unicode = 0070;
},
{
color = 11;
export = 0;
glyphname = thorn;
lastChange = "2025-06-27 05:07:40 +0000";
layers = (
{
layerId = "5DAEE4C7-75B6-49C7-8B62-3AAE62732CCA";
name = "Light Condensed";
paths = (
{
closed = 1;
nodes = (
"272 -216 LINE",
"272 -174 LINE",
"195 -174 LINE SMOOTH",
"178 -174 OFFCURVE",
"172 -162 OFFCURVE",
"172 -142 CURVE SMOOTH",
"172 65 LINE",
"176 65 LINE",
"213 12 OFFCURVE",
"252 -10 OFFCURVE",
"316 -10 CURVE SMOOTH",
"426 -10 OFFCURVE",
"492 66 OFFCURVE",
"492 224 CURVE SMOOTH",
"492 382 OFFCURVE",
"426 460 OFFCURVE",
"317 460 CURVE SMOOTH",
"252 460 OFFCURVE",
"205 433 OFFCURVE",
"176 379 CURVE",
"172 379 LINE",
"172 665 LINE",
"20 665 LINE",
"20 623 LINE",
"77 623 LINE SMOOTH",
"96 623 OFFCURVE",
"104 613 OFFCURVE",
"104 591 CURVE SMOOTH",
"104 -142 LINE SMOOTH",
"104 -162 OFFCURVE",
"97 -174 OFFCURVE",
"77 -174 CURVE SMOOTH",
"21 -174 LINE",
"21 -216 LINE"
);
},
{
closed = 1;
nodes = (
"231 44 OFFCURVE",
"172 89 OFFCURVE",
"172 225 CURVE SMOOTH",
"172 355 OFFCURVE",
"229 406 OFFCURVE",
"300 406 CURVE SMOOTH",
"378 406 OFFCURVE",
"416 347 OFFCURVE",
"416 226 CURVE SMOOTH",
"416 103 OFFCURVE",
"376 44 OFFCURVE",
"299 44 CURVE SMOOTH"
);
}
);
width = 532;
},
{
layerId = m002;
width = 600;
}
);
unicode = 00FE;
},
{
color = 11;
export = 0;
glyphname = q;
lastChange = "2025-06-27 05:07:40 +0000";
layers = (
{
layerId = "5DAEE4C7-75B6-49C7-8B62-3AAE62732CCA";
name = "Light Condensed";
paths = (
{
closed = 1;
nodes = (
"508 -216 LINE",
"508 -174 LINE",
"456 -174 LINE SMOOTH",
"436 -174 OFFCURVE",
"429 -163 OFFCURVE",
"429 -142 CURVE SMOOTH",
"429 376 LINE SMOOTH",
"429 398 OFFCURVE",
"436 408 OFFCURVE",
"456 408 CURVE SMOOTH",
"508 408 LINE",
"508 450 LINE",
"362 450 LINE",
"362 383 LINE",
"358 383 LINE",
"326 435 OFFCURVE",
"283 460 OFFCURVE",
"220 460 CURVE SMOOTH",
"108 460 OFFCURVE",
"41 383 OFFCURVE",
"41 225 CURVE SMOOTH",
"41 67 OFFCURVE",
"108 -10 OFFCURVE",
"218 -10 CURVE SMOOTH",
"283 -10 OFFCURVE",
"324 18 OFFCURVE",
"357 67 CURVE",
"361 67 LINE",
"361 -142 LINE SMOOTH",
"361 -162 OFFCURVE",
"354 -174 OFFCURVE",
"338 -174 CURVE SMOOTH",
"263 -174 LINE",
"263 -216 LINE"
);
},
{
closed = 1;
nodes = (
"158 44 OFFCURVE",
"117 97 OFFCURVE",
"117 226 CURVE SMOOTH",
"117 350 OFFCURVE",
"155 406 OFFCURVE",
"233 406 CURVE SMOOTH",
"306 406 OFFCURVE",
"360 354 OFFCURVE",
"360 226 CURVE SMOOTH",
"360 92 OFFCURVE",
"301 44 OFFCURVE",
"233 44 CURVE SMOOTH"
);
}
);
width = 524;
},
{
layerId = m002;
width = 600;
}
);
leftMetricsKey = d;
unicode = 0071;
},
{
color = 11;
export = 0;
glyphname = r;
lastChange = "2025-06-27 05:07:40 +0000";
layers = (
{
layerId = "5DAEE4C7-75B6-49C7-8B62-3AAE62732CCA";
name = "Light Condensed";
paths = (
{
closed = 1;
nodes = (
"243 460 OFFCURVE",
"203 430 OFFCURVE",
"180 377 CURVE",
"176 377 LINE",
"176 450 LINE",
"25 450 LINE",
"25 408 LINE",
"79 408 LINE SMOOTH",
"99 408 OFFCURVE",
"109 397 OFFCURVE",
"109 373 CURVE SMOOTH",
"109 74 LINE SMOOTH",
"109 52 OFFCURVE",
"101 42 OFFCURVE",
"81 42 CURVE SMOOTH",
"25 42 LINE",
"25 0 LINE",
"273 0 LINE",
"273 42 LINE",
"204 42 LINE SMOOTH",
"184 42 OFFCURVE",
"177 51 OFFCURVE",
"177 74 CURVE SMOOTH",
"177 237 LINE SMOOTH",
"177 331 OFFCURVE",
"222 408 OFFCURVE",
"289 408 CURVE SMOOTH",
"321 408 OFFCURVE",
"347 391 OFFCURVE",
"347 367 CURVE SMOOTH",
"347 342 OFFCURVE",
"322 334 OFFCURVE",
"322 307 CURVE SMOOTH",
"322 285 OFFCURVE",
"339 270 OFFCURVE",
"362 270 CURVE SMOOTH",
"395 270 OFFCURVE",
"416 301 OFFCURVE",
"416 350 CURVE SMOOTH",
"416 421 OFFCURVE",
"370 460 OFFCURVE",
"303 460 CURVE SMOOTH"
);
}
);
width = 428;
},
{
layerId = m002;
width = 600;
}
);
leftMetricsKey = n;
unicode = 0072;
},
{
color = 11;
export = 0;
glyphname = s;
lastChange = "2025-06-27 05:07:40 +0000";
layers = (
{
layerId = "5DAEE4C7-75B6-49C7-8B62-3AAE62732CCA";
name = "Light Condensed";
paths = (
{
closed = 1;
nodes = (
"323 -10 OFFCURVE",
"385 33 OFFCURVE",
"385 109 CURVE SMOOTH",
"385 267 OFFCURVE",
"120 243 OFFCURVE",
"120 349 CURVE SMOOTH",
"120 384 OFFCURVE",
"150 416 OFFCURVE",
"204 416 CURVE SMOOTH",
"267 416 OFFCURVE",
"312 374 OFFCURVE",
"325 277 CURVE",
"368 277 LINE",
"368 451 LINE",
"327 451 LINE",
"322 404 LINE",
"318 404 LINE",
"294 441 OFFCURVE",
"252 460 OFFCURVE",
"197 460 CURVE SMOOTH",
"110 460 OFFCURVE",
"52 411 OFFCURVE",
"52 342 CURVE SMOOTH",
"52 196 OFFCURVE",
"314 220 OFFCURVE",
"314 106 CURVE SMOOTH",
"314 65 OFFCURVE",
"282 38 OFFCURVE",
"224 38 CURVE SMOOTH",
"153 38 OFFCURVE",
"101 81 OFFCURVE",
"85 184 CURVE",
"42 184 LINE",
"42 -1 LINE",
"84 -1 LINE",
"90 57 LINE",
"94 57 LINE",
"126 10 OFFCURVE",
"173 -10 OFFCURVE",
"234 -10 CURVE SMOOTH"
);
}
);
width = 429;
},
{
layerId = m002;
width = 600;
}
);
unicode = 0073;
},
{
color = 11;
export = 0;
glyphname = germandbls;
lastChange = "2025-06-27 05:07:40 +0000";
layers = (
{
layerId = "5DAEE4C7-75B6-49C7-8B62-3AAE62732CCA";
name = "Light Condensed";
paths = (
{
closed = 1;
nodes = (
"238 178 LINE",
"238 51 OFFCURVE",
"288 -10 OFFCURVE",
"389 -10 CURVE SMOOTH",
"495 -10 OFFCURVE",
"551 56 OFFCURVE",
"551 181 CURVE SMOOTH",
"551 293 OFFCURVE",
"507 359 OFFCURVE",
"417 379 CURVE",
"417 383 LINE",
"489 397 OFFCURVE",
"524 440 OFFCURVE",
"524 516 CURVE SMOOTH",
"524 620 OFFCURVE",
"457 675 OFFCURVE",
"332 675 CURVE SMOOTH",
"193 675 OFFCURVE",
"122 609 OFFCURVE",
"122 482 CURVE SMOOTH",
"122 77 LINE SMOOTH",
"122 52 OFFCURVE",
"114 42 OFFCURVE",
"92 42 CURVE SMOOTH",
"26 42 LINE",
"26 0 LINE",
"188 0 LINE",
"188 484 LINE SMOOTH",
"188 582 OFFCURVE",
"232 625 OFFCURVE",
"330 625 CURVE SMOOTH",
"418 625 OFFCURVE",
"458 591 OFFCURVE",
"458 516 CURVE SMOOTH",
"458 435 OFFCURVE",
"411 404 OFFCURVE",
"279 404 CURVE",
"279 359 LINE",
"428 359 OFFCURVE",
"480 312 OFFCURVE",
"480 178 CURVE SMOOTH",
"480 84 OFFCURVE",
"450 41 OFFCURVE",
"387 41 CURVE SMOOTH",
"321 41 OFFCURVE",
"288 85 OFFCURVE",
"288 178 CURVE"
);
}
);
width = 592;
},
{
layerId = m002;
width = 600;
}
);
unicode = 00DF;
},
{
color = 11;
export = 0;
glyphname = t;
lastChange = "2025-06-27 05:07:40 +0000";
layers = (
{
layerId = "5DAEE4C7-75B6-49C7-8B62-3AAE62732CCA";
name = "Light Condensed";
paths = (
{
closed = 1;
nodes = (
"143 450 LINE",
"276 450 LINE",
"276 404 LINE",
"143 404 LINE",
"143 91 LINE SMOOTH",
"143 52 OFFCURVE",
"162 39 OFFCURVE",
"192 39 CURVE SMOOTH",
"221 39 OFFCURVE",
"244 52 OFFCURVE",
"244 97 CURVE SMOOTH",
"244 160 LINE",
"296 160 LINE",
"296 99 LINE SMOOTH",
"296 20 OFFCURVE",
"254 -10 OFFCURVE",
"188 -10 CURVE SMOOTH",
"121 -10 OFFCURVE",
"77 20 OFFCURVE",
"77 90 CURVE SMOOTH",
"77 404 LINE",
"0 404 LINE",
"0 450 LINE",
"83 450 OFFCURVE",
"98 473 OFFCURVE",
"98 583 CURVE",
"143 583 LINE"
);
}
);
width = 314;
},
{
layerId = m002;
width = 600;
}
);
unicode = 0074;
},
{
color = 11;
export = 0;
glyphname = u;
lastChange = "2025-06-27 05:07:40 +0000";
layers = (
{
layerId = "5DAEE4C7-75B6-49C7-8B62-3AAE62732CCA";
name = "Light Condensed";
paths = (
{
closed = 1;
nodes = (
"281 407 LINE",
"331 407 LINE SMOOTH",
"352 407 OFFCURVE",
"358 397 OFFCURVE",
"358 375 CURVE SMOOTH",
"358 201 LINE SMOOTH",
"358 111 OFFCURVE",
"311 47 OFFCURVE",
"234 47 CURVE SMOOTH",
"175 47 OFFCURVE",
"144 84 OFFCURVE",
"144 148 CURVE SMOOTH",
"144 450 LINE",
"-8 450 LINE",
"-8 407 LINE",
"49 407 LINE SMOOTH",
"69 407 OFFCURVE",
"76 397 OFFCURVE",
"76 376 CURVE SMOOTH",
"76 134 LINE SMOOTH",
"76 47 OFFCURVE",
"126 -10 OFFCURVE",
"214 -10 CURVE SMOOTH",
"279 -10 OFFCURVE",
"327 20 OFFCURVE",
"354 72 CURVE",
"358 72 LINE",
"358 0 LINE",
"506 0 LINE",
"506 42 LINE",
"453 42 LINE SMOOTH",
"433 42 OFFCURVE",
"426 52 OFFCURVE",
"426 74 CURVE SMOOTH",
"426 450 LINE",
"281 450 LINE"
);
}
);
width = 508;
},
{
layerId = m002;
width = 600;
}
);
rightMetricsKey = d;
unicode = 0075;
},
{
color = 11;
export = 0;
glyphname = v;
lastChange = "2025-06-27 05:07:40 +0000";
layers = (
{
layerId = "5DAEE4C7-75B6-49C7-8B62-3AAE62732CCA";
name = "Light Condensed";
paths = (
{
closed = 1;
nodes = (
"254 -1 LINE",
"388 384 LINE SMOOTH",
"394 401 OFFCURVE",
"402 407 OFFCURVE",
"423 407 CURVE SMOOTH",
"447 407 LINE",
"447 450 LINE",
"269 450 LINE",
"269 407 LINE",
"305 407 LINE SMOOTH",
"323 407 OFFCURVE",
"328 395 OFFCURVE",
"322 376 CURVE SMOOTH",
"228 81 LINE",
"222 81 LINE",
"120 376 LINE SMOOTH",
"114 393 OFFCURVE",
"117 407 OFFCURVE",
"140 407 CURVE SMOOTH",
"184 407 LINE",
"184 450 LINE",
"-16 450 LINE",
"-16 407 LINE",
"12 407 LINE SMOOTH",
"31 407 OFFCURVE",
"40 401 OFFCURVE",
"46 384 CURVE SMOOTH",
"184 -1 LINE"
);
}
);
width = 451;
},
{
layerId = m002;
width = 600;
}
);
unicode = 0076;
},
{
color = 11;
export = 0;
glyphname = w;
lastChange = "2025-06-27 05:07:40 +0000";
layers = (
{
layerId = "5DAEE4C7-75B6-49C7-8B62-3AAE62732CCA";
name = "Light Condensed";
paths = (
{
closed = 1;
nodes = (
"245 -1 LINE",
"339 293 LINE",
"343 293 LINE",
"430 -1 LINE",
"502 -1 LINE",
"623 384 LINE SMOOTH",
"628 401 OFFCURVE",
"638 407 OFFCURVE",
"656 407 CURVE SMOOTH",
"682 407 LINE",
"682 450 LINE",
"508 450 LINE",
"508 407 LINE",
"546 407 LINE SMOOTH",
"561 407 OFFCURVE",
"568 396 OFFCURVE",
"562 376 CURVE SMOOTH",
"473 75 LINE",
"469 75 LINE",
"380 376 LINE SMOOTH",
"375 394 OFFCURVE",
"377 407 OFFCURVE",
"400 407 CURVE SMOOTH",
"440 407 LINE",
"440 450 LINE",
"250 450 LINE",
"250 407 LINE",
"279 407 LINE SMOOTH",
"303 407 OFFCURVE",
"312 391 OFFCURVE",
"305 368 CURVE SMOOTH",
"217 75 LINE",
"212 75 LINE",
"125 372 LINE SMOOTH",
"119 392 OFFCURVE",
"119 407 OFFCURVE",
"143 407 CURVE SMOOTH",
"188 407 LINE",
"188 450 LINE",
"-8 450 LINE",
"-8 407 LINE",
"20 407 LINE SMOOTH",
"40 407 OFFCURVE",
"48 400 OFFCURVE",
"55 378 CURVE SMOOTH",
"175 -1 LINE"
);
}
);
width = 677;
},
{
layerId = m002;
width = 600;
}
);
unicode = 0077;
},
{
color = 11;
export = 0;
glyphname = x;
lastChange = "2025-06-27 05:07:40 +0000";
layers = (
{
layerId = "5DAEE4C7-75B6-49C7-8B62-3AAE62732CCA";
name = "Light Condensed";
paths = (
{
closed = 1;
nodes = (
"194 0 LINE",
"194 43 LINE",
"157 43 LINE SMOOTH",
"138 43 OFFCURVE",
"132 54 OFFCURVE",
"143 69 CURVE SMOOTH",
"219 186 LINE",
"299 69 LINE SMOOTH",
"309 55 OFFCURVE",
"302 43 OFFCURVE",
"283 43 CURVE SMOOTH",
"248 43 LINE",
"248 0 LINE",
"444 0 LINE",
"444 43 LINE",
"415 43 LINE SMOOTH",
"400 43 OFFCURVE",
"390 48 OFFCURVE",
"380 62 CURVE SMOOTH",
"260 235 LINE",
"369 391 LINE SMOOTH",
"377 402 OFFCURVE",
"386 407 OFFCURVE",
"402 407 CURVE SMOOTH",
"432 407 LINE",
"432 450 LINE",
"248 450 LINE",
"248 407 LINE",
"284 407 LINE SMOOTH",
"305 407 OFFCURVE",
"310 395 OFFCURVE",
"298 378 CURVE SMOOTH",
"226 272 LINE",
"154 376 LINE SMOOTH",
"144 390 OFFCURVE",
"147 407 OFFCURVE",
"168 407 CURVE SMOOTH",
"205 407 LINE",
"205 450 LINE",
"6 450 LINE",
"6 407 LINE",
"35 407 LINE SMOOTH",
"52 407 OFFCURVE",
"61 402 OFFCURVE",
"71 389 CURVE SMOOTH",
"185 225 LINE",
"74 64 LINE SMOOTH",
"63 48 OFFCURVE",
"53 43 OFFCURVE",
"37 43 CURVE SMOOTH",
"1 43 LINE",
"1 0 LINE"
);
}
);
width = 446;
},
{
layerId = m002;
width = 600;
}
);
unicode = 0078;
},
{
color = 11;
export = 0;
glyphname = y;
lastChange = "2025-06-27 05:07:40 +0000";
layers = (
{
layerId = "5DAEE4C7-75B6-49C7-8B62-3AAE62732CCA";
name = "Light Condensed";
paths = (
{
closed = 1;
nodes = (
"166 -226 OFFCURVE",
"205 -193 OFFCURVE",
"233 -115 CURVE SMOOTH",
"397 384 LINE SMOOTH",
"402 401 OFFCURVE",
"411 407 OFFCURVE",
"431 407 CURVE SMOOTH",
"456 407 LINE",
"456 450 LINE",
"273 450 LINE",
"273 407 LINE",
"315 407 LINE SMOOTH",
"335 407 OFFCURVE",
"341 396 OFFCURVE",
"332 376 CURVE SMOOTH",
"240 93 LINE",
"236 93 LINE",
"131 376 LINE SMOOTH",
"124 397 OFFCURVE",
"131 407 OFFCURVE",
"151 407 CURVE SMOOTH",
"192 407 LINE",
"192 450 LINE",
"-6 450 LINE",
"-6 407 LINE",
"21 407 LINE SMOOTH",
"39 407 OFFCURVE",
"48 402 OFFCURVE",
"55 384 CURVE SMOOTH",
"209 -10 LINE",
"177 -112 LINE SMOOTH",
"160 -157 OFFCURVE",
"139 -177 OFFCURVE",
"107 -177 CURVE SMOOTH",
"80 -177 OFFCURVE",
"62 -162 OFFCURVE",
"62 -139 CURVE SMOOTH",
"62 -115 OFFCURVE",
"83 -111 OFFCURVE",
"83 -87 CURVE SMOOTH",
"83 -65 OFFCURVE",
"66 -50 OFFCURVE",
"43 -50 CURVE SMOOTH",
"13 -50 OFFCURVE",
"-6 -75 OFFCURVE",
"-6 -118 CURVE SMOOTH",
"-6 -184 OFFCURVE",
"37 -226 OFFCURVE",
"105 -226 CURVE SMOOTH"
);
}
);
width = 454;
},
{
layerId = m002;
width = 600;
}
);
unicode = 0079;
},
{
color = 11;
export = 0;
glyphname = z;
lastChange = "2025-06-27 05:07:40 +0000";
layers = (
{
layerId = "5DAEE4C7-75B6-49C7-8B62-3AAE62732CCA";
name = "Light Condensed";
paths = (
{
closed = 1;
nodes = (
"381 0 LINE",
"381 159 LINE",
"340 159 LINE",
"340 75 OFFCURVE",
"319 46 OFFCURVE",
"278 46 CURVE SMOOTH",
"105 46 LINE",
"375 399 LINE",
"375 450 LINE",
"46 450 LINE",
"46 299 LINE",
"87 299 LINE",
"87 375 OFFCURVE",
"104 404 OFFCURVE",
"148 404 CURVE SMOOTH",
"302 404 LINE",
"29 49 LINE",
"29 0 LINE"
);
}
);
width = 412;
},
{
layerId = m002;
width = 600;
}
);
unicode = 007A;
},
{
color = 11;
export = 0;
glyphname = ordfeminine;
lastChange = "2025-06-27 05:07:40 +0000";
layers = (
{
layerId = "5DAEE4C7-75B6-49C7-8B62-3AAE62732CCA";
name = "Light Condensed";
paths = (
{
closed = 1;
nodes = (
"205 304 OFFCURVE",
"239 322 OFFCURVE",
"263 363 CURVE",
"266 363 LINE",
"268 327 OFFCURVE",
"294 304 OFFCURVE",
"333 304 CURVE SMOOTH",
"377 304 OFFCURVE",
"398 335 OFFCURVE",
"398 405 CURVE SMOOTH",
"398 419 OFFCURVE",
"397 422 OFFCURVE",
"397 427 CURVE",
"369 427 LINE",
"369 422 OFFCURVE",
"369 419 OFFCURVE",
"369 407 CURVE SMOOTH",
"369 358 OFFCURVE",
"361 342 OFFCURVE",
"340 342 CURVE SMOOTH",
"322 342 OFFCURVE",
"314 354 OFFCURVE",
"314 380 CURVE SMOOTH",
"314 556 LINE SMOOTH",
"314 608 OFFCURVE",
"269 640 OFFCURVE",
"196 640 CURVE SMOOTH",
"120 640 OFFCURVE",
"66 603 OFFCURVE",
"66 549 CURVE SMOOTH",
"66 522 OFFCURVE",
"81 505 OFFCURVE",
"106 505 CURVE SMOOTH",
"125 505 OFFCURVE",
"137 515 OFFCURVE",
"137 531 CURVE SMOOTH",
"137 550 OFFCURVE",
"120 554 OFFCURVE",
"120 567 CURVE SMOOTH",
"120 585 OFFCURVE",
"153 602 OFFCURVE",
"194 602 CURVE SMOOTH",
"235 602 OFFCURVE",
"260 584 OFFCURVE",
"260 553 CURVE SMOOTH",
"260 526 LINE SMOOTH",
"260 510 OFFCURVE",
"255 503 OFFCURVE",
"243 501 CURVE SMOOTH",
"169 487 LINE SMOOTH",
"88 472 OFFCURVE",
"53 443 OFFCURVE",
"53 388 CURVE SMOOTH",
"53 334 OFFCURVE",
"88 304 OFFCURVE",
"154 304 CURVE SMOOTH"
);
},
{
closed = 1;
nodes = (
"130 344 OFFCURVE",
"109 360 OFFCURVE",
"109 393 CURVE SMOOTH",
"109 428 OFFCURVE",
"134 447 OFFCURVE",
"192 458 CURVE SMOOTH",
"260 469 LINE",
"260 440 LINE SMOOTH",
"260 384 OFFCURVE",
"221 344 OFFCURVE",
"166 344 CURVE SMOOTH"
);
}
);
width = 436;
},
{
layerId = m002;
width = 600;
}
);
unicode = 00AA;
},
{
color = 11;
export = 0;
glyphname = ordmasculine;
lastChange = "2025-06-27 05:07:40 +0000";
layers = (
{
layerId = "5DAEE4C7-75B6-49C7-8B62-3AAE62732CCA";
name = "Light Condensed";
paths = (
{
closed = 1;
nodes = (
"287 304 OFFCURVE",
"345 364 OFFCURVE",
"345 471 CURVE SMOOTH",
"345 578 OFFCURVE",
"287 640 OFFCURVE",
"195 640 CURVE SMOOTH",
"104 640 OFFCURVE",
"46 578 OFFCURVE",
"46 471 CURVE SMOOTH",
"46 365 OFFCURVE",
"104 304 OFFCURVE",
"195 304 CURVE SMOOTH"
);
},
{
closed = 1;
nodes = (
"137 347 OFFCURVE",
"103 385 OFFCURVE",
"103 471 CURVE SMOOTH",
"103 559 OFFCURVE",
"137 597 OFFCURVE",
"195 597 CURVE SMOOTH",
"253 597 OFFCURVE",
"287 559 OFFCURVE",
"287 471 CURVE SMOOTH",
"287 385 OFFCURVE",
"253 347 OFFCURVE",
"195 347 CURVE SMOOTH"
);
}
);
width = 391;
},
{
layerId = m002;
width = 600;
}
);
unicode = 00BA;
},
{
color = 11;
export = 0;
glyphname = zero;
lastChange = "2025-06-27 05:07:40 +0000";
layers = (
{
layerId = "5DAEE4C7-75B6-49C7-8B62-3AAE62732CCA";
name = "Light Condensed";
paths = (
{
closed = 1;
nodes = (
"482 -10 OFFCURVE",
"577 102 OFFCURVE",
"577 315 CURVE SMOOTH",
"577 529 OFFCURVE",
"483 640 OFFCURVE",
"318 640 CURVE SMOOTH",
"153 640 OFFCURVE",
"59 529 OFFCURVE",
"59 314 CURVE SMOOTH",
"59 101 OFFCURVE",
"153 -10 OFFCURVE",
"317 -10 CURVE SMOOTH"
);
},
{
closed = 1;
nodes = (
"199 49 OFFCURVE",
"136 128 OFFCURVE",
"136 314 CURVE SMOOTH",
"136 500 OFFCURVE",
"199 581 OFFCURVE",
"321 581 CURVE SMOOTH",
"441 581 OFFCURVE",
"500 504 OFFCURVE",
"500 314 CURVE SMOOTH",
"500 126 OFFCURVE",
"441 49 OFFCURVE",
"321 49 CURVE SMOOTH"
);
}
);
width = 636;
},
{
layerId = m002;
width = 600;
}
);
unicode = 0030;
},
{
color = 11;
export = 0;
glyphname = one;
lastChange = "2025-06-27 05:07:40 +0000";
layers = (
{
layerId = "5DAEE4C7-75B6-49C7-8B62-3AAE62732CCA";
name = "Light Condensed";
paths = (
{
closed = 1;
nodes = (
"335 0 LINE",
"335 50 LINE",
"246 50 LINE SMOOTH",
"228 50 OFFCURVE",
"217 61 OFFCURVE",
"217 81 CURVE SMOOTH",
"217 630 LINE",
"168 630 LINE",
"125 601 OFFCURVE",
"96 592 OFFCURVE",
"24 587 CURVE",
"24 539 LINE",
"145 539 LINE",
"145 80 LINE SMOOTH",
"145 61 OFFCURVE",
"134 50 OFFCURVE",
"113 50 CURVE SMOOTH",
"22 50 LINE",
"22 0 LINE"
);
}
);
width = 346;
},
{
layerId = m002;
width = 600;
}
);
unicode = 0031;
},
{
color = 11;
export = 0;
glyphname = two;
lastChange = "2025-06-27 05:07:40 +0000";
layers = (
{
layerId = "5DAEE4C7-75B6-49C7-8B62-3AAE62732CCA";
name = "Light Condensed";
paths = (
{
closed = 1;
nodes = (
"378 582 OFFCURVE",
"434 538 OFFCURVE",
"434 465 CURVE SMOOTH",
"434 269 OFFCURVE",
"53 288 OFFCURVE",
"53 59 CURVE SMOOTH",
"53 12 OFFCURVE",
"69 -10 OFFCURVE",
"103 -10 CURVE SMOOTH",
"128 -10 OFFCURVE",
"143 0 OFFCURVE",
"143 19 CURVE SMOOTH",
"143 35 OFFCURVE",
"130 35 OFFCURVE",
"130 47 CURVE SMOOTH",
"130 61 OFFCURVE",
"150 72 OFFCURVE",
"181 72 CURVE SMOOTH",
"273 72 OFFCURVE",
"286 -9 OFFCURVE",
"390 -9 CURVE SMOOTH",
"486 -9 OFFCURVE",
"536 62 OFFCURVE",
"536 203 CURVE SMOOTH",
"536 238 LINE",
"479 238 LINE",
"479 112 OFFCURVE",
"455 57 OFFCURVE",
"385 57 CURVE SMOOTH",
"315 57 OFFCURVE",
"287 117 OFFCURVE",
"201 117 CURVE SMOOTH",
"166 117 OFFCURVE",
"141 109 OFFCURVE",
"126 93 CURVE",
"124 94 LINE",
"124 242 OFFCURVE",
"511 245 OFFCURVE",
"511 469 CURVE SMOOTH",
"511 574 OFFCURVE",
"427 640 OFFCURVE",
"291 640 CURVE SMOOTH",
"153 640 OFFCURVE",
"68 571 OFFCURVE",
"68 459 CURVE SMOOTH",
"68 399 OFFCURVE",
"94 364 OFFCURVE",
"137 364 CURVE SMOOTH",
"168 364 OFFCURVE",
"190 384 OFFCURVE",
"190 412 CURVE SMOOTH",
"190 453 OFFCURVE",
"143 447 OFFCURVE",
"143 492 CURVE SMOOTH",
"143 544 OFFCURVE",
"206 582 OFFCURVE",
"289 582 CURVE SMOOTH"
);
}
);
width = 586;
},
{
layerId = m002;
width = 600;
}
);
unicode = 0032;
},
{
color = 11;
export = 0;
glyphname = three;
lastChange = "2025-06-27 05:07:40 +0000";
layers = (
{
layerId = "5DAEE4C7-75B6-49C7-8B62-3AAE62732CCA";
name = "Light Condensed";
paths = (
{
closed = 1;
nodes = (
"425 -10 OFFCURVE",
"517 59 OFFCURVE",
"517 172 CURVE SMOOTH",
"517 245 OFFCURVE",
"478 303 OFFCURVE",
"417 321 CURVE",
"417 322 LINE",
"479 348 OFFCURVE",
"511 397 OFFCURVE",
"511 465 CURVE SMOOTH",
"511 574 OFFCURVE",
"425 640 OFFCURVE",
"284 640 CURVE SMOOTH",
"146 640 OFFCURVE",
"57 576 OFFCURVE",
"57 477 CURVE SMOOTH",
"57 423 OFFCURVE",
"83 388 OFFCURVE",
"124 388 CURVE SMOOTH",
"153 388 OFFCURVE",
"173 406 OFFCURVE",
"173 430 CURVE SMOOTH",
"173 462 OFFCURVE",
"135 462 OFFCURVE",
"135 502 CURVE SMOOTH",
"135 550 OFFCURVE",
"192 581 OFFCURVE",
"284 581 CURVE SMOOTH",
"386 581 OFFCURVE",
"436 542 OFFCURVE",
"436 461 CURVE SMOOTH",
"436 382 OFFCURVE",
"390 345 OFFCURVE",
"288 345 CURVE SMOOTH",
"212 345 LINE",
"213 289 LINE",
"291 289 LINE SMOOTH",
"392 289 OFFCURVE",
"442 250 OFFCURVE",
"442 173 CURVE SMOOTH",
"442 92 OFFCURVE",
"385 48 OFFCURVE",
"281 48 CURVE SMOOTH",
"191 48 OFFCURVE",
"129 80 OFFCURVE",
"129 124 CURVE SMOOTH",
"129 160 OFFCURVE",
"167 164 OFFCURVE",
"167 196 CURVE SMOOTH",
"167 222 OFFCURVE",
"147 238 OFFCURVE",
"117 238 CURVE SMOOTH",
"75 238 OFFCURVE",
"49 204 OFFCURVE",
"49 150 CURVE SMOOTH",
"49 52 OFFCURVE",
"137 -10 OFFCURVE",
"278 -10 CURVE SMOOTH"
);
}
);
width = 566;
},
{
layerId = m002;
width = 600;
}
);
unicode = 0033;
},
{
color = 11;
export = 0;
glyphname = four;
lastChange = "2025-06-27 05:07:40 +0000";
layers = (
{
layerId = "5DAEE4C7-75B6-49C7-8B62-3AAE62732CCA";
name = "Light Condensed";
paths = (
{
closed = 1;
nodes = (
"104 238 LINE",
"338 529 LINE",
"341 529 LINE",
"341 235 LINE",
"104 235 LINE"
);
},
{
closed = 1;
nodes = (
"341 184 LINE",
"341 84 LINE SMOOTH",
"341 60 OFFCURVE",
"332 50 OFFCURVE",
"306 50 CURVE SMOOTH",
"212 50 LINE",
"212 0 LINE",
"523 0 LINE",
"523 50 LINE",
"444 50 LINE SMOOTH",
"423 50 OFFCURVE",
"414 59 OFFCURVE",
"414 84 CURVE SMOOTH",
"414 184 LINE",
"523 184 LINE",
"523 235 LINE",
"414 235 LINE",
"414 637 LINE",
"354 637 LINE",
"28 225 LINE",
"28 184 LINE"
);
}
);
width = 547;
},
{
layerId = m002;
width = 600;
}
);
unicode = 0034;
},
{
color = 11;
export = 0;
glyphname = five;
lastChange = "2025-06-27 05:07:40 +0000";
layers = (
{
layerId = "5DAEE4C7-75B6-49C7-8B62-3AAE62732CCA";
name = "Light Condensed";
paths = (
{
closed = 1;
nodes = (
"130 288 LINE",
"154 327 OFFCURVE",
"209 348 OFFCURVE",
"283 348 CURVE SMOOTH",
"390 348 OFFCURVE",
"441 300 OFFCURVE",
"441 197 CURVE SMOOTH",
"441 95 OFFCURVE",
"390 48 OFFCURVE",
"280 48 CURVE SMOOTH",
"192 48 OFFCURVE",
"128 79 OFFCURVE",
"128 121 CURVE SMOOTH",
"128 157 OFFCURVE",
"166 161 OFFCURVE",
"166 193 CURVE SMOOTH",
"166 218 OFFCURVE",
"146 235 OFFCURVE",
"116 235 CURVE SMOOTH",
"75 235 OFFCURVE",
"49 202 OFFCURVE",
"49 148 CURVE SMOOTH",
"49 50 OFFCURVE",
"136 -10 OFFCURVE",
"278 -10 CURVE SMOOTH",
"433 -10 OFFCURVE",
"515 63 OFFCURVE",
"515 201 CURVE SMOOTH",
"515 335 OFFCURVE",
"438 405 OFFCURVE",
"292 405 CURVE SMOOTH",
"224 405 OFFCURVE",
"175 391 OFFCURVE",
"142 361 CURVE",
"139 361 LINE",
"158 559 LINE",
"183 548 OFFCURVE",
"237 541 OFFCURVE",
"302 541 CURVE SMOOTH",
"429 541 OFFCURVE",
"488 569 OFFCURVE",
"508 637 CURVE",
"506 640 LINE",
"453 614 OFFCURVE",
"400 604 OFFCURVE",
"314 604 CURVE SMOOTH",
"226 604 OFFCURVE",
"165 615 OFFCURVE",
"108 640 CURVE",
"106 638 LINE",
"74 288 LINE"
);
}
);
width = 562;
},
{
layerId = m002;
width = 600;
}
);
unicode = 0035;
},
{
color = 11;
export = 0;
glyphname = six;
lastChange = "2025-06-27 05:07:40 +0000";
layers = (
{
layerId = "5DAEE4C7-75B6-49C7-8B62-3AAE62732CCA";
name = "Light Condensed";
paths = (
{
closed = 1;
nodes = (
"438 332 OFFCURVE",
"493 287 OFFCURVE",
"493 195 CURVE SMOOTH",
"493 100 OFFCURVE",
"434 48 OFFCURVE",
"325 48 CURVE SMOOTH",
"213 48 OFFCURVE",
"146 104 OFFCURVE",
"146 196 CURVE SMOOTH",
"146 285 OFFCURVE",
"207 332 OFFCURVE",
"325 332 CURVE SMOOTH"
);
},
{
closed = 1;
nodes = (
"417 582 OFFCURVE",
"467 558 OFFCURVE",
"467 520 CURVE SMOOTH",
"467 489 OFFCURVE",
"437 484 OFFCURVE",
"437 453 CURVE SMOOTH",
"437 426 OFFCURVE",
"458 408 OFFCURVE",
"489 408 CURVE SMOOTH",
"530 408 OFFCURVE",
"555 440 OFFCURVE",
"555 491 CURVE SMOOTH",
"555 584 OFFCURVE",
"472 640 OFFCURVE",
"335 640 CURVE SMOOTH",
"148 640 OFFCURVE",
"59 534 OFFCURVE",
"59 308 CURVE SMOOTH",
"59 90 OFFCURVE",
"142 -10 OFFCURVE",
"322 -10 CURVE SMOOTH",
"478 -10 OFFCURVE",
"568 67 OFFCURVE",
"568 199 CURVE SMOOTH",
"568 323 OFFCURVE",
"488 388 OFFCURVE",
"331 388 CURVE SMOOTH",
"235 388 OFFCURVE",
"171 364 OFFCURVE",
"136 316 CURVE",
"134 317 LINE",
"135 506 OFFCURVE",
"194 582 OFFCURVE",
"336 582 CURVE SMOOTH"
);
}
);
width = 617;
},
{
layerId = m002;
width = 600;
}
);
unicode = 0036;
},
{
color = 11;
export = 0;
glyphname = seven;
lastChange = "2025-06-27 05:07:40 +0000";
layers = (
{
layerId = "5DAEE4C7-75B6-49C7-8B62-3AAE62732CCA";
name = "Light Condensed";
paths = (
{
closed = 1;
nodes = (
"96 382 LINE",
"96 407 LINE SMOOTH",
"96 516 OFFCURVE",
"128 572 OFFCURVE",
"189 572 CURVE SMOOTH",
"252 572 OFFCURVE",
"284 512 OFFCURVE",
"366 512 CURVE SMOOTH",
"401 512 OFFCURVE",
"426 522 OFFCURVE",
"446 547 CURVE",
"448 546 LINE",
"448 438 OFFCURVE",
"216 376 OFFCURVE",
"216 61 CURVE SMOOTH",
"216 0 LINE",
"295 0 LINE",
"295 48 LINE SMOOTH",
"295 398 OFFCURVE",
"512 410 OFFCURVE",
"512 571 CURVE",
"512 617 OFFCURVE",
"495 640 OFFCURVE",
"461 640 CURVE SMOOTH",
"438 640 OFFCURVE",
"423 629 OFFCURVE",
"423 611 CURVE SMOOTH",
"423 596 OFFCURVE",
"435 592 OFFCURVE",
"435 581 CURVE SMOOTH",
"435 568 OFFCURVE",
"415 558 OFFCURVE",
"389 558 CURVE SMOOTH",
"307 558 OFFCURVE",
"286 640 OFFCURVE",
"191 640 CURVE SMOOTH",
"140 640 OFFCURVE",
"107 617 OFFCURVE",
"92 572 CURVE",
"91 572 LINE",
"91 630 LINE",
"41 630 LINE",
"41 382 LINE"
);
}
);
width = 526;
},
{
layerId = m002;
width = 600;
}
);
unicode = 0037;
},
{
color = 11;
export = 0;
glyphname = eight;
lastChange = "2025-06-27 05:07:40 +0000";
layers = (
{
layerId = "5DAEE4C7-75B6-49C7-8B62-3AAE62732CCA";
name = "Light Condensed";
paths = (
{
closed = 1;
nodes = (
"436 640 OFFCURVE",
"518 583 OFFCURVE",
"518 486 CURVE SMOOTH",
"518 401 OFFCURVE",
"455 344 OFFCURVE",
"334 316 CURVE",
"282 353 LINE",
"403 376 OFFCURVE",
"450 412 OFFCURVE",
"450 479 CURVE SMOOTH",
"450 547 OFFCURVE",
"400 581 OFFCURVE",
"296 581 CURVE SMOOTH",
"190 581 OFFCURVE",
"136 547 OFFCURVE",
"136 483 CURVE SMOOTH",
"136 308 OFFCURVE",
"536 397 OFFCURVE",
"536 164 CURVE SMOOTH",
"536 53 OFFCURVE",
"447 -9 OFFCURVE",
"289 -9 CURVE SMOOTH",
"133 -9 OFFCURVE",
"47 52 OFFCURVE",
"47 160 CURVE SMOOTH",
"47 255 OFFCURVE",
"114 312 OFFCURVE",
"259 343 CURVE",
"302 306 LINE",
"180 282 OFFCURVE",
"118 234 OFFCURVE",
"118 162 CURVE SMOOTH",
"118 89 OFFCURVE",
"177 50 OFFCURVE",
"290 50 CURVE SMOOTH",
"401 50 OFFCURVE",
"459 88 OFFCURVE",
"459 159 CURVE SMOOTH",
"459 345 OFFCURVE",
"62 258 OFFCURVE",
"62 477 CURVE SMOOTH",
"62 579 OFFCURVE",
"147 640 OFFCURVE",
"294 640 CURVE SMOOTH"
);
}
);
width = 583;
},
{
layerId = m002;
width = 600;
}
);
unicode = 0038;
},
{
color = 11;
export = 0;
glyphname = nine;
lastChange = "2025-06-27 05:07:40 +0000";
layers = (
{
layerId = "5DAEE4C7-75B6-49C7-8B62-3AAE62732CCA";
name = "Light Condensed";
paths = (
{
closed = 1;
nodes = (
"180 298 OFFCURVE",
"124 343 OFFCURVE",
"124 433 CURVE SMOOTH",
"124 527 OFFCURVE",
"187 582 OFFCURVE",
"295 582 CURVE SMOOTH",
"404 582 OFFCURVE",
"471 525 OFFCURVE",
"471 433 CURVE SMOOTH",
"471 345 OFFCURVE",
"410 298 OFFCURVE",
"293 298 CURVE SMOOTH"
);
},
{
closed = 1;
nodes = (
"201 48 OFFCURVE",
"150 72 OFFCURVE",
"150 110 CURVE SMOOTH",
"150 141 OFFCURVE",
"180 146 OFFCURVE",
"180 177 CURVE SMOOTH",
"180 204 OFFCURVE",
"160 222 OFFCURVE",
"129 222 CURVE SMOOTH",
"87 222 OFFCURVE",
"62 190 OFFCURVE",
"62 139 CURVE SMOOTH",
"62 46 OFFCURVE",
"146 -10 OFFCURVE",
"284 -10 CURVE SMOOTH",
"471 -10 OFFCURVE",
"558 94 OFFCURVE",
"558 320 CURVE SMOOTH",
"558 539 OFFCURVE",
"476 640 OFFCURVE",
"299 640 CURVE SMOOTH",
"143 640 OFFCURVE",
"49 560 OFFCURVE",
"49 429 CURVE SMOOTH",
"49 307 OFFCURVE",
"130 242 OFFCURVE",
"287 242 CURVE SMOOTH",
"382 242 OFFCURVE",
"447 267 OFFCURVE",
"481 314 CURVE",
"483 313 LINE",
"482 122 OFFCURVE",
"425 48 OFFCURVE",
"282 48 CURVE SMOOTH"
);
}
);
width = 617;
},
{
layerId = m002;
width = 600;
}
);
unicode = 0039;
},
{
color = 11;
export = 0;
glyphname = fraction;
lastChange = "2025-06-27 05:07:40 +0000";
layers = (
{
layerId = "5DAEE4C7-75B6-49C7-8B62-3AAE62732CCA";
name = "Light Condensed";
paths = (
{
closed = 1;
nodes = (
"32 -10 LINE",
"441 675 LINE",
"397 675 LINE",
"-12 -10 LINE"
);
}
);
width = 429;
},
{
layerId = m002;
width = 600;
}
);
unicode = 2044;
},
{
color = 11;
export = 0;
glyphname = .notdef;
lastChange = "2025-06-27 05:07:40 +0000";
layers = (
{
layerId = "5DAEE4C7-75B6-49C7-8B62-3AAE62732CCA";
name = "Light Condensed";
paths = (
{
closed = 1;
nodes = (
"0 0 LINE",
"500 0 LINE",
"500 700 LINE",
"0 700 LINE"
);
},
{
closed = 1;
nodes = (
"250 395 LINE",
"80 650 LINE",
"420 650 LINE"
);
},
{
closed = 1;
nodes = (
"280 350 LINE",
"450 605 LINE",
"450 95 LINE"
);
},
{
closed = 1;
nodes = (
"80 50 LINE",
"250 305 LINE",
"420 50 LINE"
);
},
{
closed = 1;
nodes = (
"50 605 LINE",
"220 350 LINE",
"50 95 LINE"
);
}
);
width = 500;
},
{
layerId = m002;
width = 600;
}
);
},
{
color = 11;
export = 0;
glyphname = period;
lastChange = "2025-06-27 05:07:40 +0000";
layers = (
{
layerId = "5DAEE4C7-75B6-49C7-8B62-3AAE62732CCA";
name = "Light Condensed";
paths = (
{
closed = 1;
nodes = (
"109 -10 OFFCURVE",
"130 10 OFFCURVE",
"130 34 CURVE SMOOTH",
"130 58 OFFCURVE",
"109 79 OFFCURVE",
"85 79 CURVE SMOOTH",
"60 79 OFFCURVE",
"41 58 OFFCURVE",
"41 34 CURVE SMOOTH",
"41 10 OFFCURVE",
"60 -10 OFFCURVE",
"85 -10 CURVE SMOOTH"
);
}
);
width = 170;
},
{
layerId = m002;
width = 600;
}
);
unicode = 002E;
},
{
color = 11;
export = 0;
glyphname = comma;
lastChange = "2025-06-27 05:07:40 +0000";
layers = (
{
layerId = "5DAEE4C7-75B6-49C7-8B62-3AAE62732CCA";
name = "Light Condensed";
paths = (
{
closed = 1;
nodes = (
"59 -89 LINE",
"98 -74 OFFCURVE",
"131 -23 OFFCURVE",
"131 21 CURVE SMOOTH",
"131 53 OFFCURVE",
"113 78 OFFCURVE",
"84 78 CURVE SMOOTH",
"58 78 OFFCURVE",
"41 58 OFFCURVE",
"41 33 CURVE SMOOTH",
"41 12 OFFCURVE",
"53 -2 OFFCURVE",
"73 -2 CURVE SMOOTH",
"82 -2 OFFCURVE",
"89 1 OFFCURVE",
"95 7 CURVE",
"96 7 LINE",
"97 -25 OFFCURVE",
"80 -54 OFFCURVE",
"48 -71 CURVE"
);
}
);
width = 172;
},
{
layerId = m002;
width = 600;
}
);
unicode = 002C;
},
{
color = 11;
export = 0;
glyphname = exclam;
lastChange = "2025-06-27 05:07:40 +0000";
layers = (
{
layerId = "5DAEE4C7-75B6-49C7-8B62-3AAE62732CCA";
name = "Light Condensed";
paths = (
{
closed = 1;
nodes = (
"136 -10 OFFCURVE",
"156 11 OFFCURVE",
"156 35 CURVE SMOOTH",
"156 60 OFFCURVE",
"136 80 OFFCURVE",
"111 80 CURVE SMOOTH",
"86 80 OFFCURVE",
"66 60 OFFCURVE",
"66 35 CURVE SMOOTH",
"66 10 OFFCURVE",
"86 -10 OFFCURVE",
"111 -10 CURVE SMOOTH"
);
},
{
closed = 1;
nodes = (
"151 607 LINE SMOOTH",
"152 617 OFFCURVE",
"152 620 OFFCURVE",
"152 626 CURVE SMOOTH",
"152 659 OFFCURVE",
"141 675 OFFCURVE",
"111 675 CURVE SMOOTH",
"82 675 OFFCURVE",
"71 660 OFFCURVE",
"71 626 CURVE SMOOTH",
"71 621 OFFCURVE",
"71 617 OFFCURVE",
"72 607 CURVE SMOOTH",
"96 145 LINE",
"127 145 LINE"
);
}
);
width = 222;
},
{
layerId = m002;
width = 600;
}
);
unicode = 0021;
},
{
color = 11;
export = 0;
glyphname = question;
lastChange = "2025-06-27 05:07:40 +0000";
layers = (
{
layerId = "5DAEE4C7-75B6-49C7-8B62-3AAE62732CCA";
name = "Light Condensed";
paths = (
{
closed = 1;
nodes = (
"231 145 LINE",
"231 167 LINE SMOOTH",
"231 312 OFFCURVE",
"439 355 OFFCURVE",
"439 518 CURVE SMOOTH",
"439 616 OFFCURVE",
"364 675 OFFCURVE",
"237 675 CURVE SMOOTH",
"107 675 OFFCURVE",
"29 613 OFFCURVE",
"29 512 CURVE SMOOTH",
"29 457 OFFCURVE",
"52 425 OFFCURVE",
"91 425 CURVE SMOOTH",
"117 425 OFFCURVE",
"135 439 OFFCURVE",
"135 462 CURVE SMOOTH",
"135 496 OFFCURVE",
"97 494 OFFCURVE",
"97 536 CURVE SMOOTH",
"97 585 OFFCURVE",
"149 617 OFFCURVE",
"228 617 CURVE SMOOTH",
"314 617 OFFCURVE",
"360 579 OFFCURVE",
"360 509 CURVE SMOOTH",
"360 370 OFFCURVE",
"186 325 OFFCURVE",
"186 188 CURVE SMOOTH",
"186 145 LINE"
);
},
{
closed = 1;
nodes = (
"234 -10 OFFCURVE",
"254 10 OFFCURVE",
"254 34 CURVE SMOOTH",
"254 58 OFFCURVE",
"234 78 OFFCURVE",
"210 78 CURVE SMOOTH",
"186 78 OFFCURVE",
"166 58 OFFCURVE",
"166 34 CURVE SMOOTH",
"166 9 OFFCURVE",
"186 -10 OFFCURVE",
"210 -10 CURVE SMOOTH"
);
}
);
width = 468;
},
{
layerId = m002;
width = 600;
}
);
unicode = 003F;
},
{
color = 11;
export = 0;
glyphname = bullet;
lastChange = "2025-06-27 05:07:40 +0000";
layers = (
{
layerId = "5DAEE4C7-75B6-49C7-8B62-3AAE62732CCA";
name = "Light Condensed";
paths = (
{
closed = 1;
nodes = (
"217 214 OFFCURVE",
"265 262 OFFCURVE",
"265 320 CURVE SMOOTH",
"265 377 OFFCURVE",
"217 425 OFFCURVE",
"160 425 CURVE SMOOTH",
"102 425 OFFCURVE",
"54 377 OFFCURVE",
"54 320 CURVE SMOOTH",
"54 262 OFFCURVE",
"102 214 OFFCURVE",
"160 214 CURVE SMOOTH"
);
}
);
width = 319;
},
{
layerId = m002;
width = 600;
}
);
unicode = 2022;
},
{
color = 11;
export = 0;
glyphname = asterisk;
lastChange = "2025-06-27 05:07:40 +0000";
layers = (
{
layerId = "5DAEE4C7-75B6-49C7-8B62-3AAE62732CCA";
name = "Light Condensed";
paths = (
{
closed = 1;
nodes = (
"128 529 OFFCURVE",
"95 529 OFFCURVE",
"72 533 CURVE SMOOTH",
"62 535 OFFCURVE",
"54 538 OFFCURVE",
"54 541 CURVE SMOOTH",
"54 546 OFFCURVE",
"66 549 OFFCURVE",
"87 549 CURVE SMOOTH",
"124 549 OFFCURVE",
"125 533 OFFCURVE",
"178 525 CURVE",
"180 526 LINE",
"180 536 OFFCURVE",
"160 550 OFFCURVE",
"160 559 CURVE SMOOTH",
"160 564 OFFCURVE",
"171 568 OFFCURVE",
"191 568 CURVE SMOOTH",
"211 568 OFFCURVE",
"222 564 OFFCURVE",
"222 559 CURVE SMOOTH",
"222 550 OFFCURVE",
"201 537 OFFCURVE",
"201 526 CURVE",
"203 525 LINE",
"256 533 OFFCURVE",
"258 549 OFFCURVE",
"294 549 CURVE SMOOTH",
"316 549 OFFCURVE",
"328 546 OFFCURVE",
"328 541 CURVE SMOOTH",
"328 538 OFFCURVE",
"320 535 OFFCURVE",
"309 533 CURVE SMOOTH",
"287 529 OFFCURVE",
"253 529 OFFCURVE",
"214 524 CURVE",
"214 523 LINE",
"253 518 OFFCURVE",
"287 518 OFFCURVE",
"309 514 CURVE SMOOTH",
"320 512 OFFCURVE",
"328 509 OFFCURVE",
"328 506 CURVE SMOOTH",
"328 501 OFFCURVE",
"316 498 OFFCURVE",
"294 498 CURVE SMOOTH",
"258 498 OFFCURVE",
"256 514 OFFCURVE",
"203 522 CURVE",
"201 522 LINE",
"201 510 OFFCURVE",
"222 498 OFFCURVE",
"222 488 CURVE SMOOTH",
"222 483 OFFCURVE",
"211 479 OFFCURVE",
"191 479 CURVE SMOOTH",
"171 479 OFFCURVE",
"160 483 OFFCURVE",
"160 488 CURVE SMOOTH",
"160 498 OFFCURVE",
"180 511 OFFCURVE",
"180 522 CURVE",
"178 522 LINE",
"125 514 OFFCURVE",
"124 498 OFFCURVE",
"87 498 CURVE SMOOTH",
"66 498 OFFCURVE",
"54 501 OFFCURVE",
"54 506 CURVE SMOOTH",
"54 509 OFFCURVE",
"62 512 OFFCURVE",
"72 514 CURVE SMOOTH",
"95 518 OFFCURVE",
"128 518 OFFCURVE",
"168 523 CURVE",
"168 524 LINE"
);
}
);
width = 382;
},
{
layerId = m002;
width = 600;
}
);
unicode = 002A;
},
{
color = 11;
export = 0;
glyphname = numbersign;
lastChange = "2025-06-27 05:07:40 +0000";
layers = (
{
layerId = "5DAEE4C7-75B6-49C7-8B62-3AAE62732CCA";
name = "Light Condensed";
paths = (
{
closed = 1;
nodes = (
"119 0 LINE",
"181 0 LINE",
"271 630 LINE",
"209 630 LINE"
);
},
{
closed = 1;
nodes = (
"296 0 LINE",
"359 0 LINE",
"448 630 LINE",
"385 630 LINE"
);
},
{
closed = 1;
nodes = (
"64 381 LINE",
"524 381 LINE",
"524 434 LINE",
"64 434 LINE"
);
},
{
closed = 1;
nodes = (
"37 197 LINE",
"497 197 LINE",
"497 251 LINE",
"37 251 LINE"
);
}
);
width = 560;
},
{
layerId = m002;
width = 600;
}
);
unicode = 0023;
},
{
color = 11;
export = 0;
glyphname = slash;
lastChange = "2025-06-27 05:07:40 +0000";
layers = (
{
layerId = "5DAEE4C7-75B6-49C7-8B62-3AAE62732CCA";
name = "Light Condensed";
paths = (
{
closed = 1;
nodes = (
"35 -10 LINE",
"225 675 LINE",
"177 675 LINE",
"-12 -10 LINE"
);
}
);
width = 213;
},
{
layerId = m002;
width = 600;
}
);
unicode = 002F;
},
{
color = 11;
export = 0;
glyphname = backslash;
lastChange = "2025-06-27 05:07:40 +0000";
layers = (
{
layerId = "5DAEE4C7-75B6-49C7-8B62-3AAE62732CCA";
name = "Light Condensed";
paths = (
{
closed = 1;
nodes = (
"35 675 LINE",
"-12 675 LINE",
"177 -10 LINE",
"225 -10 LINE"
);
}
);
width = 213;
},
{
layerId = m002;
width = 600;
}
);
unicode = 005C;
},
{
color = 11;
export = 0;
glyphname = hyphen;
lastChange = "2025-06-27 05:07:40 +0000";
layers = (
{
layerId = "5DAEE4C7-75B6-49C7-8B62-3AAE62732CCA";
name = "Light Condensed";
paths = (
{
closed = 1;
nodes = (
"313 194 LINE",
"313 260 LINE",
"44 260 LINE",
"44 194 LINE"
);
}
);
width = 357;
},
{
layerId = m002;
width = 600;
}
);
unicode = 002D;
},
{
color = 11;
export = 0;
glyphname = endash;
lastChange = "2025-06-27 05:07:40 +0000";
layers = (
{
layerId = "5DAEE4C7-75B6-49C7-8B62-3AAE62732CCA";
name = "Light Condensed";
paths = (
{
closed = 1;
nodes = (
"432 200 LINE",
"432 239 LINE",
"0 239 LINE",
"0 200 LINE"
);
}
);
width = 432;
},
{
layerId = m002;
width = 600;
}
);
unicode = 2013;
},
{
color = 11;
export = 0;
glyphname = emdash;
lastChange = "2025-06-27 05:07:40 +0000";
layers = (
{
layerId = "5DAEE4C7-75B6-49C7-8B62-3AAE62732CCA";
name = "Light Condensed";
paths = (
{
closed = 1;
nodes = (
"677 200 LINE",
"677 239 LINE",
"0 239 LINE",
"0 200 LINE"
);
}
);
width = 677;
},
{
layerId = m002;
width = 600;
}
);
unicode = 2014;
},
{
color = 11;
export = 0;
glyphname = parenleft;
lastChange = "2025-06-27 05:07:40 +0000";
layers = (
{
layerId = "5DAEE4C7-75B6-49C7-8B62-3AAE62732CCA";
name = "Light Condensed";
paths = (
{
closed = 1;
nodes = (
"279 675 LINE",
"172 644 OFFCURVE",
"90 468 OFFCURVE",
"90 249 CURVE SMOOTH",
"90 31 OFFCURVE",
"173 -152 OFFCURVE",
"279 -184 CURVE",
"279 -136 LINE",
"207 -102 OFFCURVE",
"157 52 OFFCURVE",
"157 250 CURVE SMOOTH",
"157 449 OFFCURVE",
"206 596 OFFCURVE",
"279 627 CURVE"
);
}
);
width = 321;
},
{
layerId = m002;
width = 600;
}
);
unicode = 0028;
},
{
color = 11;
export = 0;
glyphname = braceleft;
lastChange = "2025-06-27 05:07:40 +0000";
layers = (
{
layerId = "5DAEE4C7-75B6-49C7-8B62-3AAE62732CCA";
name = "Light Condensed";
paths = (
{
closed = 1;
nodes = (
"34 242 LINE",
"95 223 OFFCURVE",
"110 197 OFFCURVE",
"110 140 CURVE SMOOTH",
"110 7 LINE SMOOTH",
"110 -131 OFFCURVE",
"142 -171 OFFCURVE",
"263 -171 CURVE",
"263 -148 LINE",
"194 -142 OFFCURVE",
"168 -108 OFFCURVE",
"168 -22 CURVE SMOOTH",
"168 121 LINE SMOOTH",
"168 203 OFFCURVE",
"149 236 OFFCURVE",
"89 252 CURVE",
"89 254 LINE",
"149 270 OFFCURVE",
"168 304 OFFCURVE",
"168 383 CURVE SMOOTH",
"168 520 LINE SMOOTH",
"168 593 OFFCURVE",
"198 636 OFFCURVE",
"263 643 CURVE",
"263 665 LINE",
"151 665 OFFCURVE",
"110 613 OFFCURVE",
"110 484 CURVE SMOOTH",
"110 358 LINE SMOOTH",
"110 309 OFFCURVE",
"94 284 OFFCURVE",
"34 264 CURVE"
);
}
);
width = 286;
},
{
layerId = m002;
width = 600;
}
);
unicode = 007B;
},
{
color = 11;
export = 0;
glyphname = bracketleft;
lastChange = "2025-06-27 05:07:40 +0000";
layers = (
{
layerId = "5DAEE4C7-75B6-49C7-8B62-3AAE62732CCA";
name = "Light Condensed";
paths = (
{
closed = 1;
nodes = (
"253 -174 LINE SMOOTH",
"253 -131 LINE SMOOTH",
"156 -131 LINE SMOOTH",
"156 622 LINE SMOOTH",
"253 622 LINE SMOOTH",
"253 665 LINE SMOOTH",
"98 665 LINE SMOOTH",
"98 -174 LINE SMOOTH"
);
}
);
width = 290;
},
{
layerId = m002;
width = 600;
}
);
unicode = 005B;
},
{
color = 11;
export = 0;
glyphname = guillemetleft;
lastChange = "2025-06-27 05:07:40 +0000";
layers = (
{
layerId = "5DAEE4C7-75B6-49C7-8B62-3AAE62732CCA";
name = "Light Condensed";
paths = (
{
closed = 1;
nodes = (
"115 217 OFFCURVE",
"117 209 OFFCURVE",
"126 196 CURVE SMOOTH",
"217 63 LINE",
"261 63 LINE",
"178 226 LINE",
"261 388 LINE",
"217 388 LINE",
"126 255 LINE SMOOTH",
"117 242 OFFCURVE",
"115 234 OFFCURVE",
"115 226 CURVE SMOOTH"
);
},
{
closed = 1;
nodes = (
"113 217 OFFCURVE",
"116 209 OFFCURVE",
"125 196 CURVE SMOOTH",
"215 63 LINE",
"259 63 LINE",
"176 226 LINE",
"259 388 LINE",
"215 388 LINE",
"125 255 LINE SMOOTH",
"116 242 OFFCURVE",
"113 234 OFFCURVE",
"113 226 CURVE SMOOTH"
);
}
);
width = 383;
},
{
layerId = m002;
width = 600;
}
);
unicode = 00AB;
},
{
color = 11;
export = 0;
glyphname = guilsinglleft;
lastChange = "2025-06-27 05:07:40 +0000";
layers = (
{
layerId = "5DAEE4C7-75B6-49C7-8B62-3AAE62732CCA";
name = "Light Condensed";
paths = (
{
closed = 1;
nodes = (
"37 217 OFFCURVE",
"40 209 OFFCURVE",
"49 196 CURVE SMOOTH",
"140 63 LINE",
"183 63 LINE",
"100 226 LINE",
"183 388 LINE",
"140 388 LINE",
"49 255 LINE SMOOTH",
"40 242 OFFCURVE",
"37 234 OFFCURVE",
"37 226 CURVE SMOOTH"
);
}
);
width = 230;
},
{
layerId = m002;
width = 600;
}
);
unicode = 2039;
},
{
color = 11;
export = 0;
glyphname = quotesingle;
lastChange = "2025-06-27 05:07:40 +0000";
layers = (
{
layerId = "5DAEE4C7-75B6-49C7-8B62-3AAE62732CCA";
name = "Light Condensed";
paths = (
{
closed = 1;
nodes = (
"91 603 LINE SMOOTH",
"93 620 OFFCURVE",
"94 632 OFFCURVE",
"94 641 CURVE SMOOTH",
"94 665 OFFCURVE",
"84 675 OFFCURVE",
"65 675 CURVE SMOOTH",
"46 675 OFFCURVE",
"36 665 OFFCURVE",
"36 641 CURVE SMOOTH",
"36 632 OFFCURVE",
"37 620 OFFCURVE",
"39 603 CURVE SMOOTH",
"51 474 LINE",
"78 474 LINE"
);
}
);
width = 130;
},
{
layerId = m002;
width = 600;
}
);
unicode = 0027;
},
{
color = 11;
export = 0;
glyphname = florin;
lastChange = "2025-06-27 05:07:40 +0000";
layers = (
{
layerId = "5DAEE4C7-75B6-49C7-8B62-3AAE62732CCA";
name = "Light Condensed";
paths = (
{
closed = 1;
nodes = (
"93 -43 LINE SMOOTH",
"83 -138 OFFCURVE",
"51 -181 OFFCURVE",
"-5 -181 CURVE SMOOTH",
"-37 -181 OFFCURVE",
"-58 -168 OFFCURVE",
"-58 -145 CURVE SMOOTH",
"-58 -119 OFFCURVE",
"-31 -109 OFFCURVE",
"-31 -84 CURVE SMOOTH",
"-31 -65 OFFCURVE",
"-44 -54 OFFCURVE",
"-64 -54 CURVE SMOOTH",
"-99 -54 OFFCURVE",
"-122 -84 OFFCURVE",
"-122 -128 CURVE SMOOTH",
"-122 -191 OFFCURVE",
"-79 -226 OFFCURVE",
"-8 -226 CURVE SMOOTH",
"89 -226 OFFCURVE",
"146 -163 OFFCURVE",
"159 -37 CURVE SMOOTH",
"215 491 LINE SMOOTH",
"225 590 OFFCURVE",
"247 630 OFFCURVE",
"313 630 CURVE SMOOTH",
"346 630 OFFCURVE",
"366 617 OFFCURVE",
"366 594 CURVE SMOOTH",
"365 566 OFFCURVE",
"339 560 OFFCURVE",
"339 533 CURVE SMOOTH",
"339 514 OFFCURVE",
"352 503 OFFCURVE",
"374 503 CURVE SMOOTH",
"408 503 OFFCURVE",
"430 532 OFFCURVE",
"430 577 CURVE SMOOTH",
"430 640 OFFCURVE",
"387 675 OFFCURVE",
"317 675 CURVE SMOOTH",
"211 675 OFFCURVE",
"162 611 OFFCURVE",
"149 486 CURVE SMOOTH"
);
},
{
closed = 1;
nodes = (
"340 403 LINE",
"340 447 LINE",
"25 447 LINE",
"25 403 LINE"
);
}
);
width = 430;
},
{
layerId = m002;
width = 600;
}
);
unicode = 0192;
},
{
color = 11;
export = 0;
glyphname = at;
lastChange = "2025-06-27 05:07:40 +0000";
layers = (
{
layerId = "5DAEE4C7-75B6-49C7-8B62-3AAE62732CCA";
name = "Light Condensed";
paths = (
{
closed = 1;
nodes = (
"429 -64 OFFCURVE",
"513 -37 OFFCURVE",
"552 2 CURVE",
"533 32 LINE",
"497 -4 OFFCURVE",
"423 -27 OFFCURVE",
"347 -27 CURVE SMOOTH",
"191 -27 OFFCURVE",
"89 72 OFFCURVE",
"89 226 CURVE SMOOTH",
"89 377 OFFCURVE",
"187 480 OFFCURVE",
"333 480 CURVE SMOOTH",
"469 480 OFFCURVE",
"565 391 OFFCURVE",
"565 264 CURVE SMOOTH",
"565 183 OFFCURVE",
"525 125 OFFCURVE",
"469 125 CURVE SMOOTH",
"438 125 OFFCURVE",
"422 143 OFFCURVE",
"422 179 CURVE SMOOTH",
"422 190 OFFCURVE",
"424 200 OFFCURVE",
"429 219 CURVE SMOOTH",
"465 369 LINE",
"421 369 LINE",
"408 317 LINE",
"398 353 OFFCURVE",
"370 373 OFFCURVE",
"327 373 CURVE SMOOTH",
"242 373 OFFCURVE",
"174 295 OFFCURVE",
"174 199 CURVE SMOOTH",
"174 129 OFFCURVE",
"210 89 OFFCURVE",
"272 89 CURVE SMOOTH",
"317 89 OFFCURVE",
"353 110 OFFCURVE",
"386 156 CURVE",
"390 156 LINE",
"390 115 OFFCURVE",
"417 89 OFFCURVE",
"463 89 CURVE SMOOTH",
"545 89 OFFCURVE",
"604 164 OFFCURVE",
"604 266 CURVE SMOOTH",
"604 410 OFFCURVE",
"488 517 OFFCURVE",
"331 517 CURVE SMOOTH",
"166 517 OFFCURVE",
"49 396 OFFCURVE",
"49 224 CURVE SMOOTH",
"49 51 OFFCURVE",
"167 -64 OFFCURVE",
"344 -64 CURVE SMOOTH"
);
},
{
closed = 1;
nodes = (
"243 128 OFFCURVE",
"223 154 OFFCURVE",
"223 200 CURVE SMOOTH",
"223 273 OFFCURVE",
"269 332 OFFCURVE",
"325 332 CURVE SMOOTH",
"363 332 OFFCURVE",
"386 305 OFFCURVE",
"386 259 CURVE SMOOTH",
"386 190 OFFCURVE",
"336 128 OFFCURVE",
"280 128 CURVE SMOOTH"
);
}
);
width = 653;
},
{
layerId = m002;
width = 600;
}
);
unicode = 0040;
},
{
color = 11;
export = 0;
glyphname = ampersand;
lastChange = "2025-06-27 05:07:40 +0000";
layers = (
{
layerId = "5DAEE4C7-75B6-49C7-8B62-3AAE62732CCA";
name = "Light Condensed";
paths = (
{
closed = 1;
nodes = (
"429 115 OFFCURVE",
"342 49 OFFCURVE",
"226 49 CURVE SMOOTH",
"139 49 OFFCURVE",
"92 90 OFFCURVE",
"92 159 CURVE SMOOTH",
"92 345 OFFCURVE",
"449 340 OFFCURVE",
"449 520 CURVE SMOOTH",
"449 594 OFFCURVE",
"390 640 OFFCURVE",
"295 640 CURVE SMOOTH",
"191 640 OFFCURVE",
"129 585 OFFCURVE",
"129 492 CURVE SMOOTH",
"129 437 OFFCURVE",
"150 376 OFFCURVE",
"208 274 CURVE SMOOTH",
"277 145 LINE SMOOTH",
"334 42 OFFCURVE",
"412 -10 OFFCURVE",
"508 -10 CURVE SMOOTH",
"626 -10 OFFCURVE",
"684 67 OFFCURVE",
"684 225 CURVE",
"625 225 LINE",
"622 100 OFFCURVE",
"588 48 OFFCURVE",
"509 48 CURVE SMOOTH",
"439 48 OFFCURVE",
"387 87 OFFCURVE",
"331 185 CURVE SMOOTH",
"270 295 LINE SMOOTH",
"224 374 OFFCURVE",
"199 446 OFFCURVE",
"199 496 CURVE SMOOTH",
"199 552 OFFCURVE",
"233 583 OFFCURVE",
"295 583 CURVE SMOOTH",
"350 583 OFFCURVE",
"381 559 OFFCURVE",
"381 517 CURVE SMOOTH",
"381 375 OFFCURVE",
"17 387 OFFCURVE",
"17 155 CURVE SMOOTH",
"17 50 OFFCURVE",
"89 -10 OFFCURVE",
"221 -10 CURVE SMOOTH",
"370 -10 OFFCURVE",
"463 62 OFFCURVE",
"550 251 CURVE SMOOTH",
"571 297 OFFCURVE",
"571 299 OFFCURVE",
"602 299 CURVE SMOOTH",
"662 299 LINE",
"662 348 LINE",
"401 348 LINE",
"401 299 LINE",
"454 299 LINE SMOOTH",
"480 299 OFFCURVE",
"492 293 OFFCURVE",
"492 277 CURVE SMOOTH",
"492 270 OFFCURVE",
"490 263 OFFCURVE",
"483 246 CURVE SMOOTH"
);
}
);
width = 690;
},
{
layerId = m002;
width = 600;
}
);
unicode = 0026;
},
{
color = 11;
export = 0;
glyphname = paragraph;
lastChange = "2025-06-27 05:07:40 +0000";
layers = (
{
layerId = "5DAEE4C7-75B6-49C7-8B62-3AAE62732CCA";
name = "Light Condensed";
paths = (
{
closed = 1;
nodes = (
"273 -149 LINE",
"273 579 LINE",
"326 579 LINE",
"326 -149 LINE",
"394 -149 LINE",
"394 533 LINE SMOOTH",
"394 564 OFFCURVE",
"407 579 OFFCURVE",
"436 579 CURVE SMOOTH",
"464 579 LINE",
"464 630 LINE",
"235 630 LINE SMOOTH",
"95 630 OFFCURVE",
"26 568 OFFCURVE",
"26 432 CURVE SMOOTH",
"26 300 OFFCURVE",
"92 225 OFFCURVE",
"205 225 CURVE",
"205 -149 LINE"
);
}
);
width = 482;
},
{
layerId = m002;
width = 600;
}
);
unicode = 00B6;
},
{
color = 11;
export = 0;
glyphname = section;
lastChange = "2025-06-27 05:07:40 +0000";
layers = (
{
layerId = "5DAEE4C7-75B6-49C7-8B62-3AAE62732CCA";
name = "Light Condensed";
paths = (
{
closed = 1;
nodes = (
"159 639 OFFCURVE",
"78 583 OFFCURVE",
"78 491 CURVE SMOOTH",
"78 291 OFFCURVE",
"458 360 OFFCURVE",
"458 212 CURVE SMOOTH",
"458 156 OFFCURVE",
"405 125 OFFCURVE",
"309 125 CURVE",
"317 71 LINE",
"448 71 OFFCURVE",
"527 127 OFFCURVE",
"527 220 CURVE SMOOTH",
"527 423 OFFCURVE",
"147 367 OFFCURVE",
"147 501 CURVE SMOOTH",
"147 553 OFFCURVE",
"205 584 OFFCURVE",
"300 584 CURVE SMOOTH",
"394 584 OFFCURVE",
"447 555 OFFCURVE",
"447 503 CURVE SMOOTH",
"447 472 OFFCURVE",
"426 464 OFFCURVE",
"426 438 CURVE SMOOTH",
"426 415 OFFCURVE",
"442 400 OFFCURVE",
"466 400 CURVE SMOOTH",
"498 400 OFFCURVE",
"516 427 OFFCURVE",
"516 476 CURVE SMOOTH",
"516 580 OFFCURVE",
"436 639 OFFCURVE",
"295 639 CURVE SMOOTH"
);
},
{
closed = 1;
nodes = (
"420 -165 OFFCURVE",
"500 -109 OFFCURVE",
"500 -16 CURVE SMOOTH",
"500 183 OFFCURVE",
"120 114 OFFCURVE",
"120 262 CURVE SMOOTH",
"120 318 OFFCURVE",
"173 349 OFFCURVE",
"269 349 CURVE",
"261 404 LINE",
"130 404 OFFCURVE",
"51 347 OFFCURVE",
"51 254 CURVE SMOOTH",
"51 51 OFFCURVE",
"431 106 OFFCURVE",
"431 -27 CURVE SMOOTH",
"431 -77 OFFCURVE",
"374 -110 OFFCURVE",
"287 -110 CURVE SMOOTH",
"200 -110 OFFCURVE",
"143 -78 OFFCURVE",
"143 -28 CURVE SMOOTH",
"143 2 OFFCURVE",
"163 10 OFFCURVE",
"163 36 CURVE SMOOTH",
"163 59 OFFCURVE",
"148 74 OFFCURVE",
"124 74 CURVE SMOOTH",
"92 74 OFFCURVE",
"74 48 OFFCURVE",
"74 -2 CURVE SMOOTH",
"74 -106 OFFCURVE",
"153 -165 OFFCURVE",
"289 -165 CURVE SMOOTH"
);
}
);
width = 576;
},
{
layerId = m002;
width = 600;
}
);
unicode = 00A7;
},
{
color = 11;
export = 0;
glyphname = copyright;
lastChange = "2025-06-27 05:07:40 +0000";
layers = (
{
layerId = "5DAEE4C7-75B6-49C7-8B62-3AAE62732CCA";
name = "Light Condensed";
paths = (
{
closed = 1;
nodes = (
"563 -10 OFFCURVE",
"708 136 OFFCURVE",
"708 315 CURVE SMOOTH",
"708 494 OFFCURVE",
"563 640 OFFCURVE",
"384 640 CURVE SMOOTH",
"204 640 OFFCURVE",
"59 494 OFFCURVE",
"59 315 CURVE SMOOTH",
"59 136 OFFCURVE",
"204 -10 OFFCURVE",
"384 -10 CURVE SMOOTH"
);
},
{
closed = 1;
nodes = (
"226 32 OFFCURVE",
"101 158 OFFCURVE",
"101 315 CURVE SMOOTH",
"101 472 OFFCURVE",
"226 598 OFFCURVE",
"384 598 CURVE SMOOTH",
"541 598 OFFCURVE",
"666 472 OFFCURVE",
"666 315 CURVE SMOOTH",
"666 158 OFFCURVE",
"541 32 OFFCURVE",
"384 32 CURVE SMOOTH"
);
},
{
closed = 1;
nodes = (
"306 160 OFFCURVE",
"265 212 OFFCURVE",
"265 314 CURVE SMOOTH",
"265 415 OFFCURVE",
"306 470 OFFCURVE",
"388 470 CURVE SMOOTH",
"449 470 OFFCURVE",
"486 438 OFFCURVE",
"495 367 CURVE",
"538 367 LINE",
"538 509 LINE",
"502 509 LINE",
"495 462 LINE",
"493 462 LINE",
"473 494 OFFCURVE",
"438 515 OFFCURVE",
"382 515 CURVE SMOOTH",
"268 515 OFFCURVE",
"209 446 OFFCURVE",
"209 315 CURVE SMOOTH",
"209 185 OFFCURVE",
"267 115 OFFCURVE",
"383 115 CURVE SMOOTH",
"488 115 OFFCURVE",
"542 172 OFFCURVE",
"542 274 CURVE",
"495 274 LINE",
"495 199 OFFCURVE",
"455 160 OFFCURVE",
"387 160 CURVE SMOOTH"
);
}
);
width = 767;
},
{
layerId = m002;
width = 600;
}
);
unicode = 00A9;
},
{
color = 11;
export = 0;
glyphname = registered;
lastChange = "2025-06-27 05:07:40 +0000";
layers = (
{
layerId = "5DAEE4C7-75B6-49C7-8B62-3AAE62732CCA";
name = "Light Condensed";
paths = (
{
closed = 1;
nodes = (
"361 234 OFFCURVE",
"451 325 OFFCURVE",
"451 437 CURVE SMOOTH",
"451 549 OFFCURVE",
"361 640 OFFCURVE",
"249 640 CURVE SMOOTH",
"136 640 OFFCURVE",
"46 549 OFFCURVE",
"46 437 CURVE SMOOTH",
"46 325 OFFCURVE",
"136 234 OFFCURVE",
"249 234 CURVE SMOOTH"
);
},
{
closed = 1;
nodes = (
"150 260 OFFCURVE",
"72 339 OFFCURVE",
"72 437 CURVE SMOOTH",
"72 535 OFFCURVE",
"150 614 OFFCURVE",
"249 614 CURVE SMOOTH",
"347 614 OFFCURVE",
"425 535 OFFCURVE",
"425 437 CURVE SMOOTH",
"425 339 OFFCURVE",
"347 260 OFFCURVE",
"249 260 CURVE SMOOTH"
);
},
{
closed = 1;
nodes = (
"164 342 LINE SMOOTH",
"175 342 OFFCURVE",
"175 345 OFFCURVE",
"175 354 CURVE SMOOTH",
"175 519 LINE SMOOTH",
"175 532 OFFCURVE",
"172 531 OFFCURVE",
"162 531 CURVE SMOOTH",
"140 531 LINE",
"140 555 LINE",
"259 555 LINE SMOOTH",
"316 555 OFFCURVE",
"344 530 OFFCURVE",
"344 491 CURVE SMOOTH",
"344 450 OFFCURVE",
"312 424 OFFCURVE",
"260 424 CURVE SMOOTH",
"202 424 LINE",
"202 450 LINE",
"253 450 LINE SMOOTH",
"293 450 OFFCURVE",
"312 466 OFFCURVE",
"312 490 CURVE SMOOTH",
"312 514 OFFCURVE",
"294 529 OFFCURVE",
"257 529 CURVE SMOOTH",
"207 529 LINE",
"207 354 LINE SMOOTH",
"207 342 OFFCURVE",
"211 342 OFFCURVE",
"219 342 CURVE SMOOTH",
"244 342 LINE",
"244 318 LINE",
"140 318 LINE",
"140 342 LINE"
);
},
{
closed = 1;
nodes = (
"302 314 OFFCURVE",
"288 330 OFFCURVE",
"288 358 CURVE SMOOTH",
"288 382 LINE SMOOTH",
"288 412 OFFCURVE",
"280 424 OFFCURVE",
"254 424 CURVE",
"254 436 LINE",
"279 436 OFFCURVE",
"290 435 OFFCURVE",
"295 430 CURVE",
"295 428 LINE",
"314 423 OFFCURVE",
"320 406 OFFCURVE",
"320 385 CURVE SMOOTH",
"320 363 LINE SMOOTH",
"320 343 OFFCURVE",
"325 337 OFFCURVE",
"334 337 CURVE SMOOTH",
"342 337 OFFCURVE",
"347 344 OFFCURVE",
"347 362 CURVE SMOOTH",
"347 382 LINE",
"370 382 LINE",
"370 358 LINE SMOOTH",
"370 328 OFFCURVE",
"357 314 OFFCURVE",
"331 314 CURVE SMOOTH"
);
}
);
width = 497;
},
{
layerId = m002;
width = 600;
}
);
unicode = 00AE;
},
{
color = 11;
export = 0;
glyphname = trademark;
lastChange = "2025-06-27 05:07:40 +0000";
layers = (
{
layerId = "5DAEE4C7-75B6-49C7-8B62-3AAE62732CCA";
name = "Light Condensed";
paths = (
{
closed = 1;
nodes = (
"108 236 LINE",
"303 236 LINE",
"303 270 LINE",
"249 270 LINE SMOOTH",
"236 270 OFFCURVE",
"231 278 OFFCURVE",
"231 292 CURVE SMOOTH",
"231 598 LINE",
"296 598 LINE SMOOTH",
"330 598 OFFCURVE",
"337 576 OFFCURVE",
"337 465 CURVE",
"373 465 LINE",
"373 630 LINE",
"39 630 LINE",
"39 465 LINE",
"75 465 LINE",
"75 576 OFFCURVE",
"82 598 OFFCURVE",
"116 598 CURVE SMOOTH",
"181 598 LINE",
"181 292 LINE SMOOTH",
"181 278 OFFCURVE",
"176 270 OFFCURVE",
"162 270 CURVE SMOOTH",
"108 270 LINE"
);
},
{
closed = 1;
nodes = (
"396 236 LINE",
"547 236 LINE",
"547 270 LINE",
"507 270 LINE SMOOTH",
"496 270 OFFCURVE",
"492 279 OFFCURVE",
"492 291 CURVE",
"492 630 LINE",
"395 630 LINE",
"395 597 LINE",
"436 597 LINE SMOOTH",
"449 597 OFFCURVE",
"454 589 OFFCURVE",
"454 576 CURVE SMOOTH",
"454 291 LINE SMOOTH",
"454 279 OFFCURVE",
"449 270 OFFCURVE",
"436 270 CURVE SMOOTH",
"396 270 LINE"
);
},
{
closed = 1;
nodes = (
"733 236 LINE",
"899 236 LINE",
"899 270 LINE",
"856 270 LINE SMOOTH",
"844 270 OFFCURVE",
"840 279 OFFCURVE",
"840 291 CURVE SMOOTH",
"840 576 LINE SMOOTH",
"840 589 OFFCURVE",
"844 597 OFFCURVE",
"856 597 CURVE SMOOTH",
"899 597 LINE",
"899 630 LINE",
"790 630 LINE",
"790 291 LINE",
"790 279 OFFCURVE",
"786 270 OFFCURVE",
"772 270 CURVE SMOOTH",
"733 270 LINE"
);
},
{
closed = 1;
nodes = (
"474 630 LINE",
"491 576 LINE",
"494 576 LINE",
"609 236 LINE",
"670 236 LINE",
"787 576 LINE",
"791 576 LINE",
"807 630 LINE",
"767 630 LINE",
"646 283 LINE",
"643 283 LINE",
"525 630 LINE"
);
}
);
width = 938;
},
{
layerId = m002;
width = 600;
}
);
unicode = 2122;
},
{
color = 11;
export = 0;
glyphname = degree;
lastChange = "2025-06-27 05:07:40 +0000";
layers = (
{
layerId = "5DAEE4C7-75B6-49C7-8B62-3AAE62732CCA";
name = "Light Condensed";
paths = (
{
closed = 1;
nodes = (
"212 540 OFFCURVE",
"249 532 OFFCURVE",
"249 519 CURVE SMOOTH",
"249 506 OFFCURVE",
"212 498 OFFCURVE",
"159 498 CURVE SMOOTH",
"106 498 OFFCURVE",
"68 506 OFFCURVE",
"68 519 CURVE SMOOTH",
"68 532 OFFCURVE",
"106 540 OFFCURVE",
"159 540 CURVE SMOOTH"
);
},
{
closed = 1;
nodes = (
"196 417 OFFCURVE",
"225 461 OFFCURVE",
"225 519 CURVE SMOOTH",
"225 577 OFFCURVE",
"196 622 OFFCURVE",
"159 622 CURVE SMOOTH",
"121 622 OFFCURVE",
"92 577 OFFCURVE",
"92 519 CURVE SMOOTH",
"92 461 OFFCURVE",
"121 417 OFFCURVE",
"159 417 CURVE SMOOTH"
);
}
);
width = 318;
},
{
layerId = m002;
width = 600;
}
);
unicode = 00B0;
},
{
color = 11;
export = 0;
glyphname = bar;
lastChange = "2025-06-27 05:07:40 +0000";
layers = (
{
layerId = "5DAEE4C7-75B6-49C7-8B62-3AAE62732CCA";
name = "Light Condensed";
paths = (
{
closed = 1;
nodes = (
"136 -122 LINE",
"180 -122 LINE",
"180 666 LINE",
"136 666 LINE"
);
}
);
width = 316;
},
{
layerId = m002;
width = 600;
}
);
unicode = 007C;
},
{
color = 11;
export = 0;
glyphname = brokenbar;
lastChange = "2025-06-27 05:07:40 +0000";
layers = (
{
layerId = "5DAEE4C7-75B6-49C7-8B62-3AAE62732CCA";
name = "Light Condensed";
paths = (
{
closed = 1;
nodes = (
"136 336 LINE",
"180 336 LINE",
"180 666 LINE",
"136 666 LINE"
);
},
{
closed = 1;
nodes = (
"136 -122 LINE",
"180 -122 LINE",
"180 208 LINE",
"136 208 LINE"
);
}
);
width = 316;
},
{
layerId = m002;
width = 600;
}
);
unicode = 00A6;
},
{
color = 11;
export = 0;
glyphname = dagger;
lastChange = "2025-06-27 05:07:40 +0000";
layers = (
{
layerId = "5DAEE4C7-75B6-49C7-8B62-3AAE62732CCA";
name = "Light Condensed";
paths = (
{
closed = 1;
nodes = (
"232 43 OFFCURVE",
"254 -51 OFFCURVE",
"254 -81 CURVE SMOOTH",
"254 -106 OFFCURVE",
"237 -124 OFFCURVE",
"213 -124 CURVE SMOOTH",
"190 -124 OFFCURVE",
"173 -106 OFFCURVE",
"173 -81 CURVE SMOOTH",
"173 -51 OFFCURVE",
"194 43 OFFCURVE",
"194 403 CURVE SMOOTH",
"194 522 OFFCURVE",
"173 581 OFFCURVE",
"173 625 CURVE SMOOTH",
"173 657 OFFCURVE",
"187 675 OFFCURVE",
"213 675 CURVE SMOOTH",
"240 675 OFFCURVE",
"254 657 OFFCURVE",
"254 625 CURVE SMOOTH",
"254 581 OFFCURVE",
"232 522 OFFCURVE",
"232 403 CURVE SMOOTH"
);
},
{
closed = 1;
nodes = (
"251 416 OFFCURVE",
"333 436 OFFCURVE",
"364 436 CURVE SMOOTH",
"392 436 OFFCURVE",
"410 421 OFFCURVE",
"410 397 CURVE SMOOTH",
"410 374 OFFCURVE",
"393 360 OFFCURVE",
"365 360 CURVE SMOOTH",
"329 360 OFFCURVE",
"252 385 OFFCURVE",
"212 385 CURVE SMOOTH",
"171 385 OFFCURVE",
"97 360 OFFCURVE",
"61 360 CURVE SMOOTH",
"32 360 OFFCURVE",
"16 374 OFFCURVE",
"16 397 CURVE SMOOTH",
"16 421 OFFCURVE",
"33 436 OFFCURVE",
"62 436 CURVE SMOOTH",
"93 436 OFFCURVE",
"171 416 OFFCURVE",
"211 416 CURVE SMOOTH"
);
}
);
width = 426;
},
{
layerId = m002;
width = 600;
}
);
unicode = 2020;
},
{
color = 11;
export = 0;
glyphname = daggerdbl;
lastChange = "2025-06-27 05:07:40 +0000";
layers = (
{
layerId = "5DAEE4C7-75B6-49C7-8B62-3AAE62732CCA";
name = "Light Condensed";
paths = (
{
closed = 1;
nodes = (
"232 43 OFFCURVE",
"254 -51 OFFCURVE",
"254 -81 CURVE SMOOTH",
"254 -106 OFFCURVE",
"237 -124 OFFCURVE",
"213 -124 CURVE SMOOTH",
"190 -124 OFFCURVE",
"173 -106 OFFCURVE",
"173 -81 CURVE SMOOTH",
"173 -51 OFFCURVE",
"194 43 OFFCURVE",
"194 403 CURVE SMOOTH",
"194 522 OFFCURVE",
"173 581 OFFCURVE",
"173 625 CURVE SMOOTH",
"173 657 OFFCURVE",
"187 675 OFFCURVE",
"213 675 CURVE SMOOTH",
"240 675 OFFCURVE",
"254 657 OFFCURVE",
"254 625 CURVE SMOOTH",
"254 581 OFFCURVE",
"232 522 OFFCURVE",
"232 403 CURVE SMOOTH"
);
},
{
closed = 1;
nodes = (
"251 416 OFFCURVE",
"333 436 OFFCURVE",
"364 436 CURVE SMOOTH",
"392 436 OFFCURVE",
"410 421 OFFCURVE",
"410 397 CURVE SMOOTH",
"410 374 OFFCURVE",
"393 360 OFFCURVE",
"365 360 CURVE SMOOTH",
"329 360 OFFCURVE",
"252 385 OFFCURVE",
"212 385 CURVE SMOOTH",
"171 385 OFFCURVE",
"97 360 OFFCURVE",
"61 360 CURVE SMOOTH",
"32 360 OFFCURVE",
"16 374 OFFCURVE",
"16 397 CURVE SMOOTH",
"16 421 OFFCURVE",
"33 436 OFFCURVE",
"62 436 CURVE SMOOTH",
"93 436 OFFCURVE",
"172 416 OFFCURVE",
"211 416 CURVE SMOOTH"
);
},
{
closed = 1;
nodes = (
"251 196 OFFCURVE",
"333 216 OFFCURVE",
"364 216 CURVE SMOOTH",
"392 216 OFFCURVE",
"410 201 OFFCURVE",
"410 177 CURVE SMOOTH",
"410 154 OFFCURVE",
"393 140 OFFCURVE",
"365 140 CURVE SMOOTH",
"329 140 OFFCURVE",
"252 165 OFFCURVE",
"212 165 CURVE SMOOTH",
"171 165 OFFCURVE",
"97 140 OFFCURVE",
"61 140 CURVE SMOOTH",
"32 140 OFFCURVE",
"16 154 OFFCURVE",
"16 177 CURVE SMOOTH",
"16 201 OFFCURVE",
"33 216 OFFCURVE",
"62 216 CURVE SMOOTH",
"93 216 OFFCURVE",
"171 196 OFFCURVE",
"211 196 CURVE SMOOTH"
);
}
);
width = 426;
},
{
layerId = m002;
width = 600;
}
);
unicode = 2021;
},
{
color = 11;
export = 0;
glyphname = servicemark;
lastChange = "2025-06-27 05:07:40 +0000";
layers = (
{
layerId = "5DAEE4C7-75B6-49C7-8B62-3AAE62732CCA";
name = "Light Condensed";
paths = (
{
closed = 1;
nodes = (
"126 263 OFFCURVE",
"83 305 OFFCURVE",
"83 381 CURVE",
"51 381 LINE",
"51 236 LINE",
"82 236 LINE",
"86 274 LINE",
"88 274 LINE",
"113 245 OFFCURVE",
"156 230 OFFCURVE",
"205 230 CURVE SMOOTH",
"284 230 OFFCURVE",
"336 272 OFFCURVE",
"336 337 CURVE SMOOTH",
"336 479 OFFCURVE",
"99 441 OFFCURVE",
"99 539 CURVE SMOOTH",
"99 577 OFFCURVE",
"135 601 OFFCURVE",
"190 601 CURVE SMOOTH",
"258 601 OFFCURVE",
"292 565 OFFCURVE",
"292 493 CURVE",
"325 493 LINE",
"325 630 LINE",
"296 630 LINE",
"291 596 LINE",
"289 596 LINE",
"265 621 OFFCURVE",
"227 635 OFFCURVE",
"183 635 CURVE SMOOTH",
"106 635 OFFCURVE",
"56 594 OFFCURVE",
"56 531 CURVE SMOOTH",
"56 395 OFFCURVE",
"293 436 OFFCURVE",
"293 331 CURVE SMOOTH",
"293 289 OFFCURVE",
"257 263 OFFCURVE",
"200 263 CURVE SMOOTH"
);
},
{
closed = 1;
nodes = (
"376 236 LINE",
"523 236 LINE",
"523 268 LINE",
"483 268 LINE SMOOTH",
"472 268 OFFCURVE",
"467 276 OFFCURVE",
"467 289 CURVE",
"467 630 LINE",
"375 630 LINE",
"375 598 LINE",
"415 598 LINE SMOOTH",
"429 598 OFFCURVE",
"434 590 OFFCURVE",
"434 577 CURVE SMOOTH",
"434 289 LINE SMOOTH",
"434 276 OFFCURVE",
"429 268 OFFCURVE",
"416 268 CURVE SMOOTH",
"376 268 LINE"
);
},
{
closed = 1;
nodes = (
"717 236 LINE",
"879 236 LINE",
"879 268 LINE",
"836 268 LINE SMOOTH",
"824 268 OFFCURVE",
"820 276 OFFCURVE",
"820 289 CURVE SMOOTH",
"820 577 LINE SMOOTH",
"820 590 OFFCURVE",
"824 598 OFFCURVE",
"836 598 CURVE SMOOTH",
"879 598 LINE",
"879 630 LINE",
"774 630 LINE",
"774 289 LINE",
"774 276 OFFCURVE",
"770 268 OFFCURVE",
"756 268 CURVE SMOOTH",
"717 268 LINE"
);
},
{
closed = 1;
nodes = (
"452 630 LINE",
"466 578 LINE",
"470 578 LINE",
"593 236 LINE",
"646 236 LINE",
"772 578 LINE",
"775 578 LINE",
"792 630 LINE",
"755 630 LINE",
"626 282 LINE",
"623 282 LINE",
"499 630 LINE"
);
}
);
width = 894;
},
{
layerId = m002;
width = 600;
}
);
unicode = 2120;
},
{
color = 11;
export = 0;
glyphname = cent;
lastChange = "2025-06-27 05:07:40 +0000";
layers = (
{
layerId = "5DAEE4C7-75B6-49C7-8B62-3AAE62732CCA";
name = "Light Condensed";
paths = (
{
closed = 1;
nodes = (
"154 127 OFFCURVE",
"114 185 OFFCURVE",
"114 311 CURVE SMOOTH",
"114 437 OFFCURVE",
"153 493 OFFCURVE",
"241 493 CURVE SMOOTH",
"295 493 OFFCURVE",
"327 473 OFFCURVE",
"327 439 CURVE SMOOTH",
"327 414 OFFCURVE",
"308 409 OFFCURVE",
"308 383 CURVE SMOOTH",
"308 360 OFFCURVE",
"323 345 OFFCURVE",
"347 345 CURVE SMOOTH",
"378 345 OFFCURVE",
"397 370 OFFCURVE",
"397 413 CURVE SMOOTH",
"397 493 OFFCURVE",
"334 545 OFFCURVE",
"238 545 CURVE SMOOTH",
"114 545 OFFCURVE",
"43 459 OFFCURVE",
"43 307 CURVE SMOOTH",
"43 160 OFFCURVE",
"111 75 OFFCURVE",
"231 75 CURVE SMOOTH",
"340 75 OFFCURVE",
"401 144 OFFCURVE",
"401 267 CURVE",
"347 267 LINE",
"343 170 OFFCURVE",
"308 127 OFFCURVE",
"237 127 CURVE SMOOTH"
);
},
{
closed = 1;
nodes = (
"351 469 LINE",
"346 435 LINE",
"317 409 LINE",
"148 137 LINE",
"133 113 LINE",
"75 16 LINE",
"123 16 LINE",
"453 562 LINE",
"405 562 LINE"
);
}
);
width = 440;
},
{
layerId = m002;
width = 600;
}
);
unicode = 00A2;
},
{
color = 11;
export = 0;
glyphname = colonsign;
lastChange = "2025-06-27 05:07:40 +0000";
layers = (
{
layerId = "5DAEE4C7-75B6-49C7-8B62-3AAE62732CCA";
name = "Light Condensed";
paths = (
{
closed = 1;
nodes = (
"154 127 OFFCURVE",
"114 185 OFFCURVE",
"114 311 CURVE SMOOTH",
"114 437 OFFCURVE",
"153 493 OFFCURVE",
"241 493 CURVE SMOOTH",
"295 493 OFFCURVE",
"329 473 OFFCURVE",
"329 439 CURVE SMOOTH",
"329 414 OFFCURVE",
"309 409 OFFCURVE",
"309 383 CURVE SMOOTH",
"309 360 OFFCURVE",
"324 345 OFFCURVE",
"349 345 CURVE SMOOTH",
"380 345 OFFCURVE",
"398 370 OFFCURVE",
"398 413 CURVE SMOOTH",
"398 493 OFFCURVE",
"334 545 OFFCURVE",
"238 545 CURVE SMOOTH",
"114 545 OFFCURVE",
"43 459 OFFCURVE",
"43 307 CURVE SMOOTH",
"43 160 OFFCURVE",
"111 75 OFFCURVE",
"231 75 CURVE SMOOTH",
"340 75 OFFCURVE",
"401 144 OFFCURVE",
"401 267 CURVE",
"349 267 LINE",
"345 170 OFFCURVE",
"310 127 OFFCURVE",
"238 127 CURVE SMOOTH"
);
},
{
closed = 1;
nodes = (
"353 469 LINE",
"347 435 LINE",
"318 409 LINE",
"149 137 LINE",
"134 113 LINE",
"85 30 LINE",
"133 30 LINE",
"463 577 LINE",
"416 577 LINE"
);
},
{
closed = 1;
nodes = (
"-12 30 LINE",
"36 30 LINE",
"115 164 LINE",
"190 287 LINE",
"267 412 LINE",
"324 504 LINE",
"366 576 LINE",
"318 576 LINE"
);
}
);
width = 440;
},
{
layerId = m002;
width = 600;
}
);
unicode = 20A1;
},
{
color = 11;
export = 0;
glyphname = currency;
lastChange = "2025-06-27 05:07:40 +0000";
layers = (
{
layerId = "5DAEE4C7-75B6-49C7-8B62-3AAE62732CCA";
name = "Light Condensed";
paths = (
{
closed = 1;
nodes = (
"303 167 OFFCURVE",
"372 236 OFFCURVE",
"372 319 CURVE SMOOTH",
"372 403 OFFCURVE",
"303 472 OFFCURVE",
"207 472 CURVE SMOOTH",
"110 472 OFFCURVE",
"41 403 OFFCURVE",
"41 319 CURVE SMOOTH",
"41 236 OFFCURVE",
"110 167 OFFCURVE",
"207 167 CURVE SMOOTH"
);
},
{
closed = 1;
nodes = (
"141 224 OFFCURVE",
"100 265 OFFCURVE",
"100 321 CURVE SMOOTH",
"100 377 OFFCURVE",
"141 417 OFFCURVE",
"207 417 CURVE SMOOTH",
"273 417 OFFCURVE",
"315 377 OFFCURVE",
"315 321 CURVE SMOOTH",
"315 265 OFFCURVE",
"273 224 OFFCURVE",
"207 224 CURVE SMOOTH"
);
},
{
closed = 1;
nodes = (
"174 471 LINE",
"138 474 LINE",
"155 413 LINE",
"190 413 LINE"
);
},
{
closed = 1;
nodes = (
"241 166 LINE",
"277 163 LINE",
"258 227 LINE",
"223 227 LINE"
);
},
{
closed = 1;
nodes = (
"42 292 LINE",
"38 256 LINE",
"99 274 LINE",
"99 309 LINE"
);
},
{
closed = 1;
nodes = (
"373 345 LINE",
"376 381 LINE",
"312 362 LINE",
"312 327 LINE"
);
}
);
width = 414;
},
{
layerId = m002;
width = 600;
}
);
unicode = 00A4;
},
{
color = 11;
export = 0;
glyphname = dollar;
lastChange = "2025-06-27 05:07:40 +0000";
layers = (
{
layerId = "5DAEE4C7-75B6-49C7-8B62-3AAE62732CCA";
name = "Light Condensed";
paths = (
{
closed = 1;
nodes = (
"264 34 LINE",
"282 21 LINE",
"264 0 LINE",
"264 -90 LINE",
"314 -90 LINE",
"314 592 LINE",
"293 611 LINE",
"314 628 LINE",
"314 715 LINE",
"264 715 LINE"
);
},
{
closed = 1;
nodes = (
"426 -10 OFFCURVE",
"514 55 OFFCURVE",
"514 163 CURVE SMOOTH",
"514 387 OFFCURVE",
"127 329 OFFCURVE",
"127 485 CURVE SMOOTH",
"127 546 OFFCURVE",
"187 584 OFFCURVE",
"285 584 CURVE SMOOTH",
"373 584 OFFCURVE",
"428 553 OFFCURVE",
"428 502 CURVE SMOOTH",
"428 472 OFFCURVE",
"407 464 OFFCURVE",
"407 438 CURVE SMOOTH",
"407 415 OFFCURVE",
"423 400 OFFCURVE",
"447 400 CURVE SMOOTH",
"479 400 OFFCURVE",
"497 427 OFFCURVE",
"497 475 CURVE SMOOTH",
"497 578 OFFCURVE",
"417 639 OFFCURVE",
"282 639 CURVE SMOOTH",
"144 639 OFFCURVE",
"58 574 OFFCURVE",
"58 472 CURVE SMOOTH",
"58 255 OFFCURVE",
"445 321 OFFCURVE",
"445 150 CURVE SMOOTH",
"445 83 OFFCURVE",
"385 44 OFFCURVE",
"282 44 CURVE SMOOTH",
"183 44 OFFCURVE",
"118 81 OFFCURVE",
"118 136 CURVE SMOOTH",
"118 169 OFFCURVE",
"139 177 OFFCURVE",
"139 203 CURVE SMOOTH",
"139 225 OFFCURVE",
"123 239 OFFCURVE",
"99 239 CURVE SMOOTH",
"67 239 OFFCURVE",
"48 211 OFFCURVE",
"48 163 CURVE SMOOTH",
"48 56 OFFCURVE",
"137 -10 OFFCURVE",
"283 -10 CURVE SMOOTH"
);
}
);
width = 563;
},
{
layerId = m002;
width = 600;
}
);
unicode = 0024;
},
{
color = 11;
export = 0;
glyphname = euro;
lastChange = "2025-06-27 05:07:40 +0000";
layers = (
{
layerId = "5DAEE4C7-75B6-49C7-8B62-3AAE62732CCA";
name = "Light Condensed";
paths = (
{
closed = 1;
nodes = (
"208 48 OFFCURVE",
"135 131 OFFCURVE",
"135 315 CURVE SMOOTH",
"135 494 OFFCURVE",
"205 582 OFFCURVE",
"342 582 CURVE SMOOTH",
"447 582 OFFCURVE",
"507 531 OFFCURVE",
"522 400 CURVE",
"574 400 LINE",
"574 630 LINE",
"528 630 LINE",
"518 553 LINE",
"514 553 LINE",
"479 610 OFFCURVE",
"418 640 OFFCURVE",
"330 640 CURVE SMOOTH",
"156 640 OFFCURVE",
"58 525 OFFCURVE",
"58 315 CURVE SMOOTH",
"58 109 OFFCURVE",
"153 -10 OFFCURVE",
"325 -10 CURVE SMOOTH",
"412 -10 OFFCURVE",
"473 22 OFFCURVE",
"514 87 CURVE",
"518 87 LINE",
"529 0 LINE",
"574 0 LINE",
"574 240 LINE",
"522 240 LINE",
"506 105 OFFCURVE",
"443 48 OFFCURVE",
"337 48 CURVE SMOOTH"
);
},
{
closed = 1;
nodes = (
"-37 338 LINE",
"356 338 LINE",
"369 385 LINE",
"-24 385 LINE"
);
},
{
closed = 1;
nodes = (
"-37 238 LINE",
"331 238 LINE",
"344 285 LINE",
"-24 285 LINE"
);
}
);
width = 633;
},
{
layerId = m002;
width = 600;
}
);
unicode = 20AC;
},
{
color = 11;
export = 0;
glyphname = franc;
lastChange = "2025-06-27 05:07:40 +0000";
layers = (
{
layerId = "5DAEE4C7-75B6-49C7-8B62-3AAE62732CCA";
name = "Light Condensed";
paths = (
{
closed = 1;
nodes = (
"24 0 LINE",
"309 0 LINE",
"309 50 LINE",
"220 50 LINE SMOOTH",
"199 50 OFFCURVE",
"186 65 OFFCURVE",
"186 90 CURVE SMOOTH",
"186 293 LINE",
"313 293 LINE SMOOTH",
"347 293 OFFCURVE",
"356 271 OFFCURVE",
"356 200 CURVE",
"403 200 LINE",
"403 431 LINE",
"356 431 LINE",
"356 356 OFFCURVE",
"347 339 OFFCURVE",
"313 339 CURVE SMOOTH",
"186 339 LINE",
"186 580 LINE",
"432 580 LINE SMOOTH",
"482 580 OFFCURVE",
"504 559 OFFCURVE",
"504 407 CURVE",
"560 407 LINE",
"560 630 LINE",
"24 630 LINE",
"24 580 LINE",
"81 580 LINE SMOOTH",
"104 580 OFFCURVE",
"113 570 OFFCURVE",
"113 543 CURVE SMOOTH",
"113 83 LINE SMOOTH",
"113 60 OFFCURVE",
"102 50 OFFCURVE",
"84 50 CURVE SMOOTH",
"24 50 LINE"
);
},
{
closed = 1;
nodes = (
"24 125 LINE",
"302 125 LINE",
"302 170 LINE",
"24 170 LINE"
);
}
);
width = 619;
},
{
layerId = m002;
width = 600;
}
);
unicode = 20A3;
},
{
color = 11;
export = 0;
glyphname = lira;
lastChange = "2025-06-27 05:07:40 +0000";
layers = (
{
layerId = "5DAEE4C7-75B6-49C7-8B62-3AAE62732CCA";
name = "Light Condensed";
paths = (
{
closed = 1;
nodes = (
"368 587 OFFCURVE",
"421 559 OFFCURVE",
"421 515 CURVE SMOOTH",
"421 486 OFFCURVE",
"399 483 OFFCURVE",
"399 454 CURVE SMOOTH",
"399 430 OFFCURVE",
"415 414 OFFCURVE",
"440 414 CURVE SMOOTH",
"473 414 OFFCURVE",
"494 442 OFFCURVE",
"494 488 CURVE SMOOTH",
"494 582 OFFCURVE",
"412 640 OFFCURVE",
"280 640 CURVE SMOOTH",
"139 640 OFFCURVE",
"55 573 OFFCURVE",
"55 460 CURVE SMOOTH",
"55 361 OFFCURVE",
"120 326 OFFCURVE",
"120 259 CURVE SMOOTH",
"120 190 OFFCURVE",
"53 143 OFFCURVE",
"53 54 CURVE SMOOTH",
"53 11 OFFCURVE",
"69 -10 OFFCURVE",
"103 -10 CURVE SMOOTH",
"128 -10 OFFCURVE",
"144 2 OFFCURVE",
"144 21 CURVE SMOOTH",
"144 39 OFFCURVE",
"131 40 OFFCURVE",
"131 51 CURVE SMOOTH",
"131 65 OFFCURVE",
"151 74 OFFCURVE",
"180 74 CURVE SMOOTH",
"269 74 OFFCURVE",
"282 -9 OFFCURVE",
"378 -9 CURVE SMOOTH",
"469 -9 OFFCURVE",
"516 65 OFFCURVE",
"516 205 CURVE SMOOTH",
"516 238 LINE",
"462 238 LINE",
"462 118 OFFCURVE",
"432 58 OFFCURVE",
"371 58 CURVE SMOOTH",
"311 58 OFFCURVE",
"284 119 OFFCURVE",
"203 119 CURVE SMOOTH",
"172 119 OFFCURVE",
"147 109 OFFCURVE",
"132 92 CURVE",
"130 93 LINE",
"136 153 OFFCURVE",
"196 181 OFFCURVE",
"196 260 CURVE SMOOTH",
"196 344 OFFCURVE",
"131 371 OFFCURVE",
"131 463 CURVE SMOOTH",
"131 545 OFFCURVE",
"183 587 OFFCURVE",
"285 587 CURVE SMOOTH"
);
},
{
closed = 1;
nodes = (
"12 337 LINE",
"329 337 LINE",
"329 381 LINE",
"12 381 LINE"
);
},
{
closed = 1;
nodes = (
"12 241 LINE",
"329 241 LINE",
"329 285 LINE",
"12 285 LINE"
);
}
);
width = 566;
},
{
layerId = m002;
width = 600;
}
);
unicode = 20A4;
},
{
color = 11;
export = 0;
glyphname = liraTurkish;
lastChange = "2025-06-27 05:07:40 +0000";
layers = (
{
layerId = "5DAEE4C7-75B6-49C7-8B62-3AAE62732CCA";
name = "Light Condensed";
paths = (
{
closed = 1;
nodes = (
"426 0 OFFCURVE",
"496 61 OFFCURVE",
"496 173 CURVE SMOOTH",
"496 236 OFFCURVE",
"478 262 OFFCURVE",
"446 262 CURVE SMOOTH",
"421 262 OFFCURVE",
"405 247 OFFCURVE",
"405 221 CURVE SMOOTH",
"405 190 OFFCURVE",
"428 181 OFFCURVE",
"428 136 CURVE SMOOTH",
"428 78 OFFCURVE",
"382 51 OFFCURVE",
"311 51 CURVE SMOOTH",
"186 51 LINE",
"186 545 LINE SMOOTH",
"186 568 OFFCURVE",
"193 580 OFFCURVE",
"215 580 CURVE SMOOTH",
"293 580 LINE",
"293 630 LINE",
"24 630 LINE",
"24 580 LINE",
"83 580 LINE SMOOTH",
"105 580 OFFCURVE",
"113 568 OFFCURVE",
"113 544 CURVE SMOOTH",
"113 84 LINE SMOOTH",
"113 62 OFFCURVE",
"104 50 OFFCURVE",
"84 50 CURVE SMOOTH",
"24 50 LINE",
"24 0 LINE",
"311 0 LINE SMOOTH"
);
},
{
closed = 1;
nodes = (
"25 260 LINE",
"338 436 LINE",
"338 488 LINE",
"25 312 LINE"
);
},
{
closed = 1;
nodes = (
"25 145 LINE",
"338 321 LINE",
"338 373 LINE",
"25 197 LINE"
);
}
);
width = 571;
},
{
layerId = m002;
width = 600;
}
);
unicode = 20BA;
},
{
color = 11;
export = 0;
glyphname = naira;
lastChange = "2025-06-27 05:07:40 +0000";
layers = (
{
layerId = "5DAEE4C7-75B6-49C7-8B62-3AAE62732CCA";
name = "Light Condensed";
paths = (
{
closed = 1;
nodes = (
"24 0 LINE",
"268 0 LINE",
"268 50 LINE",
"208 50 LINE SMOOTH",
"190 50 OFFCURVE",
"183 64 OFFCURVE",
"183 84 CURVE SMOOTH",
"183 517 LINE",
"187 517 LINE",
"533 0 LINE",
"605 0 LINE",
"605 546 LINE SMOOTH",
"605 566 OFFCURVE",
"612 580 OFFCURVE",
"632 580 CURVE SMOOTH",
"695 580 LINE",
"695 630 LINE",
"447 630 LINE",
"447 580 LINE",
"508 580 LINE SMOOTH",
"529 580 OFFCURVE",
"536 566 OFFCURVE",
"536 546 CURVE SMOOTH",
"536 123 LINE",
"532 123 LINE",
"193 630 LINE",
"23 630 LINE",
"23 580 LINE",
"84 580 LINE SMOOTH",
"106 580 OFFCURVE",
"113 566 OFFCURVE",
"113 546 CURVE SMOOTH",
"113 84 LINE SMOOTH",
"113 64 OFFCURVE",
"106 50 OFFCURVE",
"84 50 CURVE SMOOTH",
"24 50 LINE"
);
},
{
closed = 1;
nodes = (
"25 339 LINE",
"694 339 LINE",
"694 383 LINE",
"25 383 LINE"
);
},
{
closed = 1;
nodes = (
"25 243 LINE",
"694 243 LINE",
"694 286 LINE",
"25 286 LINE"
);
}
);
width = 718;
},
{
layerId = m002;
width = 600;
}
);
unicode = 20A6;
},
{
color = 11;
export = 0;
glyphname = rupeeIndian;
lastChange = "2025-06-27 05:07:40 +0000";
layers = (
{
layerId = "5DAEE4C7-75B6-49C7-8B62-3AAE62732CCA";
name = "Light Condensed";
paths = (
{
closed = 1;
nodes = (
"369 586 OFFCURVE",
"417 540 OFFCURVE",
"417 462 CURVE SMOOTH",
"417 383 OFFCURVE",
"367 339 OFFCURVE",
"260 339 CURVE SMOOTH",
"23 339 LINE",
"23 283 LINE",
"274 283 LINE SMOOTH",
"408 283 OFFCURVE",
"491 351 OFFCURVE",
"491 461 CURVE SMOOTH",
"491 565 OFFCURVE",
"416 630 OFFCURVE",
"275 630 CURVE SMOOTH",
"23 630 LINE",
"23 586 LINE",
"270 586 LINE SMOOTH"
);
},
{
closed = 1;
nodes = (
"525 -10 OFFCURVE",
"555 28 OFFCURVE",
"555 104 CURVE SMOOTH",
"555 171 LINE",
"505 171 LINE",
"505 114 LINE SMOOTH",
"505 66 OFFCURVE",
"492 47 OFFCURVE",
"463 47 CURVE SMOOTH",
"433 47 OFFCURVE",
"420 66 OFFCURVE",
"420 115 CURVE SMOOTH",
"420 164 LINE SMOOTH",
"420 232 OFFCURVE",
"404 277 OFFCURVE",
"371 294 CURVE",
"371 299 LINE",
"357 308 OFFCURVE",
"331 312 OFFCURVE",
"261 312 CURVE",
"253 283 LINE",
"325 283 OFFCURVE",
"349 253 OFFCURVE",
"349 157 CURVE SMOOTH",
"349 104 LINE SMOOTH",
"349 29 OFFCURVE",
"385 -10 OFFCURVE",
"456 -10 CURVE SMOOTH"
);
},
{
closed = 1;
nodes = (
"23 586 LINE",
"592 586 LINE",
"592 630 LINE",
"23 630 LINE"
);
},
{
closed = 1;
nodes = (
"23 472 LINE",
"592 472 LINE",
"592 516 LINE",
"23 516 LINE"
);
}
);
width = 599;
},
{
layerId = m002;
width = 600;
}
);
unicode = 20B9;
},
{
color = 11;
export = 0;
glyphname = sterling;
lastChange = "2025-06-27 05:07:40 +0000";
layers = (
{
layerId = "5DAEE4C7-75B6-49C7-8B62-3AAE62732CCA";
name = "Light Condensed";
paths = (
{
closed = 1;
nodes = (
"368 587 OFFCURVE",
"421 559 OFFCURVE",
"421 515 CURVE SMOOTH",
"421 486 OFFCURVE",
"399 483 OFFCURVE",
"399 454 CURVE SMOOTH",
"399 430 OFFCURVE",
"415 414 OFFCURVE",
"440 414 CURVE SMOOTH",
"473 414 OFFCURVE",
"494 442 OFFCURVE",
"494 488 CURVE SMOOTH",
"494 582 OFFCURVE",
"412 640 OFFCURVE",
"280 640 CURVE SMOOTH",
"139 640 OFFCURVE",
"55 573 OFFCURVE",
"55 460 CURVE SMOOTH",
"55 361 OFFCURVE",
"120 326 OFFCURVE",
"120 259 CURVE SMOOTH",
"120 190 OFFCURVE",
"53 143 OFFCURVE",
"53 54 CURVE SMOOTH",
"53 11 OFFCURVE",
"69 -10 OFFCURVE",
"103 -10 CURVE SMOOTH",
"128 -10 OFFCURVE",
"144 2 OFFCURVE",
"144 21 CURVE SMOOTH",
"144 39 OFFCURVE",
"131 40 OFFCURVE",
"131 51 CURVE SMOOTH",
"131 65 OFFCURVE",
"151 74 OFFCURVE",
"180 74 CURVE SMOOTH",
"269 74 OFFCURVE",
"282 -9 OFFCURVE",
"378 -9 CURVE SMOOTH",
"469 -9 OFFCURVE",
"516 65 OFFCURVE",
"516 205 CURVE SMOOTH",
"516 238 LINE",
"462 238 LINE",
"462 118 OFFCURVE",
"432 58 OFFCURVE",
"371 58 CURVE SMOOTH",
"311 58 OFFCURVE",
"284 119 OFFCURVE",
"203 119 CURVE SMOOTH",
"172 119 OFFCURVE",
"147 109 OFFCURVE",
"132 92 CURVE",
"130 93 LINE",
"136 153 OFFCURVE",
"196 181 OFFCURVE",
"196 260 CURVE SMOOTH",
"196 344 OFFCURVE",
"131 371 OFFCURVE",
"131 463 CURVE SMOOTH",
"131 545 OFFCURVE",
"183 587 OFFCURVE",
"285 587 CURVE SMOOTH"
);
},
{
closed = 1;
nodes = (
"12 287 LINE",
"338 287 LINE",
"338 330 LINE",
"12 330 LINE"
);
}
);
width = 566;
},
{
layerId = m002;
width = 600;
}
);
unicode = 00A3;
},
{
color = 11;
export = 0;
glyphname = won;
lastChange = "2025-06-27 05:07:40 +0000";
layers = (
{
layerId = "5DAEE4C7-75B6-49C7-8B62-3AAE62732CCA";
name = "Light Condensed";
paths = (
{
closed = 1;
nodes = (
"13 580 LINE",
"59 580 LINE SMOOTH",
"85 580 OFFCURVE",
"97 569 OFFCURVE",
"106 539 CURVE SMOOTH",
"275 0 LINE",
"366 0 LINE",
"539 541 LINE",
"477 539 LINE",
"333 72 LINE",
"329 72 LINE",
"185 539 LINE SMOOTH",
"183 545 OFFCURVE",
"182 552 OFFCURVE",
"182 556 CURVE SMOOTH",
"182 572 OFFCURVE",
"193 580 OFFCURVE",
"213 580 CURVE SMOOTH",
"275 580 LINE",
"275 630 LINE",
"13 630 LINE"
);
},
{
closed = 1;
nodes = (
"381 580 LINE",
"428 580 LINE SMOOTH",
"452 580 OFFCURVE",
"466 569 OFFCURVE",
"474 539 CURVE SMOOTH",
"504 428 LINE",
"509 428 LINE",
"644 0 LINE",
"734 0 LINE",
"906 541 LINE SMOOTH",
"916 572 OFFCURVE",
"925 580 OFFCURVE",
"949 580 CURVE SMOOTH",
"995 580 LINE",
"995 630 LINE",
"756 630 LINE",
"756 580 LINE",
"818 580 LINE SMOOTH",
"839 580 OFFCURVE",
"848 571 OFFCURVE",
"848 556 CURVE SMOOTH",
"848 551 OFFCURVE",
"847 546 OFFCURVE",
"845 539 CURVE SMOOTH",
"701 72 LINE",
"696 72 LINE",
"553 539 LINE SMOOTH",
"551 545 OFFCURVE",
"550 552 OFFCURVE",
"550 556 CURVE SMOOTH",
"550 572 OFFCURVE",
"561 580 OFFCURVE",
"580 580 CURVE SMOOTH",
"644 580 LINE",
"644 630 LINE",
"381 630 LINE"
);
},
{
closed = 1;
nodes = (
"20 298 LINE",
"988 298 LINE",
"988 342 LINE",
"20 342 LINE"
);
},
{
closed = 1;
nodes = (
"20 199 LINE",
"988 199 LINE",
"988 243 LINE",
"20 243 LINE"
);
}
);
width = 1008;
},
{
layerId = m002;
width = 600;
}
);
unicode = 20A9;
},
{
color = 11;
export = 0;
glyphname = yen;
lastChange = "2025-06-27 05:07:40 +0000";
layers = (
{
layerId = "5DAEE4C7-75B6-49C7-8B62-3AAE62732CCA";
name = "Light Condensed";
paths = (
{
closed = 1;
nodes = (
"7 580 LINE",
"38 580 LINE SMOOTH",
"66 580 OFFCURVE",
"82 573 OFFCURVE",
"101 541 CURVE SMOOTH",
"296 233 LINE",
"353 244 LINE",
"536 544 LINE SMOOTH",
"553 573 OFFCURVE",
"563 580 OFFCURVE",
"591 580 CURVE SMOOTH",
"624 580 LINE",
"624 630 LINE",
"384 630 LINE",
"384 580 LINE",
"451 580 LINE SMOOTH",
"468 580 OFFCURVE",
"480 573 OFFCURVE",
"480 560 CURVE SMOOTH",
"480 554 OFFCURVE",
"477 546 OFFCURVE",
"473 539 CURVE SMOOTH",
"332 308 LINE",
"328 308 LINE",
"187 539 LINE SMOOTH",
"183 546 OFFCURVE",
"181 553 OFFCURVE",
"181 559 CURVE SMOOTH",
"181 571 OFFCURVE",
"190 580 OFFCURVE",
"208 580 CURVE SMOOTH",
"277 580 LINE",
"277 630 LINE",
"7 630 LINE"
);
},
{
closed = 1;
nodes = (
"199 0 LINE",
"454 0 LINE",
"454 50 LINE",
"390 50 LINE SMOOTH",
"371 50 OFFCURVE",
"363 63 OFFCURVE",
"363 84 CURVE SMOOTH",
"363 300 LINE",
"290 300 LINE",
"290 84 LINE SMOOTH",
"290 63 OFFCURVE",
"282 50 OFFCURVE",
"260 50 CURVE SMOOTH",
"199 50 LINE"
);
},
{
closed = 1;
nodes = (
"199 130 LINE",
"454 130 LINE",
"454 176 LINE",
"199 176 LINE"
);
}
);
width = 630;
},
{
layerId = m002;
width = 600;
}
);
unicode = 00A5;
},
{
color = 11;
export = 0;
glyphname = divisionslash;
lastChange = "2025-06-27 05:07:40 +0000";
layers = (
{
layerId = "5DAEE4C7-75B6-49C7-8B62-3AAE62732CCA";
name = "Light Condensed";
paths = (
{
closed = 1;
nodes = (
"31 -10 LINE",
"220 675 LINE",
"182 675 LINE",
"-8 -10 LINE"
);
}
);
width = 213;
},
{
layerId = m002;
width = 600;
}
);
unicode = 2215;
},
{
color = 11;
export = 0;
glyphname = plus;
lastChange = "2025-06-27 05:07:40 +0000";
layers = (
{
layerId = "5DAEE4C7-75B6-49C7-8B62-3AAE62732CCA";
name = "Light Condensed";
paths = (
{
closed = 1;
nodes = (
"446 279 LINE",
"446 323 LINE",
"30 323 LINE",
"30 279 LINE"
);
},
{
closed = 1;
nodes = (
"216 85 LINE",
"260 85 LINE",
"260 512 LINE",
"216 512 LINE"
);
}
);
width = 476;
},
{
layerId = m002;
width = 600;
}
);
unicode = 002B;
},
{
color = 11;
export = 0;
glyphname = minus;
lastChange = "2025-06-27 05:07:40 +0000";
layers = (
{
layerId = "5DAEE4C7-75B6-49C7-8B62-3AAE62732CCA";
name = "Light Condensed";
paths = (
{
closed = 1;
nodes = (
"446 279 LINE",
"446 323 LINE",
"30 323 LINE",
"30 279 LINE"
);
}
);
width = 476;
},
{
layerId = m002;
width = 600;
}
);
unicode = 2212;
},
{
color = 11;
export = 0;
glyphname = multiply;
lastChange = "2025-06-27 05:07:40 +0000";
layers = (
{
layerId = "5DAEE4C7-75B6-49C7-8B62-3AAE62732CCA";
name = "Light Condensed";
paths = (
{
closed = 1;
nodes = (
"399 109 LINE",
"430 140 LINE",
"80 491 LINE",
"49 460 LINE"
);
},
{
closed = 1;
nodes = (
"44 135 LINE",
"75 104 LINE",
"433 461 LINE",
"401 493 LINE"
);
}
);
width = 476;
},
{
layerId = m002;
width = 600;
}
);
unicode = 00D7;
},
{
color = 11;
export = 0;
glyphname = divide;
lastChange = "2025-06-27 05:07:40 +0000";
layers = (
{
layerId = "5DAEE4C7-75B6-49C7-8B62-3AAE62732CCA";
name = "Light Condensed";
paths = (
{
closed = 1;
nodes = (
"446 279 LINE",
"446 323 LINE",
"30 323 LINE",
"30 279 LINE"
);
},
{
closed = 1;
nodes = (
"268 400 OFFCURVE",
"293 425 OFFCURVE",
"293 454 CURVE SMOOTH",
"293 484 OFFCURVE",
"268 509 OFFCURVE",
"238 509 CURVE SMOOTH",
"208 509 OFFCURVE",
"184 484 OFFCURVE",
"184 454 CURVE SMOOTH",
"184 425 OFFCURVE",
"208 400 OFFCURVE",
"238 400 CURVE SMOOTH"
);
},
{
closed = 1;
nodes = (
"268 93 OFFCURVE",
"293 118 OFFCURVE",
"293 147 CURVE SMOOTH",
"293 177 OFFCURVE",
"268 202 OFFCURVE",
"238 202 CURVE SMOOTH",
"208 202 OFFCURVE",
"184 177 OFFCURVE",
"184 147 CURVE SMOOTH",
"184 118 OFFCURVE",
"208 93 OFFCURVE",
"238 93 CURVE SMOOTH"
);
}
);
width = 476;
},
{
layerId = m002;
width = 600;
}
);
unicode = 00F7;
},
{
color = 11;
export = 0;
glyphname = equal;
lastChange = "2025-06-27 05:07:40 +0000";
layers = (
{
layerId = "5DAEE4C7-75B6-49C7-8B62-3AAE62732CCA";
name = "Light Condensed";
paths = (
{
closed = 1;
nodes = (
"444 346 LINE",
"444 390 LINE",
"30 390 LINE",
"30 346 LINE"
);
},
{
closed = 1;
nodes = (
"444 187 LINE",
"444 231 LINE",
"30 231 LINE",
"30 187 LINE"
);
}
);
width = 476;
},
{
layerId = m002;
width = 600;
}
);
unicode = 003D;
},
{
color = 11;
export = 0;
glyphname = notequal;
lastChange = "2025-06-27 05:07:40 +0000";
layers = (
{
components = (
{
alignment = -1;
name = equal;
}
);
layerId = "5DAEE4C7-75B6-49C7-8B62-3AAE62732CCA";
name = "Light Condensed";
paths = (
{
closed = 1;
nodes = (
"89 75 LINE",
"137 75 LINE",
"389 498 LINE",
"341 498 LINE"
);
}
);
width = 476;
},
{
layerId = m002;
width = 600;
}
);
unicode = 2260;
},
{
color = 11;
export = 0;
glyphname = less;
lastChange = "2025-06-27 05:07:40 +0000";
layers = (
{
layerId = "5DAEE4C7-75B6-49C7-8B62-3AAE62732CCA";
name = "Light Condensed";
paths = (
{
closed = 1;
nodes = (
"230 368 LINE",
"445 301 LINE",
"245 228 LINE",
"30 296 LINE"
);
},
{
closed = 1;
nodes = (
"245 372 LINE",
"445 300 LINE",
"230 233 LINE",
"30 304 LINE"
);
}
);
width = 476;
},
{
layerId = m002;
width = 600;
}
);
unicode = 003C;
},
{
color = 11;
export = 0;
glyphname = approxequal;
lastChange = "2025-06-27 05:07:40 +0000";
layers = (
{
layerId = "5DAEE4C7-75B6-49C7-8B62-3AAE62732CCA";
name = "Light Condensed";
paths = (
{
closed = 1;
nodes = (
"425 418 LINE",
"400 389 OFFCURVE",
"365 371 OFFCURVE",
"331 371 CURVE SMOOTH",
"261 371 OFFCURVE",
"227 425 OFFCURVE",
"144 425 CURVE SMOOTH",
"101 425 OFFCURVE",
"66 406 OFFCURVE",
"28 359 CURVE",
"54 327 LINE",
"82 362 OFFCURVE",
"111 379 OFFCURVE",
"142 379 CURVE SMOOTH",
"208 379 OFFCURVE",
"249 325 OFFCURVE",
"329 325 CURVE SMOOTH",
"370 325 OFFCURVE",
"409 344 OFFCURVE",
"449 384 CURVE"
);
},
{
closed = 1;
nodes = (
"425 272 LINE",
"400 242 OFFCURVE",
"365 224 OFFCURVE",
"331 224 CURVE SMOOTH",
"261 224 OFFCURVE",
"227 278 OFFCURVE",
"144 278 CURVE SMOOTH",
"101 278 OFFCURVE",
"66 259 OFFCURVE",
"28 212 CURVE",
"54 181 LINE",
"81 214 OFFCURVE",
"111 232 OFFCURVE",
"142 232 CURVE SMOOTH",
"208 232 OFFCURVE",
"249 178 OFFCURVE",
"329 178 CURVE SMOOTH",
"370 178 OFFCURVE",
"409 197 OFFCURVE",
"449 237 CURVE"
);
}
);
width = 476;
},
{
layerId = m002;
width = 600;
}
);
unicode = 2248;
},
{
color = 11;
export = 0;
glyphname = logicalnot;
lastChange = "2025-06-27 05:07:40 +0000";
layers = (
{
layerId = "5DAEE4C7-75B6-49C7-8B62-3AAE62732CCA";
name = "Light Condensed";
paths = (
{
closed = 1;
nodes = (
"446 319 LINE",
"446 363 LINE",
"30 363 LINE",
"30 319 LINE"
);
},
{
closed = 1;
nodes = (
"403 180 LINE",
"446 180 LINE",
"446 363 LINE",
"403 363 LINE"
);
}
);
width = 476;
},
{
layerId = m002;
width = 600;
}
);
unicode = 00AC;
},
{
color = 11;
export = 0;
glyphname = micro;
lastChange = "2025-06-27 05:07:40 +0000";
layers = (
{
layerId = "5DAEE4C7-75B6-49C7-8B62-3AAE62732CCA";
name = "Light Condensed";
paths = (
{
closed = 1;
nodes = (
"281 407 LINE",
"331 407 LINE SMOOTH",
"351 407 OFFCURVE",
"358 398 OFFCURVE",
"358 375 CURVE SMOOTH",
"358 201 LINE SMOOTH",
"358 109 OFFCURVE",
"309 47 OFFCURVE",
"234 47 CURVE SMOOTH",
"176 47 OFFCURVE",
"144 83 OFFCURVE",
"144 142 CURVE SMOOTH",
"144 450 LINE",
"-8 450 LINE",
"-8 407 LINE",
"49 407 LINE SMOOTH",
"68 407 OFFCURVE",
"76 398 OFFCURVE",
"76 376 CURVE SMOOTH",
"76 140 LINE SMOOTH",
"76 58 OFFCURVE",
"142 -10 OFFCURVE",
"225 -10 CURVE SMOOTH",
"281 -10 OFFCURVE",
"327 19 OFFCURVE",
"354 72 CURVE",
"358 72 LINE",
"358 0 LINE",
"506 0 LINE",
"506 42 LINE",
"453 42 LINE SMOOTH",
"434 42 OFFCURVE",
"426 51 OFFCURVE",
"426 74 CURVE SMOOTH",
"426 450 LINE",
"281 450 LINE"
);
},
{
closed = 1;
nodes = (
"76 151 LINE",
"76 -76 LINE SMOOTH",
"76 -97 OFFCURVE",
"70 -110 OFFCURVE",
"48 -110 CURVE SMOOTH",
"-7 -110 LINE",
"-7 -153 LINE",
"141 -153 LINE",
"141 151 LINE"
);
}
);
width = 508;
},
{
layerId = m002;
width = 600;
}
);
unicode = 00B5;
},
{
color = 11;
export = 0;
glyphname = lozenge;
lastChange = "2025-06-27 05:07:40 +0000";
layers = (
{
layerId = "5DAEE4C7-75B6-49C7-8B62-3AAE62732CCA";
name = "Light Condensed";
paths = (
{
closed = 1;
nodes = (
"471 301 LINE",
"288 663 LINE",
"221 663 LINE",
"39 301 LINE",
"225 -60 LINE",
"284 -60 LINE"
);
},
{
closed = 1;
nodes = (
"411 301 LINE",
"256 1 LINE",
"254 1 LINE",
"98 301 LINE",
"253 609 LINE",
"257 609 LINE"
);
}
);
width = 511;
},
{
layerId = m002;
width = 600;
}
);
unicode = 25CA;
},
{
color = 11;
export = 0;
glyphname = espaciador;
lastChange = "2025-06-27 05:07:40 +0000";
layers = (
{
layerId = "5DAEE4C7-75B6-49C7-8B62-3AAE62732CCA";
name = "Light Condensed";
paths = (
{
closed = 1;
nodes = (
"0 -314 LINE",
"68 -314 LINE",
"68 787 LINE",
"0 787 LINE"
);
}
